<?xml version="1.0" standalone="no"?>
<!DOCTYPE svg PUBLIC "-//W3C//DTD SVG 20010904//EN"
 "http://www.w3.org/TR/2001/REC-SVG-20010904/DTD/svg10.dtd">
<svg version="1.0" xmlns="http://www.w3.org/2000/svg"
 width="319.000000pt" height="319.000000pt" viewBox="0 0 319.000000 319.000000"
 preserveAspectRatio="xMidYMid meet">
<metadata>
Created by potrace 1.11, written by Peter Selinger 2001-2013
</metadata>
<g transform="translate(0.000000,319.000000) scale(0.100000,-0.100000)"
fill="#000000" stroke="none">
<path d="M1369 3056 c-2 -2 -26 -7 -54 -10 -84 -9 -287 -64 -344 -93 -96 -49
-156 -123 -187 -230 -2 -9 -16 -11 -43 -7 -55 8 -100 -9 -143 -54 -40 -40 -91
-131 -108 -190 -32 -114 -32 -288 0 -427 6 -27 13 -117 15 -200 2 -88 10 -176
19 -214 14 -62 13 -87 -3 -76 -14 8 -52 -32 -58 -62 -10 -53 -9 -128 3 -213
18 -127 49 -199 86 -200 18 0 27 -10 33 -38 2 -10 17 -67 34 -127 56 -193 122
-299 291 -465 131 -129 168 -158 260 -202 93 -45 145 -58 257 -65 97 -6 194 9
276 43 103 44 255 148 376 259 43 39 131 147 131 160 0 4 9 19 20 35 11 15 17
30 13 34 -3 3 -1 6 5 6 7 0 12 5 12 11 0 6 6 25 14 42 12 28 25 59 31 77 1 3
9 22 18 42 10 21 17 42 17 47 0 6 6 8 13 5 21 -8 65 33 85 79 16 36 22 55 37
110 2 4 3 8 5 10 1 1 3 9 5 17 2 8 7 26 10 40 4 14 9 51 12 83 6 70 -10 115
-43 123 -13 3 -24 7 -24 9 0 3 38 94 51 120 5 11 11 30 14 43 2 13 6 31 9 40
3 9 8 46 11 82 9 85 20 136 41 185 10 22 18 42 19 45 0 3 4 11 8 17 5 7 10 22
13 33 2 11 7 30 11 43 4 12 7 74 9 137 2 110 3 116 26 130 29 18 58 46 58 56
0 4 6 15 14 23 32 38 61 187 34 179 -7 -2 -20 -18 -28 -35 -16 -33 -56 -63
-85 -63 -27 0 -88 31 -115 60 -14 14 -52 61 -84 104 -66 90 -98 127 -144 170
-80 73 -108 96 -119 96 -7 0 -13 5 -13 10 0 6 -7 10 -15 10 -8 0 -15 4 -15 9
0 7 -108 61 -135 67 -5 2 -35 11 -65 22 -30 11 -71 23 -90 26 -19 3 -46 8 -60
11 -64 12 -412 30 -421 21z"/>
</g>
</svg>
