<svg xmlns="http://www.w3.org/2000/svg" width="169.76" height="78.276" viewBox="0 0 169.76 78.276">
  <path id="Path_99" data-name="Path 99" d="M-2504.794,2762.07c-13.847,0-26.608-2.376-37.539-7.047a53.85,53.85,0,0,1-17.847-11.819,35.6,35.6,0,0,1-8.858-15.242,37.79,37.79,0,0,1-.034-19.335q.311-1.26.7-2.52-2.15,1.806-4.209,3.788a113.8,113.8,0,0,0-9.357,10.373c-2.409,2.94-4,4.883-5.356,5.33a.5.5,0,0,1-.632-.318.5.5,0,0,1,.318-.632c1.079-.356,2.68-2.31,4.9-5.014a114.659,114.659,0,0,1,9.438-10.459q2.669-2.569,5.481-4.839a59.9,59.9,0,0,1,8.157-15.342.5.5,0,0,1,.7-.113.5.5,0,0,1,.113.7,60,60,0,0,0-7.472,13.579,81.843,81.843,0,0,1,8.926-5.97,93.965,93.965,0,0,1,24.444-9.711,135.18,135.18,0,0,1,32.508-3.68c.843,0,1.687.006,2.539.019q.643-.005,1.285-.006a137.654,137.654,0,0,1,28.168,2.839,107.307,107.307,0,0,1,24.043,7.918,64.973,64.973,0,0,1,17.065,11.321,36.675,36.675,0,0,1,5.424,6.427,23.645,23.645,0,0,1,3.075,6.679,16.349,16.349,0,0,1-1.257,12.167c-2.085,4.008-5.846,7.587-11.181,10.638a156.557,156.557,0,0,1-27.465,12.33,152.313,152.313,0,0,1-29.075,6.81A131.561,131.561,0,0,1-2504.794,2762.07Zm-62.154-57.137q-.669,1.965-1.154,3.932a36.808,36.808,0,0,0,.027,18.828,34.613,34.613,0,0,0,8.616,14.816,52.864,52.864,0,0,0,17.519,11.593c15.114,6.458,33.789,8.479,54,5.843a151.342,151.342,0,0,0,28.884-6.766,155.571,155.571,0,0,0,27.289-12.251c5.165-2.954,8.8-6.4,10.79-10.231a15.379,15.379,0,0,0,1.179-11.445c-2.344-8.668-11.467-17.338-25.028-23.786a106.312,106.312,0,0,0-23.818-7.842,136.66,136.66,0,0,0-27.963-2.818q-.641,0-1.283.006h-.012a136.368,136.368,0,0,0-34.8,3.632,92.971,92.971,0,0,0-24.184,9.606A80.612,80.612,0,0,0-2566.948,2704.933Z" transform="translate(2587.957 -2683.794)" fill="#0c0d0d"/>
</svg>
