<svg xmlns="http://www.w3.org/2000/svg" width="125" height="34.404" viewBox="0 0 125 34.404">
  <g id="pod-point-logo" transform="translate(-0.2)">
    <path id="Path_95" data-name="Path 95" d="M65.956,17.757a8.151,8.151,0,0,1-4.37,1.04H56.245a.833.833,0,0,1,.763-.832h4.509c2.5,0,5.48-.694,5.48-4.023,0-2.566-1.873-3.884-5.48-3.884h-6.1a.149.149,0,0,0-.139.139V25.248a.787.787,0,0,1-.832.763V10.058a.787.787,0,0,1,.832-.763h6.243c5.2,0,6.312,2.566,6.312,4.647a4.167,4.167,0,0,1-1.873,3.815ZM78.233,26.15a8.566,8.566,0,1,1,8.532-8.532,8.585,8.585,0,0,1-8.532,8.532Zm0-16.3a7.769,7.769,0,1,0,7.7,7.769,7.741,7.741,0,0,0-7.7-7.769ZM90.441,26.08a.77.77,0,0,1-.763-.763V9.295a.833.833,0,0,1,.832.763L90.441,26.08Zm17.549-.069a.631.631,0,0,1-.555-.277l-12-15.468V25.248a.843.843,0,0,1-.832.832V10.058a.833.833,0,0,1,.763-.832.524.524,0,0,1,.486.277L107.92,25.109V10.058a.787.787,0,0,1,.832-.763V25.317a.882.882,0,0,1-.763.694ZM124.428,10.2H118.6V26.011a.787.787,0,0,1-.832-.763V10.2h-5.9a.843.843,0,0,1-.832-.832h14.15a.715.715,0,0,1-.763.832ZM46.812,17.2V2.428C46.257,1.6,45.7.763,45.077,0V17.2a6.628,6.628,0,0,1-13.248.347v-.277a8.323,8.323,0,0,0-16.647,0v.277a6.577,6.577,0,0,1-6.589,6.312A6.661,6.661,0,0,1,1.934,17.2H.2a8.323,8.323,0,1,0,16.647,0v-.277a6.6,6.6,0,0,1,13.179,0V17.2a8.393,8.393,0,0,0,16.786,0Z" fill="#fff"/>
    <path id="Path_96" data-name="Path 96" d="M38.4,25.4h0a7.949,7.949,0,0,1-.9,3.329,1.739,1.739,0,0,0,.277.486v-.069a5.688,5.688,0,0,0,.624-3.4c.069-.139,0-.277,0-.347Zm-16.716,0v.347a5.772,5.772,0,0,0,.624,3.4v.069a3.979,3.979,0,0,1,.277-.486,9.943,9.943,0,0,1-.9-3.329Z" transform="translate(-6.574 -7.782)" fill="#fff"/>
    <path id="Path_97" data-name="Path 97" d="M45.108,16.06a8.359,8.359,0,0,0-14.982,5.063V21.4a6.6,6.6,0,0,1-13.179,0v-.277a8.323,8.323,0,1,0-16.647,0V35.9c.555.832,1.11,1.665,1.734,2.428v-17.2a6.628,6.628,0,0,1,13.248-.347v.277a8.323,8.323,0,1,0,16.647,0v-.277a6.577,6.577,0,0,1,6.589-6.312,6.691,6.691,0,0,1,6.659,6.589l-.069-4.994" transform="translate(-0.031 -3.922)" fill="#fff"/>
  </g>
</svg>
