<svg xmlns="http://www.w3.org/2000/svg" width="161.049" height="44.987" viewBox="0 0 161.049 44.987">
  <g id="Group_38" data-name="Group 38" transform="translate(-136.478 -96.36)">
    <path id="Path_101" data-name="Path 101" d="M-2414.313,2751.179c-8.783,0-37.332-.562-67.318-1.151-34-.669-69.167-1.361-74.346-1.2-3.461.11-5.767-.7-6.857-2.417-1.62-2.546.119-6.042.193-6.189a.5.5,0,0,1,.672-.22.5.5,0,0,1,.22.672c-.016.031-1.556,3.14-.24,5.2.889,1.393,2.9,2.048,5.98,1.952.531-.017,1.375-.025,2.5-.025,9.873,0,41.353.619,71.9,1.22,33.143.652,67.415,1.327,69.814,1.111,1.8-.161,2.91-.6,3.478-1.4.894-1.246.58-3.566-.167-6.666-1.392-5.776-.07-34.026-.013-35.226a.5.5,0,0,1,.5-.476h.024a.5.5,0,0,1,.476.523c-.014.292-1.372,29.307-.013,34.944.835,3.464,1.127,5.924.008,7.484-.751,1.046-2.086,1.621-4.2,1.81C-2412.042,2751.166-2412.934,2751.179-2414.313,2751.179Z" transform="translate(2700 -2610)" fill="#0c0d0d"/>
    <path id="Path_102" data-name="Path 102" d="M-2551.922,2751.347a.5.5,0,0,1-.5-.458c-.009-.108-.915-10.889-1.19-21.645a139.913,139.913,0,0,1,.253-15.111,27.066,27.066,0,0,1,.863-5.2c.467-1.532,1.09-2.349,1.9-2.5,2.14-.388,27.634.688,75.778,3.195,35.835,1.866,71.51,3.87,71.866,3.89a.5.5,0,0,1,.471.527.5.5,0,0,1-.527.471c-.356-.02-36.029-2.024-71.863-3.89-59.87-3.118-74.13-3.466-75.547-3.209-.32.058-1.408.72-1.95,6.8a139.053,139.053,0,0,0-.249,15c.274,10.726,1.178,21.478,1.187,21.586a.5.5,0,0,1-.456.541Z" transform="translate(2700 -2610)" fill="#0c0d0d"/>
  </g>
</svg>
