<svg id="Layer_2" data-name="Layer 2" xmlns="http://www.w3.org/2000/svg" width="379.008" height="222.505" viewBox="0 0 379.008 222.505">
  <g id="Group_39" data-name="Group 39">
    <path id="Path_102" data-name="Path 102" d="M870.173,5.49c-25.537,0-47.755,14.771-59.29,35.634C799.345,20.261,777.13,5.49,751.59,5.49V133.65H870.166Z" transform="translate(-491.164 -3.588)" fill="#fff"/>
    <path id="Path_103" data-name="Path 103" d="M66.386,43.985h43.43C109.816,17.9,86.119,0,54.906,0,25.34,0,0,16.746,0,43.985,0,67.709,19.851,86.951,43.572,86.951H0c0,27.224,25.34,43.985,54.906,43.985,31.213,0,54.91-17.9,54.91-43.985h0C109.84,63.25,90.038,44.054,66.386,43.985Z" fill="#fff"/>
    <path id="Path_104" data-name="Path 104" d="M421.286,0A59.283,59.283,0,0,0,362,59.286v70.773h36.289V118.884h45.987v11.175h36.3V59.276A59.283,59.283,0,0,0,421.286,0Z" transform="translate(-236.567)" fill="#fff"/>
  </g>
  <g id="Group_40" data-name="Group 40" transform="translate(125.429 158.309)">
    <path id="Path_105" data-name="Path 105" d="M798.866,487.951l-.461-.229.416-.322a13.662,13.662,0,0,0,5.911-11.625,16.479,16.479,0,0,0-16.358-16.265H759.49v62.464H788.2c13.039,0,19.872-10.09,19.872-20.059C808.069,498.488,806.863,492.071,798.866,487.951ZM774.1,472.864h12.128c2.668,0,4.1,2.38,4.1,4.622,0,2.322-1.341,4.82-4.279,4.82H774.1ZM788.2,508H774.1V495.927h14.1c3.565,0,5.2,3.153,5.2,6.085S791.763,508,788.2,508Z" transform="translate(-621.756 -458.599)" fill="#fff"/>
    <path id="Path_106" data-name="Path 106" d="M999.029,496.287c-2.516-10.579-12.363-13.274-22.633-14.6a6.049,6.049,0,0,0-.693-.059c-2.73-.2-9.134-.693-9.134-5.232,0-3.513,3.306-5.793,8.417-5.793s8.351,2.471,8.513,6.48h14.879c-.17-13.943-11.7-20.2-23.125-20.2-7.47,0-14.238,2.626-18.572,7.193a19.2,19.2,0,0,0-5.17,14.553h0c1.085,13.493,11.781,16.369,23.146,17.464l.828.087c2.928.27,9.009.835,9.009,5.2,0,3.413-3.434,5.36-9.418,5.36-2.682,0-8.864-.717-9.051-7.387H951.07c.18,15.939,14.373,21.729,23.929,21.729,12.034,0,24.484-7.644,24.484-20.443A24.85,24.85,0,0,0,999.029,496.287Z" transform="translate(-746.954 -456.88)" fill="#fff"/>
    <path id="Path_107" data-name="Path 107" d="M361.99,459.55V522h41.275V507.738h-26.5V459.55Z" transform="translate(-361.99 -458.625)" fill="#fff"/>
    <path id="Path_108" data-name="Path 108" d="M553.456,457.41,528.47,520.6h15.818l3.513-9.279h21.971l3.517,9.286H590l-25.987-63.191Zm-.294,40.194.693-1.864,4.983-14.172L564.5,497.6Z" transform="translate(-470.785 -457.226)" fill="#fff"/>
  </g>
</svg>
