<svg xmlns="http://www.w3.org/2000/svg" viewBox="0 0 1359.26 907.58"><defs><style>.cls-1{fill:#08d0c4;}.cls-2{fill:none;stroke:#fff;stroke-miterlimit:10;opacity:0;}</style></defs><title>SAMLabs_Logo_Small_Usage_Colour_RGB</title><g id="Artwork"><path class="cls-1" d="M1226.54,138.22c-73.69,0-137.82,42.63-171.11,102.84C1022.14,180.84,958,138.22,884.31,138.22V508.09h342.21Z"/><path class="cls-1" d="M324.31,259.67H449.66c0-75.29-68.39-126.94-158.47-126.94-85.33,0-158.46,48.33-158.46,126.94,0,68.47,57.29,124,125.75,124H132.72c0,78.57,73.13,126.94,158.46,126.94,90.08,0,158.47-51.66,158.47-126.94h0C449.67,315.27,392.58,259.86,324.31,259.67Z"/><path class="cls-1" d="M665.83,132.73A171.1,171.1,0,0,0,494.71,303.82V508.08H599.45V475.82H732.18v32.26H836.93V303.79A171.08,171.08,0,0,0,665.83,132.73Z"/><path class="cls-1" d="M1005.85,674.31l-1.33-.65,1.22-.89a39.42,39.42,0,0,0,17.06-33.55c-.34-29-24.76-46.94-47.21-46.94H892.21V772.51h82.86c37.62,0,57.34-29.12,57.34-57.89C1032.41,704.67,1028.93,686.21,1005.85,674.31Zm-71.48-43.54h35c7.69,0,11.83,6.87,11.83,13.34,0,6.7-3.87,13.91-12.34,13.91H934.37Zm40.7,101.4h-40.7V697.34h40.7c10.28,0,15,9.1,15,17.56S985.35,732.17,975.07,732.17Z"/><path class="cls-1" d="M1222.2,703.33c-7.25-30.52-35.68-38.3-65.32-42.12a19.1,19.1,0,0,0-2-.17c-7.88-.59-26.36-2-26.36-15.1,0-10.14,9.54-16.72,24.29-16.72s24.1,7.14,24.57,18.7h42.94c-.49-40.24-33.78-58.31-66.74-58.31-21.56,0-41.09,7.58-53.6,20.76-10.55,11.08-15.72,25.62-14.92,42h0c3.13,38.94,34,47.24,66.8,50.4l2.4.25c8.44.77,26,2.41,26,15,0,9.85-9.91,15.47-27.18,15.47-7.73,0-25.58-2.07-26.12-21.32h-43.21c.53,46,41.48,62.71,69.06,62.71,34.73,0,70.66-22.06,70.66-59A71.86,71.86,0,0,0,1222.2,703.33Z"/><polygon class="cls-1" points="494.71 592.27 494.71 772.5 613.83 772.5 613.83 731.35 537.36 731.35 537.36 592.27 494.71 592.27"/><path class="cls-1" d="M733.3,590.14,661.2,772.51h45.64L717,745.71h63.41l10.16,26.8h48.23l-75-182.37Zm-.85,116,2-5.38,14.38-40.89,16.35,46.28Z"/></g><g id="Guides"><rect class="cls-2" width="1359.26" height="907.58"/></g></svg>