<?xml version="1.0" encoding="utf-8"?>
<!-- Generator: Adobe Illustrator 26.0.1, SVG Export Plug-In . SVG Version: 6.00 Build 0)  -->
<svg version="1.1" id="Layer_1" xmlns="http://www.w3.org/2000/svg" xmlns:xlink="http://www.w3.org/1999/xlink" x="0px" y="0px"
	 viewBox="0 0 14 15" style="enable-background:new 0 0 14 15;" xml:space="preserve">
<style type="text/css">
	.st0{fill:#FFFFFF;}
	.st1{fill-rule:evenodd;clip-rule:evenodd;fill:#FFFFFF;}
</style>
<g>
	<path class="st0" d="M4.2,1.6C4,1.5,4,1.5,4,1.5c0.2,0,0.6,0,0.8,0.1c0.6,0.2,1.2,0.5,1.9,1.2L6.9,3l0.2,0c1-0.2,2,0,2.9,0.4
		c0.2,0.1,0.6,0.3,0.7,0.4c0,0,0,0.1,0.1,0.3c0.1,0.4,0,0.7-0.1,1c-0.1,0.1-0.1,0.2,0,0.3c0,0.1,0.1,0.2,0.2,0.2
		c0.2,0,0.4-0.3,0.5-0.8l0-0.2l0.1,0.1C12,5,12.3,5.7,12.4,6.2l0,0.1l-0.1-0.1c-0.1-0.2-0.3-0.3-0.4-0.5c-0.3-0.2-0.6-0.3-1.5-0.3
		c-0.8,0-1.2-0.1-1.6-0.2C8,4.9,7.7,4.6,6.8,3.5c-0.4-0.5-0.6-0.8-0.9-1C5.4,1.9,4.8,1.7,4.2,1.6z"/>
	<path class="st0" d="M10.8,2.7c0-0.3,0.1-0.6,0.2-0.8c0-0.1,0.1-0.1,0.1-0.1c0,0,0,0.1,0,0.1C11,2.1,11,2.4,11,2.7
		c0.1,0.4,0.1,0.5,0.5,0.9C11.7,3.8,12,4,12.1,4.2l0.2,0.2l-0.2-0.1c-0.2-0.2-0.6-0.5-0.7-0.6c-0.1,0-0.1,0-0.1,0c0,0,0,0.1,0,0.3
		c0,0.4-0.1,0.7-0.2,0.9c-0.1,0.1-0.1,0.1,0,0C11,4.7,11,4.7,11,4.3c0-0.8-0.1-1-0.6-1.3C10.2,2.9,10,2.8,9.9,2.8
		C9.7,2.7,9.6,2.7,9.6,2.6c0,0,0.5,0.1,0.8,0.2C10.7,3,10.8,3,10.8,3C10.8,3,10.8,2.9,10.8,2.7z"/>
	<path class="st0" d="M4.5,4C4.1,3.5,3.9,2.7,4,2.1l0-0.2l0.1,0c0.2,0,0.4,0.1,0.6,0.2C5,2.4,5.1,2.6,5.3,3.4c0,0.2,0.1,0.5,0.1,0.5
		c0,0.1,0.2,0.4,0.4,0.6c0.1,0.1,0,0.2-0.2,0.2C5.3,4.7,4.8,4.4,4.5,4z"/>
	<path class="st0" d="M10.4,7.9C8.6,7.2,8,6.6,8,5.5c0-0.2,0-0.3,0-0.3c0,0,0.1,0.1,0.2,0.1C8.5,5.6,8.9,5.8,10,5.9
		c0.7,0.1,1,0.2,1.4,0.3c1.1,0.4,1.8,1.1,1.9,2.1c0,0.3,0,0.8-0.1,1.1C13.2,9.6,13,10,13,10.1c0,0,0,0,0-0.1c0-0.4-0.2-0.7-0.5-1
		C12.1,8.6,11.6,8.4,10.4,7.9z"/>
	<path class="st0" d="M9.1,8.2c0-0.1-0.1-0.3-0.1-0.4l0-0.1l0.1,0.1c0.1,0.1,0.2,0.3,0.3,0.5c0.1,0.2,0.1,0.2,0.1,0.5
		c0,0.3,0,0.3-0.1,0.5C9.3,9.5,9.2,9.7,9,9.9c-0.3,0.3-0.7,0.5-1.3,0.6c-0.1,0-0.4,0-0.7,0c-0.7,0-1.1,0.1-1.5,0.2
		c-0.1,0-0.1,0-0.1,0c0,0,0.3-0.2,0.5-0.3c0.3-0.2,0.6-0.2,1.3-0.4C7.5,10.1,7.9,10,8,10C8.8,9.7,9.3,9,9.1,8.2z"/>
	<path class="st0" d="M10,9.6c-0.2-0.5-0.3-1-0.2-1.5c0,0,0-0.1,0-0.1c0,0,0.1,0,0.1,0.1c0.1,0.1,0.3,0.2,0.9,0.5
		c0.7,0.4,1.1,0.7,1.4,1c0.2,0.3,0.4,0.7,0.5,1.1c0,0.2,0,0.8,0,1.1c-0.2,0.8-0.7,1.4-1.3,1.7c-0.1,0.1-0.2,0.1-0.2,0.1
		c0,0,0-0.1,0.1-0.2c0.2-0.5,0.2-0.9,0.1-1.4c-0.1-0.3-0.3-0.7-0.7-1.3C10.2,10.1,10.1,9.9,10,9.6z"/>
	<path class="st0" d="M3.3,12.4c0.7-0.6,1.5-1,2.2-1.1c0.3-0.1,0.9,0,1.2,0c0.5,0.1,0.9,0.4,1.1,0.7c0.2,0.3,0.3,0.6,0.4,1.2
		c0,0.2,0.1,0.5,0.1,0.5c0.1,0.3,0.2,0.6,0.4,0.7c0.3,0.2,0.8,0.2,1.2,0c0.1,0,0.2-0.1,0.2,0c0,0-0.2,0.2-0.4,0.3
		c-0.2,0.1-0.4,0.2-0.6,0.2c-0.4,0-0.8-0.2-1.1-0.7c-0.1-0.1-0.2-0.4-0.3-0.6c-0.3-0.7-0.5-0.9-0.8-1.2c-0.3-0.2-0.7-0.2-1-0.1
		c-0.4,0.2-0.5,0.7-0.2,1c0.1,0.1,0.3,0.2,0.5,0.3c0.3,0,0.6-0.2,0.6-0.5c0-0.2-0.1-0.3-0.3-0.4c-0.3-0.1-0.6,0-0.6,0.3
		c0,0.1,0.1,0.2,0.2,0.2c0.1,0,0.1,0,0,0c-0.3-0.1-0.3-0.4-0.1-0.6c0.3-0.3,0.8-0.1,1,0.2c0.1,0.1,0.1,0.4,0,0.6
		c-0.1,0.4-0.6,0.6-1,0.5c-0.3-0.1-0.4-0.2-0.8-0.5c-0.6-0.6-0.9-0.8-1.8-0.9l-0.2,0L3.3,12.4z"/>
	<path class="st1" d="M0.3,0.9C2.4,3.4,3.8,4.5,4,4.7C4.1,4.9,4.1,5,3.9,5.1C3.7,5.2,3.5,5.3,3.3,5.3c-0.1,0-0.2-0.1-0.2-0.1
		C3.1,5.2,3,5.2,2.6,4.4C2,3.5,1.5,2.7,1.5,2.7c0,0,0,0,1.1,1.9c0.2,0.4,0,0.6,0,0.6c0,0.1,0,0.2-0.2,0.3C2.1,5.8,2,6.1,1.9,6.8
		C1.9,7.5,1.6,8,0.9,8.8C0.5,9.3,0.4,9.4,0.3,9.6C0.2,9.9,0.2,10,0.2,10.3c0,0.3,0,0.6,0.1,0.9c0.1,0.3,0.2,0.5,0.4,0.8
		C0.9,12.4,1,12.6,1,12.7c0,0.1,0,0.1,0.3,0c0.8-0.2,1.4-0.5,1.8-0.9c0.2-0.2,0.3-0.4,0.3-0.7c0-0.2,0-0.3-0.1-0.4
		c-0.1-0.2-0.3-0.4-0.6-0.6C2.2,9.8,2,9.6,2,9.2c0-0.3,0-0.5,0.3-1.1c0.3-0.6,0.3-0.8,0.4-1.4c0-0.4,0.1-0.5,0.2-0.6
		C2.9,6,3,5.9,3.3,5.9c0.5-0.1,0.8-0.2,1-0.4c0.2-0.2,0.3-0.4,0.3-0.7l0-0.2L4.5,4.5C4.1,4,0,0.5,0,0.5C0,0.5,0.1,0.7,0.3,0.9z
		 M1.3,10.7c0.1-0.2,0-0.4-0.1-0.5c-0.2-0.1-0.4-0.1-0.4,0.1c0,0,0,0.1,0.1,0.1c0.1,0,0.1,0.1,0,0.2c-0.1,0.1-0.1,0.2,0,0.2
		C1,10.9,1.2,10.9,1.3,10.7z"/>
	<path class="st1" d="M4.9,6C4.7,6.1,4.5,6.3,4.4,6.5c0,0.1,0,0.4,0,0.5c0.1,0.1,0.2,0.2,0.4,0.2c0.5,0,0.9-0.2,1-0.5
		c0-0.2-0.1-0.5-0.4-0.6C5.3,6,5.1,6,4.9,6z M5.5,6.4c0.1-0.1,0-0.2-0.1-0.3C5.2,6,4.8,6.1,4.8,6.3c0,0.1,0.2,0.2,0.4,0.2
		C5.3,6.6,5.4,6.5,5.5,6.4z"/>
</g>
</svg>
