<svg xmlns="http://www.w3.org/2000/svg" width="55" height="54" viewBox="0 0 55 54"><g transform="translate(-0.382 -0.093)"><g transform="translate(0 0)"><rect width="55" height="54" rx="12" transform="translate(0.382 0.093)" fill="#00005b"/></g><g transform="translate(6.731 13.879)"><path d="M44.956,78.4H36.429l-1.735,5.4a.434.434,0,0,1-.443.332H29.933q-.369,0-.258-.406L37.057,62.55c.074-.221.148-.438.221-.721a7.886,7.886,0,0,0,.148-1.495.228.228,0,0,1,.258-.258h5.869q.258,0,.3.185l8.379,23.5q.111.369-.221.369h-4.8a.341.341,0,0,1-.369-.258Zm-7.2-4.553H43.59q-.221-.738-.517-1.661t-.627-1.975l-.664-2.1q-.332-1.052-.609-2.03t-.5-1.79h-.037a29.77,29.77,0,0,1-.775,2.953q-.517,1.661-1.052,3.4T37.758,73.845Z" transform="translate(-29.649 -60.073)" fill="#99f"/><path d="M145.563,94.793h-7.272a5.186,5.186,0,0,0,.7,2.034,3.8,3.8,0,0,0,1.679,1.384,7.013,7.013,0,0,0,2.935.575,13.3,13.3,0,0,0,2.381-.261,8.775,8.775,0,0,0,2.047-.534c.123-.1.185-.037.185.185v3.507a.547.547,0,0,1-.055.277.53.53,0,0,1-.166.166,9.387,9.387,0,0,1-2.287.681,16.223,16.223,0,0,1-3.248.277,10.526,10.526,0,0,1-4.393-.812,7.829,7.829,0,0,1-2.879-2.178,8.528,8.528,0,0,1-1.587-3.008,11.846,11.846,0,0,1-.48-3.341,11.633,11.633,0,0,1,.572-3.636,9.5,9.5,0,0,1,1.716-3.138,8.245,8.245,0,0,1,2.768-2.178,8.668,8.668,0,0,1,3.839-.719,8.33,8.33,0,0,1,3.562.7A6.278,6.278,0,0,1,148,86.6a8.4,8.4,0,0,1,1.366,2.6,9.274,9.274,0,0,1,.443,2.805q0,.812-.055,1.476t-.092.96a.334.334,0,0,1-.332.3q-.221,0-.757.055t-1.329.074C146.713,94.883,146.154,94.793,145.563,94.793Zm-7.272-3.363h4.835q.886,0,1.31-.018a1.289,1.289,0,0,0,.535-.177v-.221a2.953,2.953,0,0,0-.148-.849,3.015,3.015,0,0,0-2.99-2.1,3.206,3.206,0,0,0-3.045,1.735,5.339,5.339,0,0,0-.5,1.635Z" transform="translate(-109.401 -78.57)" fill="#99f"/></g></g></svg>