<svg xmlns="http://www.w3.org/2000/svg" width="61.635" height="61.635" viewBox="0 0 61.635 61.635"><g transform="translate(0 0)"><path d="M20.81,6409.082H54.158A14.113,14.113,0,0,1,68.3,6423.227v33.347a14.113,14.113,0,0,1-14.144,14.144H20.81a14.113,14.113,0,0,1-14.144-14.144v-33.347a14.113,14.113,0,0,1,14.144-14.145Z" transform="translate(-6.666 -6409.082)" fill="#0d0d0d"/><path d="M15.513,44.413c0,.187-.215.337-.486.337-.309.028-.524-.122-.524-.337,0-.187.215-.337.486-.337C15.27,44.048,15.513,44.2,15.513,44.413Zm-2.908-.421c-.065.187.122.4.4.458a.439.439,0,0,0,.58-.187c.056-.187-.122-.4-.4-.486a.48.48,0,0,0-.58.215Zm4.133-.159c-.271.065-.458.243-.43.458.028.187.271.309.552.243s.458-.243.43-.43S17.009,43.8,16.738,43.833ZM22.891,8A22.423,22.423,0,0,0,0,30.816,23.444,23.444,0,0,0,15.85,53.184c1.2.215,1.618-.524,1.618-1.131,0-.58-.028-3.778-.028-5.741,0,0-6.546,1.4-7.92-2.787,0,0-1.066-2.721-2.6-3.422,0,0-2.141-1.468.15-1.44a4.936,4.936,0,0,1,3.609,2.413c2.048,3.609,5.48,2.572,6.817,1.954a5.2,5.2,0,0,1,1.5-3.151c-5.227-.58-10.5-1.337-10.5-10.333A7.087,7.087,0,0,1,10.7,24.037a8.835,8.835,0,0,1,.243-6.349c1.954-.608,6.452,2.525,6.452,2.525a22.091,22.091,0,0,1,11.745,0s4.5-3.142,6.452-2.525a8.831,8.831,0,0,1,.243,6.349c1.5,1.655,2.413,2.946,2.413,5.508,0,9.024-5.508,9.744-10.735,10.333a5.53,5.53,0,0,1,1.59,4.339c0,3.151-.028,7.051-.028,7.817,0,.608.43,1.347,1.618,1.131A23.228,23.228,0,0,0,46.381,30.816C46.381,17.847,35.861,8,22.891,8ZM9.089,40.251c-.122.094-.094.309.065.486.15.15.365.215.486.094.122-.094.094-.309-.065-.486C9.426,40.2,9.211,40.13,9.089,40.251Zm-1.01-.757c-.065.122.028.271.215.365a.278.278,0,0,0,.4-.065c.065-.122-.028-.271-.215-.365C8.294,39.372,8.145,39.4,8.079,39.494Zm3.03,3.329c-.15.122-.094.4.122.58.215.215.486.243.608.094.122-.122.065-.4-.122-.58C11.511,42.7,11.231,42.673,11.109,42.823Zm-1.066-1.375c-.15.094-.15.337,0,.552s.4.309.524.215a.426.426,0,0,0,0-.58C10.436,41.42,10.193,41.327,10.043,41.448Z" transform="translate(7.627 0.223)" fill="#fff"/></g></svg>