<svg xmlns="http://www.w3.org/2000/svg" width="61.635" height="61.635" viewBox="0 0 61.635 61.635"><g transform="translate(0 0)"><path d="M20.81,6409.082H54.158A14.113,14.113,0,0,1,68.3,6423.227v33.347a14.113,14.113,0,0,1-14.144,14.144H20.81a14.113,14.113,0,0,1-14.144-14.144v-33.347a14.113,14.113,0,0,1,14.144-14.145Z" transform="translate(-6.666 -6409.082)" fill="#1072ba"/><path d="M8.669,38.736H.64V12.881H8.669ZM4.65,9.354A4.672,4.672,0,1,1,9.3,4.66,4.689,4.689,0,0,1,4.65,9.354ZM38.718,38.736H30.706V26.15c0-3-.061-6.846-4.174-6.846-4.174,0-4.814,3.259-4.814,6.63v12.8H13.7V12.881h7.7v3.527h.112a8.436,8.436,0,0,1,7.6-4.175c8.126,0,9.619,5.351,9.619,12.3v14.2Z" transform="translate(11.454 11.445)" fill="#fff"/></g></svg>