<svg xmlns="http://www.w3.org/2000/svg" width="56.105" height="63.626" viewBox="0 0 56.105 63.626"><g transform="translate(0 -15.567)"><path d="M5.107,548.668,0,491.4H56.1l-5.113,57.258-22.974,6.368Z" transform="translate(0 -475.833)" fill="#1572b6"/><path d="M885.5,693.277l18.564-5.148L908.43,639.2H885.5Z" transform="translate(-857.447 -618.95)" fill="#33a9dc"/><path d="M885.5,859.711h9.295l.64-7.191H885.5V845.5h17.614l-.168,1.885-1.727,19.356H885.5Z" transform="translate(-857.447 -818.715)" fill="#fff"/><path d="M416,1634.114h-.032L408.146,1632l-.5-5.6H400.6l.985,11.028,14.389,4h.041v-7.318Z" transform="translate(-387.909 -1574.876)" fill="#ebebeb"/><path d="M894.78,1506.2l-.846,9.4-7.834,2.113v7.318l14.4-3.992.1-1.188,1.223-13.654H894.78Z" transform="translate(-858.029 -1458.484)" fill="#fff"/><path d="M348.495,845.5v7.023H331.534l-.146-1.578-.32-3.561L330.9,845.5Zm-.025,14.212v7.023h-7.733l-.136-1.578-.32-3.561-.168-1.885h8.354Z" transform="translate(-320.417 -818.715)" fill="#ebebeb"/></g></svg>