<svg xmlns="http://www.w3.org/2000/svg" width="43.665" height="55.809" viewBox="0 0 43.665 55.809"><g transform="translate(-86.349 -27.712)"><rect width="41.39" height="53.534" rx="7" transform="translate(87.486 28.849)" fill="#f2fafc"/><path d="M123.855,83.521H92.507a6.165,6.165,0,0,1-6.158-6.158V33.87a6.165,6.165,0,0,1,6.158-6.158h26.549A10.97,10.97,0,0,1,130.014,38.67a1.137,1.137,0,0,1-1.137,1.137h-5.538a5.421,5.421,0,0,1-5.415-5.415V29.987H92.507a3.888,3.888,0,0,0-3.884,3.884V77.362a3.888,3.888,0,0,0,3.884,3.884h31.348a3.888,3.888,0,0,0,3.884-3.884V45.243a1.137,1.137,0,1,1,2.275,0V77.362A6.165,6.165,0,0,1,123.855,83.521ZM120.2,30.062v4.33a3.144,3.144,0,0,0,3.141,3.14h4.327A8.7,8.7,0,0,0,120.2,30.062Z" fill="#d0f4fc"/><rect width="30.381" height="10.127" rx="4" transform="translate(93.258 67.543)" fill="#f9cfcf"/><g transform="translate(100.608 69.558)"><path d="M199.365,364.867a.672.672,0,0,1-.183-.5v-4.886a.578.578,0,0,1,.637-.637h2.19a2.244,2.244,0,0,1,1.562.506,2.068,2.068,0,0,1,0,2.827,2.243,2.243,0,0,1-1.562.506h-1.466v1.684a.7.7,0,0,1-1.178.5Zm2.469-3.211q1.021,0,1.021-.881t-1.021-.89h-1.291v1.771Z" transform="translate(-199.182 -358.847)" fill="#ff7373"/><path d="M245.47,364.833a.638.638,0,0,1-.166-.471v-4.877a.577.577,0,0,1,.637-.637h1.754a3.787,3.787,0,0,1,1.728.366,2.561,2.561,0,0,1,1.108,1.056,3.34,3.34,0,0,1,.384,1.649,3.394,3.394,0,0,1-.38,1.653,2.527,2.527,0,0,1-1.1,1.06,3.807,3.807,0,0,1-1.736.366h-1.754A.637.637,0,0,1,245.47,364.833Zm2.129-.934a1.976,1.976,0,0,0,0-3.953h-.934V363.9Z" transform="translate(-239.475 -358.847)" fill="#ff7373"/><path d="M298.172,364.863a.666.666,0,0,1-.188-.493v-4.886a.578.578,0,0,1,.637-.637h3a.754.754,0,0,1,.489.131.5.5,0,0,1,.157.41.493.493,0,0,1-.157.4.755.755,0,0,1-.489.131h-2.295v1.413h2.12a.754.754,0,0,1,.489.131.5.5,0,0,1,.157.41.493.493,0,0,1-.157.4.754.754,0,0,1-.489.131h-2.12v1.963a.682.682,0,0,1-.179.5.646.646,0,0,1-.484.183A.666.666,0,0,1,298.172,364.863Z" transform="translate(-285.498 -358.847)" fill="#ff7373"/></g></g></svg>