<svg xmlns="http://www.w3.org/2000/svg" width="55.024" height="62.403" viewBox="0 0 55.024 62.403"><g transform="translate(0 -15.263)"><path d="M55.469,70.766l-5.013,56.156-22.533,6.247L5.453,126.931.445,70.766Z" transform="translate(-0.445 -55.503)" fill="#e44d26"/><path d="M128,145.093l18.208-5.048,4.284-47.988H128Z" transform="translate(-100.488 -72.202)" fill="#f16529"/><path d="M55.445,130.883H65.19V124H47.917l.165,1.848,1.693,18.983H65.19v-6.888H56.075ZM57,148.27H50.083l.965,10.816L65.158,163l.032-.009v-7.167l-.03.008-7.672-2.071Z" transform="translate(-37.678 -97.251)" fill="#ebebeb"/><path d="M127.889,144.826h8.482l-.8,8.934-7.683,2.074V163l14.122-3.914.1-1.164,1.619-18.135.168-1.85H127.889v6.888Zm0-13.959v.017h16.639l.138-1.548.314-3.492.165-1.848H127.889v6.872Z" transform="translate(-100.401 -97.251)" fill="#fff"/></g></svg>