<svg xmlns="http://www.w3.org/2000/svg" width="55.326" height="55.326" viewBox="0 0 55.326 55.326"><path d="M0,0H55.326V55.326H0Z" fill="#f7df1e"/><path d="M67.311,137.285l4.234-2.562c.817,1.448,1.56,2.674,3.342,2.674,1.708,0,2.786-.668,2.786-3.268V116.45h5.2V134.2c0,5.385-3.157,7.836-7.762,7.836a8.07,8.07,0,0,1-7.8-4.754m18.385-.557,4.233-2.451a5.659,5.659,0,0,0,5.125,3.157c2.154,0,3.528-1.077,3.528-2.563,0-1.783-1.411-2.414-3.788-3.454l-1.3-.558c-3.751-1.6-6.239-3.6-6.239-7.836,0-3.9,2.971-6.871,7.613-6.871a7.679,7.679,0,0,1,7.39,4.16l-4.048,2.6c-.891-1.6-1.857-2.228-3.342-2.228a2.262,2.262,0,0,0-2.488,2.228c0,1.56.966,2.191,3.194,3.157l1.3.557c4.42,1.894,6.908,3.825,6.908,8.17,0,4.68-3.677,7.242-8.616,7.242-4.828,0-7.948-2.3-9.47-5.311" transform="translate(-52.764 -91.05)"/></svg>