<svg xmlns="http://www.w3.org/2000/svg" width="55.023" height="53.648" viewBox="0 0 55.023 53.648"><g transform="translate(0)"><g transform="translate(0)"><g transform="translate(0)"><path d="M9.744,0H45.28a9.736,9.736,0,0,1,9.744,9.744V43.9a9.736,9.736,0,0,1-9.744,9.744H9.744A9.736,9.736,0,0,1,0,43.9V9.744A9.736,9.736,0,0,1,9.744,0Z" transform="translate(0)" fill="#00005b"/></g></g><g transform="translate(13.068 13.641)"><path d="M57,83.481V59.89c0-.16.069-.252.229-.252.39,0,.757,0,1.284-.023.55-.023,1.123-.023,1.742-.046s1.284-.023,1.995-.046,1.4-.023,2.086-.023a13.481,13.481,0,0,1,4.723.711,8.187,8.187,0,0,1,3.072,1.88A7.3,7.3,0,0,1,73.805,64.7a8.775,8.775,0,0,1,.527,2.98,8.2,8.2,0,0,1-1.376,4.883,7.854,7.854,0,0,1-3.691,2.8,14.858,14.858,0,0,1-5.158.779c-.55,0-.917,0-1.146-.023s-.55-.023-.986-.023v7.359a.285.285,0,0,1-.252.321H57.275C57.092,83.779,57,83.687,57,83.481Zm5-19.419v7.7c.321.023.619.046.894.046h1.215a8.563,8.563,0,0,0,2.637-.413,3.943,3.943,0,0,0,1.88-1.215,3.543,3.543,0,0,0,.711-2.361,3.773,3.773,0,0,0-.527-2.04,3.325,3.325,0,0,0-1.6-1.307,6.727,6.727,0,0,0-2.705-.459c-.6,0-1.123,0-1.559.023a5.25,5.25,0,0,0-.94.023Z" transform="translate(-57 -59.5)" fill="#99f"/><path d="M145.814,83.88h4.012a.516.516,0,0,1,.481.367,2.329,2.329,0,0,1,.138.573c.046.229.092.481.115.711.023.252.046.527.046.825a8.533,8.533,0,0,1,2.453-1.972,7.105,7.105,0,0,1,3.485-.894.285.285,0,0,1,.321.252V88.3c0,.183-.115.252-.367.252a9.969,9.969,0,0,0-2.476.229,9.435,9.435,0,0,0-1.926.619,3.564,3.564,0,0,0-1.169.848v11.692c0,.229-.092.321-.3.321h-4.517a.317.317,0,0,1-.367-.275V89.2c0-.55,0-1.123-.023-1.719s-.023-1.192-.046-1.788c0-.527-.046-1.032-.092-1.559a.211.211,0,0,1,.16-.252c0-.023.046-.023.069,0Z" transform="translate(-125.272 -77.988)" fill="#99f"/></g></g></svg>