<svg xmlns="http://www.w3.org/2000/svg" width="54.989" height="53.648" viewBox="0 0 54.989 53.648"><g transform="translate(0)"><g transform="translate(0)"><path d="M11.827,0H43.162A11.761,11.761,0,0,1,54.989,11.827V41.821A11.761,11.761,0,0,1,43.162,53.648H11.827A11.761,11.761,0,0,1,0,41.821H0V11.827A11.761,11.761,0,0,1,11.827,0Z" fill="#470137"/></g><g transform="translate(8.011 11.744)"><g transform="translate(0 1.99)"><path d="M20.971.366,14.144,11.7l7.316,12.071v.244c0,.122-.122,0-.244,0H15.972c-.366,0-.61,0-.732-.244-.488-.975-.975-1.951-1.463-2.8-.488-.975-.975-1.951-1.585-2.926s-1.219-1.951-1.707-2.926h0C10,16.094,9.51,17.07,8.9,18.045S7.8,20,7.316,20.971s-1.1,1.951-1.585,2.926c-.122.244-.244.244-.488.244H0V23.9l7.072-11.7L.244.366C.122.244.122.244.244.122.244,0,.366,0,.488,0H6.1c0,.122,0,.122.122.244A16.389,16.389,0,0,0,7.681,3.17c.488.975,1.1,1.951,1.585,2.926.61.975,1.1,1.951,1.585,2.926h0L12.315,6.1c.488-.975.975-1.951,1.585-2.926.488-.975,1.1-1.951,1.585-2.926,0-.122.122-.122.122-.244h5.121c.122,0,.244,0,.244.122h0V.366Z" transform="translate(0 0)" fill="#ff61f6"/></g><g transform="translate(21.977)"><path d="M9.614,26.58A12.889,12.889,0,0,1,4.737,25.6a6.651,6.651,0,0,1-3.414-3.17A9.8,9.8,0,0,1,.1,17.192a9.662,9.662,0,0,1,1.219-4.877A9.288,9.288,0,0,1,4.98,8.779a12.143,12.143,0,0,1,5.852-1.341h1.219V.122c-.122,0-.122-.122,0-.122h4.633c.122,0,.244,0,.244.122h0V23.288c0,.488.122.975.122,1.341,0,.122-.122.244-.244.366a19.3,19.3,0,0,1-3.78,1.1A10.054,10.054,0,0,1,9.614,26.58Zm2.195-4.633V11.827c-.244,0-.366-.122-.61-.122h-.732a6.084,6.084,0,0,0-2.56.61,5.219,5.219,0,0,0-1.951,1.707,4.781,4.781,0,0,0-.732,2.926,7.1,7.1,0,0,0,.366,2.317,5.011,5.011,0,0,0,.975,1.585,6.913,6.913,0,0,0,1.585.975,5.054,5.054,0,0,0,1.951.244h.975a1.546,1.546,0,0,0,.732-.122Z" transform="translate(-0.085)" fill="#ff61f6"/></g></g></g></svg>