<?xml version="1.0" encoding="utf-8"?>
<!-- Generator: Adobe Illustrator 26.0.1, SVG Export Plug-In . SVG Version: 6.00 Build 0)  -->
<svg version="1.1" id="Layer_1" xmlns="http://www.w3.org/2000/svg" xmlns:xlink="http://www.w3.org/1999/xlink" x="0px" y="0px"
	 viewBox="0 0 500 500" style="enable-background:new 0 0 500 500;" xml:space="preserve">
<style type="text/css">
	.st0{fill:#FFFFFF;}
</style>
<g>
	<path class="st0" d="M379.9,419.9c-0.9,4.4-4.3,6.5-8.2,6.7c-7.9,0.4-16,1.1-23.6-0.3c-11.8-2.2-18-11.1-18.1-23.4
		c-0.1-16.6,0-33.2,0-49.8c0-1.8,0-3.6,0-5.7c-10.4,0-20.4,0-30.5,0c7.6,29.3-21.5,48.9-48.2,42.6c-6.5-1.5-8.3-0.8-9,3.8
		c-0.7,4.8,3.6,9.9,8.7,10.1c7.6,0.2,15.3-0.2,22.9,0.2c5.1,0.2,10.3,0.9,15.2,2.2c9.8,2.6,17.9,7.8,19.9,18.6
		c2.2,12-1,22.4-11,30.1c-7.3,5.6-15.9,8-24.9,9.1c-12.7,1.5-25.2,1-37.5-2.5c-9.2-2.6-17-7.3-18.9-17.7
		c-1.9-10.6,2.7-18.7,11.1-24.9c0.8-0.6,1.5-1.2,2.6-2.1c-6.8-4.5-10.4-10.7-10-18.8c0.4-8.2,5.3-13.6,10.6-17.8
		c-2.7-5.9-6.1-11.2-7.5-17c-3.1-13,3-25.6,14.9-33.2c9.5-6.1,19.9-7.8,31-6.1c5.7,0.8,11.5,1.5,17.2,1.6c13.9,0.2,27.9,0,41.8,0
		c0.3,0,0.6-0.2,1.5-0.6c0-6.2,0.2-12.6-0.1-19c-0.1-3.2,1.3-4.9,4.1-5c5.6-0.2,11.2-0.2,16.9,0c3.2,0.1,4.3,2.2,4.2,5.5
		c-0.3,6.2-0.1,12.5-0.1,19.2c6,0,11.4,0.3,16.8-0.1c4.2-0.3,7,0.7,8.1,5c0,4,0,8,0,12c-1.1,4-3.8,5.1-7.8,4.8
		c-5.6-0.3-11.2-0.1-17.1-0.1c0,17.7-0.1,34.7,0.1,51.7c0.1,4.8,3.5,7.5,8.1,8c3.1,0.3,6.5,0.4,9.3-0.7c4.4-1.6,6.4-0.1,7.4,3.9
		C379.9,413.3,379.9,416.6,379.9,419.9z M262,421.5c0,0.2,0,0.3-0.1,0.5c-3.2,0-6.3,0-9.5,0c-4.6,0.1-9,4-10.7,9.5
		s-0.4,9.4,4.2,12.5c8,5.4,24.9,5.3,32.8-0.3c4.1-2.9,6.2-6.8,5.6-12c-0.6-4.7-4-7.4-8.1-8.5C271.6,422.1,266.7,422,262,421.5z
		 M261.9,340.3c-9.2,0-16.8,7.5-16.9,16.7c-0.1,9.4,7.5,17.2,16.9,17.2c9.2,0,16.8-7.4,17-16.7C279,348.2,271.3,340.4,261.9,340.3z"
		/>
	<path class="st0" d="M204,353.6c-7.6-3.2-13.6-6.6-20.1-8.3c-10-2.7-18.5,1.4-23.2,10.7c-6.5,13-6.5,26.3-0.4,39.3
		c4.9,10.5,14.5,14.6,25.7,11c5.7-1.9,11.1-5.1,16.7-7.7c6.7,8.3,3.7,21.6-6.1,26.2c-30,14.1-62.3-3.6-65.6-36.5
		c-1-9.4-0.9-19.3,0.9-28.6c5.3-27.4,24.9-40.4,52.4-35.9c4.4,0.7,8.7,2.1,12.9,3.7c6,2.3,9.5,6.7,8.7,13.4
		C205.4,345.2,204.6,349.5,204,353.6z"/>
</g>
<g id="P0V0FN.tif">
	<g>
		<path class="st0" d="M374.2,244c-1.4,0-2.8,0-4.2,0c-2.9-0.4-5.8-0.8-8.7-1.1c-21.9-2.8-39.1-13.4-52.2-31
			c-12.3-16.5-18.3-34.9-15.7-55.6c1.8-14.4,7.5-27.4,15.8-39.2c1.1-1.6,3.1-2.6,4.7-3.9c0.4,2.2,1.5,4.5,1.2,6.5
			c-1.6,11.3-2.7,22.6-1.2,34.1c1,7.3,2.9,14.3,8.2,19.8c0.9,1,2.8,2,3.8,1.6s1.7-2.3,1.9-3.7c0.7-5,0.7-10.1,1.6-15.1
			c4.2-25,14.2-47.3,31.7-65.8c14.8-15.8,33.4-24.3,54.9-26.9c7.6-0.9,12.5,1.2,16,8.1c10.4,19.9,15.7,41.2,17.6,63.4
			c0.3,3,0.7,6,1,9c0,1.6,0,3.3,0,4.9c-0.3,1.8-0.8,3.7-0.9,5.5c-0.4,14.2-3.4,27.9-8.7,41.1c-10.4,26.1-29,42.2-57.1,46.6
			C380.6,242.9,377.4,243.4,374.2,244z"/>
	</g>
</g>
<g id="_x32_nj4qp_00000121281349335801237170000001840838823080502952_">
	<g>
		<path class="st0" d="M203.8,191.6c-5.2,2.7-10.5,3.9-16.2,2c-5.7-2-9.3-6.1-12.1-11.2c0.5,5.2,3.7,8.7,7.7,11.2
			c4,2.6,8.7,4,13.6,2.7c4.8-1.3,9.6-2.5,14-4.5c7.5-3.3,15.2-4.2,23.3-3.6c3.9,0.3,7.1,1.7,9.8,4.6c3.6,4,2.4,9.2-2.6,11
			c-4.1,1.5-8.5,0.2-11.7-3.4c2.3,0.6,4.5,1.5,6.8,1.7c3.4,0.3,5.9-1.8,6.2-4.5c0.3-2.4-2-5.8-5-6c-3.6-0.3-7.5-0.4-11,0.6
			c-4.3,1.3-8.4,3.6-12.4,5.8c-5.9,3.2-11.8,6.1-18.6,7.4c-5.3,1-10.1,0-15.1-1.3c-1.3-0.3-2.6-0.7-5-1.3c3.1,3.3,6.1,4.5,9.1,5
			c4.3,0.8,6.9,3.4,9,6.7c1.8,2.6,3.3,5.4,4.8,8.2c2.9,5.3,6.2,10.2,10.7,14.4c2,1.9,4.2,3.3,7.1,3.1c2.5-0.2,3.6-1.8,2.3-3.9
			c-1.5-2.4-3.2-4.6-5.1-6.7c-2.5-2.7-5.4-5.1-7.8-8c-1.5-1.8-2.8-4.2-3.2-6.5c-0.9-5.1,2.9-8.5,8-7.4c3.1,0.7,6,1.9,8.2,4.6
			c-1.4-0.5-2.7-1.2-4.1-1.5c-1.9-0.4-3.8-0.8-5.7-0.6c-2.8,0.4-3.8,2.6-2.4,5.1c0.8,1.5,1.9,2.9,3.2,4.2c2.8,2.9,5.9,5.6,8.6,8.6
			c1.7,1.8,3.2,3.8,4.3,6c3,6.1-0.6,11.7-7.4,11.3c-6.2-0.4-11.6-3-16.2-7.1c-4.3-3.9-8.3-8.1-12.5-12.2c-0.7-0.7-1.5-1.3-3-1.5
			c0.3,1.1,0.6,2.2,1.1,3.2c4.2,8,7.1,16.6,8.7,25.5c0.8,4.3,0.9,8.9,0.3,13.2c-0.9,6.5-5,10.7-11.4,12.6c-0.2-0.3-0.5-0.6-0.4-0.7
			c4.8-7.4,4.4-15.4,2.5-23.5c-2-8.3-5.6-16-9.7-23.4c-0.5-1-1.5-1.7-2.9-2.1c1.2,2.5,2.3,5,3.6,7.4c2.8,5.7,5.4,11.6,6.2,17.9
			c0.7,5.4,0.7,10.9,0.6,16.3c0,2.5-1.2,5-3.8,5.9c-2.9,1-5.8,0.5-7.8-1.8c-2-2.2-3.8-4.7-4.9-7.4c-2.1-5.1-2.9-10.5-1.5-16.1
			c0.4,2.5,0.8,5,1.2,7.5c0.6,3.5,1.8,6.9,4.2,9.6c1,1.2,2.3,2.2,3.6,2.9c2,1,3.6,0.5,4.3-1.6c0.8-2.3,1.6-4.8,1.5-7.2
			c-0.3-7.8-2.5-15.2-6.1-22.3c-3.2-6.3-5.9-12.8-9.4-19c-3.3-5.8-3.3-11.7-2-17.9c0.4-2,0.6-4.1,0-6.4c-0.8,3.1-1.7,6.1-2.4,9.2
			c-2.9,12-7.9,23-15.2,32.9c-3.8,5.1-8.2,9.9-14.8,11.3c-3.1,0.6-6.3,1-9.4,0.7c-6.1-0.7-9.9-5.4-10.2-12.3
			c-0.3-6.2,1.8-11.7,5.8-17.5c0.1,2.5-1,3.8-1.6,5.3c-1.8,4.3-2.8,8.7-0.5,13.2c2.1,4.1,4.9,5.3,9.1,3.5c4.6-1.9,7.9-5.3,10.6-9.3
			c5.9-8.5,9.5-18.1,11.5-28.2c1.3-6.4,2.2-12.8,3-19.3c0.3-2.5,1-4.7,2.4-6.9c1.3-2.2,2.8-4.4,2.2-7.4c-0.8,1.4-1.7,2.9-2.5,4.3
			c-3.3,5.7-7.1,10.9-12.4,15c-8.8,6.7-17.8,2.4-21.7-4.5c-3.9-6.8-4.5-14.1-3.5-21.6c0.6-4.9,1.8-9.7,4.6-14
			c1.1-1.7,2.5-3.5,4.1-4.7c3.9-2.9,8.8-0.9,9.8,3.9c0.9,4.2-0.7,7.7-3.8,10.5c-0.8,0.8-2.8,1.1-3.8,0.7c-0.9-0.5-1.5-2.2-1.6-3.5
			c-0.1-1.1,0.6-2.3,1.3-3.3c0.6-0.9,1.4-0.9,1.8,0.4c0.1,0.3,0.6,0.4,0.9,0.6c0-1.1,0.2-2.3-0.1-3.4c-0.1-0.4-1.7-0.9-2.2-0.6
			c-1.3,0.8-2.7,1.9-3.4,3.2c-3.4,6.2-3.7,12.8-1.8,19.5c0.2,0.8,0.7,1.7,1.2,2.4c2.8,3.8,7.1,5.9,11.9,2.7c3.4-2.2,5.7-5.2,7.7-8.6
			c4.7-7.6,7.4-15.6,5-24.6c-0.3-1.3,0-1.9,1.4-1.8c-0.2-0.6-0.1-1.4-0.5-1.8c-1.8-2.4-4-4.5-5.6-7c-3.3-5.1-5.4-10.3-1.5-16.2
			c2-3.1,3.1-6.7,5-9.9c2-3.5,4.1-7,6.6-10.2c2.4-3,5.7-4.6,9.8-4.3c1.4,0.1,2.8,0.2,4.2,0.1c2-0.2,3.1,0.5,4.2,2.3
			c2.5,4,5.3,7.8,7.7,12c-4.2-1.2-6.2-5.2-10.5-7.8c0.8,1.5,1.1,2.4,1.7,3.1c0.9,1.1,1.9,2.1,2.9,3.1c8.8,7.9,10.5,17.9,8.8,29
			c-1.9,11.7-2.8,23.5,0.6,35.1c1.7,5.8,3.9,11.3,8.7,15.5c3.9,3.3,8.2,4.7,13.2,3.8C201.2,191.6,202.5,191.7,203.8,191.6z
			 M146.2,118.2l0.1,0.1c-3.4-1.6-5.7-0.7-7.3,2.8c-3.2,7.1,2.2,15.3,8.1,17c5.2,1.5,9.5-1.6,9.9-7.1c0.1-1.6,0.1-3.2-0.2-4.7
			c-0.7-3.5-3.1-5.8-5.6-8C149.4,116.7,147.8,118.3,146.2,118.2z M165.4,156.5c2.4-8.9,3.6-17.9,3.3-27.1
			c-0.2-8.9-4.1-15.5-11.8-19.9c-0.8-0.4-1.7-0.5-3.7-0.9c1.7,1.3,2.4,1.8,3.1,2.3c7.1,5.2,10.5,12.2,10.1,20.9
			c-0.2,4.6-0.7,9.1-0.9,13.7C165.3,149.2,165.4,152.8,165.4,156.5z M148.1,141.6c6,3.6,11.7,1.3,13.8-5c2.8-8.3-1.5-18.2-9.1-22
			c-0.8-0.4-1.8-0.3-2.7-0.5c0.8,1.3,1.8,2,2.7,2.6c5.4,3.8,7.5,9.2,7.2,15.6c-0.3,6.2-3.6,9.1-9.8,9.2
			C149.4,141.6,148.7,141.6,148.1,141.6z"/>
		<path class="st0" d="M163.3,92.6c-0.3,0.1-0.7,0.3-1,0.2c-10.1-1.2-16.4,4-20.7,12.4c-1.7,3.3-3.1,6.7-4.6,10.1
			c-0.5,1.1-1.1,2.1-2.5,3c0.3-1.8,0.5-3.5,0.9-5.3c0.7-2.7,1.7-5.4,2.5-8.1c2.6-8.3,0.2-15.2-5.5-21.4c-6-6.5-12.9-12-20.4-16.8
			C101.8,60.3,91.1,55,79.5,51.4c-2.8-0.9-5.7-1.5-8.9-1.5c1.2,0.5,2.5,1.1,3.7,1.5c12.9,4.4,25.2,10,36.5,17.8
			c7.1,4.9,14.2,10,19.1,17.3c0.8,1.2,1.5,2.4,2.2,3.6c4.2,6.9,3.3,13.7-0.3,20.6c-0.8,1.4-1.3,1.5-2.8,0.7
			c-6-3.7-12.1-7.3-18.2-10.8s-10.9-8.4-15.3-13.7c-2.3-2.7-4.3-5.6-6.5-8.3c-10-13-23.1-21.9-38.6-27.5c-4.6-1.7-9.2-3.5-13.8-5.3
			c-4.3-1.8-8.2-4.2-11.3-7.7c-0.4-0.5-0.5-1.2-0.8-1.8c0.6-0.1,1.4-0.6,1.9-0.4c6.3,2.5,12.9,2,19.4,1.7c3.5-0.2,7-0.5,10.5-1.1
			C68.8,34.3,81,36,92.9,39.3c18.3,5.1,34.3,14.5,48.6,27c6.8,5.9,13,12.4,19.2,19.8c-3.9-0.3-7.1-1.2-10.1-2.7
			c-4.5-2.3-9.1-4.7-13.4-7.5c-11.1-7.2-22.4-14-34.7-19.1c-1.8-0.7-3.6-1.3-5.5-1.9c-0.3-0.1-0.7,0.1-1.8,0.4c3.8,1.9,7,3.5,10.2,5
			c8.4,3.7,16.1,8.7,23.7,13.9c6.7,4.6,13.1,9.7,20.9,12.4c2.2,0.8,4.4,1.4,6.5,2.2c2.4,0.9,4.7,2,7.1,3
			C163.5,92,163.4,92.3,163.3,92.6z"/>
		<path class="st0" d="M151.9,251.2c-1.1,1-2.2,2-3.3,3.1c-12.2,12.3-27.1,17.5-44.2,16.5c-5.7-0.4-11.4-2.1-17-3.4
			c-3.7-0.9-6.5-3.6-8.9-6.5c-1.9-2.3-3.4-4.8-5.7-8.1c5.2,2.3,9.3,4.3,13.5,5.8c17,6.3,33.3,5.1,48.3-5.7
			c7.5-5.4,12.4-13,16.9-20.8c2.6-4.6,4.6-9.5,7.2-14.8c1.8,4.1,3.7,7.9,5.2,11.9c0.3,0.8-0.1,2.1-0.3,3.1
			c-3.5,13.2-9.5,25.1-18.7,35.2c-7.4,8.1-16.6,13.1-27.3,15.2c-16.6,3.2-31.6-0.8-44.5-11.5c-8.6-7-12.8-16.7-13.7-27.7
			c-0.8-9.4,0.5-18.7,2.3-27.9c0.7-3.8,1.3-7.6,1.9-11.4c0.2-1.4,0.4-3.1,2.4-2.8c1.6,0.3,3,1.1,2.8,3.2c-0.5,5.6-1,11.2-1.7,16.8
			c-1,8.5-0.8,17,1.3,25.2c4.1,16,15.3,25,30.9,28.6c20.2,4.6,36.3-2.9,49.3-18.2c1.4-1.7,2.7-3.4,4-5.1
			C152.4,251.6,152.1,251.4,151.9,251.2z"/>
		<path class="st0" d="M55.2,70.6c2.3-0.4,5.4-0.9,8.8-1.5c-4-2.3-7.9-2-11.8-1.3c-1.6,0.3-3.1,0.8-4.6,1.1
			c-5.1,1.2-7.7,0.4-10.2-4.2c-3.6-6.4-6.7-13.1-9.7-20c9,5.3,19.1,7.2,28.2,11.6C69.1,62.7,81,70.8,88.8,83.7c2.4,4,4,8.6,5.8,13
			c0.2,0.5-0.3,2-0.6,2c-4.2,0.4-8.4,0.8-12.6,0.7c-4.5-0.1-7.1-3.3-9.5-6.8c-3.4-4.9-6.9-9.8-10.4-14.7
			C59.5,75.4,57.2,73,55.2,70.6z"/>
		<path class="st0" d="M181.9,173.5c5.3,2.8,10.9,3.5,16.8,3.3c6.6-0.3,11.9-3.1,16-8.2c8.5-10.6,8.5-23.2-2.2-34.3
			c-2.7-2.8-5.5-5.5-8.2-8.2c-1-1-2-2-2.8-3.1c-1.6-2.2-1.7-4.6-0.6-7c1.1-2.3,3.2-3.1,5.7-3.1c1.2,0,2.4,0.2,3.6,0.7
			c-1.4,0.2-2.8,0.3-4.1,0.8c-3.2,1.1-4.3,4-2.2,6.7c2.1,2.6,4.7,4.8,7.2,6.9c6.1,5.3,10.9,11.4,13.8,19.1
			c6.7,17.9-3.1,33.8-19.7,38.6c-4,1.2-8.3,1.2-12.5,1.4c-3.7,0.2-6.5-1.7-8.1-4.9c-1.3-2.5-2.2-5.2-3.3-7.7
			C181.5,174.1,181.7,173.8,181.9,173.5z"/>
		<path class="st0" d="M35.6,34.5c4.6-1.7,9.1-3.2,13.5-5.1c2.2-1,4.1-1.6,6.5-0.6c1.8,0.7,3.7,1,5.6,1.3c1.7,0.2,1.8-0.4,0.7-1.6
			c-0.1-0.1,0.5-1.2,0.9-1.3c5.7-1.1,11.4-2.7,17.1-3c8.8-0.6,17.6-0.5,26.3,1.8c4,1.1,6.9,2.7,8.4,7c1.6,4.7,4.3,9.1,6.7,14
			c-1.7-0.9-3.2-1.6-4.7-2.4c-10.5-5.7-21.7-9.3-33.5-10.9c-11.7-1.5-23.5-1.8-35.3,0.4c-3.6,0.7-7.4,0.8-11,1.1
			C36.4,35.1,36,34.7,35.6,34.5z"/>
		<path class="st0" d="M56.6,247.8c-2.1-2.5-3.8-4.5-5.5-6.7c-7.4-9.6-11.4-20.5-12-32.7c-0.2-4.7,1.1-9,3.2-13.2
			c2.5-4.9,6.5-7.8,11.7-9c8.1-1.9,15.8-0.2,22.9,3.7c3.9,2.1,7.8,4.5,10.2,8.7c-3-2-5.9-4.1-9-5.9c-5.4-3.2-11.4-4.8-17.7-4.4
			c-11,0.6-15.7,7-16.3,16.4c-0.6,10.7,3,20.2,9.1,28.6C56.4,237.7,57.6,242,56.6,247.8z"/>
		<path class="st0" d="M122.7,198.4c-12.1,0-19.1-9.7-20.8-20.3c-1.1-7.2-0.7-14.5,2-21.4c2.2-5.4,5.4-10,11-12.2
			c1.2-0.5,2.6-0.6,4.2-0.6c-7.9,6.6-9.9,15.6-10.9,24.9c-1,8.9,1.4,17.2,7.5,24.1C117.5,194.9,120,196.3,122.7,198.4z"/>
		<path class="st0" d="M126.3,254.1c-5.2,2.8-10.7,2.6-16,1.4c-6.2-1.3-10.4-7.2-10.7-14.2c-0.3-8.1,2.3-15.2,7.8-21.3
			c5.2-5.8,11.5-9.8,19.1-12c-0.8,0.6-1.6,1.3-2.4,1.9c-1,0.8-1.9,1.6-2.9,2.3c-5.6,4.1-9.4,9.4-12.3,15.6
			c-2.2,4.6-2.5,9.6-1.9,14.5c0.8,6.4,6,11.1,12.5,11.7C121.8,254.3,124.1,254.1,126.3,254.1z"/>
		<path class="st0" d="M67.3,165.4c-3.8-6.3-9.8-10.1-15.5-14.2c-7.3-5.4-12-12.3-13.6-21.3c-0.1-0.7-0.2-1.4-0.2-2.1
			c0-0.3,0.1-0.7,0.3-1.6c0.7,1.3,1.4,2.1,1.8,3.1c1.4,2.9,3.5,5.3,6.3,7c2.7,1.7,5.4,3.3,8,5.1C62.8,147.2,67.7,154.9,67.3,165.4z"
			/>
		<path class="st0" d="M90.4,207c-7.6-4.1-16-5.6-23.9-8.3c-3.4-1.1-6.4-3.5-9.6-5.4c-0.2-0.1-0.5-0.7-0.4-0.8
			c0.2-0.4,0.6-0.9,1-0.9c5-0.6,9.8-0.5,14.6,1.5C79.4,196.2,85.6,200.6,90.4,207z"/>
		<path class="st0" d="M39.1,140.8c3,6.8,8.9,10.8,14.4,15.2c6.7,5.3,12.5,11.4,14.5,20.2c0.3,1.5,0.7,3.1,0.7,4.7
			c0,0.9-0.6,1.8-0.9,2.7c-1.1-0.6-2.5-1.1-3.3-2c-0.6-0.7-0.8-1.9-0.9-3c-0.9-8-5.5-14-10.8-19.5c-3.3-3.4-6.9-6.6-10-10.1
			c-1.9-2.2-3.2-4.9-4.8-7.4C38.4,141.3,38.8,141.1,39.1,140.8z"/>
		<path class="st0" d="M197.8,241.6c4.6,3,9.2,5.8,14.7,6.8c3.8,0.7,7.4,0.4,10.4-2.4c1.9-1.8,3.2-3.7,3.1-6.4c-0.1-1.2,0-2.5,0-4.1
			c2,4.4,1.8,8.6-0.7,11.8c-2.9,3.6-6.9,4.8-11.4,4.3C207.7,250.7,202.2,247.4,197.8,241.6z"/>
		<path class="st0" d="M179.5,161.3c6.5,8.5,14.5,13.2,26.2,11.3c-3.8,2.3-7.3,2.7-10.8,2.5c-2.8-0.2-5.6-1-8.2-1.9
			C179.8,170.9,178.7,169.1,179.5,161.3z"/>
		<path class="st0" d="M138.8,213.7c0.4-3.4,0.9-6.9,1.2-10.3c0.3-2.4,0.6-4.9,0.7-7.3c0-2.4,0.7-4.4,3.3-6.6
			C143.7,198.3,141.5,206.1,138.8,213.7z"/>
		<path class="st0" d="M215.5,129.3c-2.8-2.6-5.6-5-8.2-7.7c-0.9-0.9-1.4-2.4-1.5-3.6c-0.1-1.1,1.1-1.5,4.3-1.5
			c-2.7,3-2.8,3-0.2,5.7c2.1,2.2,4.2,4.3,6.3,6.5C216,128.9,215.8,129.1,215.5,129.3z"/>
		<path class="st0" d="M146.2,118.2c-6.4,5.4-5.5,11.9,3.1,15.1c-1.6-1.5-2.5-2.2-3.3-3.1c-2.1-2.5-2.4-5.3-0.9-7.8
			c1.6-2.7,5.2-3,7.1-0.6c1.8,2.5,2.8,5.3,2.3,8.4c-0.5,3.6-3.2,5.5-6.8,4.8c-5.9-1.2-9.4-9.9-6-14.9c1.1-1.6,2.6-2.3,4.6-1.9H146.2
			z"/>
	</g>
</g>
</svg>
