<svg xmlns="http://www.w3.org/2000/svg" width="24" height="24" viewBox="0 0 24 24">
  <g id="Group_39" data-name="Group 39" transform="translate(-138 -18)">
    <path id="Path_102" data-name="Path 102" d="M.352,0V-.16l.288-.1a.767.767,0,0,0,.432-.3,1.012,1.012,0,0,0,.112-.512q.016-.96.016-1.936v-4.52q0-.968-.016-1.928A1.244,1.244,0,0,0,1.1-9.968a.645.645,0,0,0-.392-.3L.352-10.4v-.16H8.1L8.208-7.9h-.16l-.912-1.68a1.586,1.586,0,0,0-.368-.48.865.865,0,0,0-.576-.176H3.616Q3.6-9.1,3.6-7.92v2.352H5.264a.789.789,0,0,0,.544-.16,1.682,1.682,0,0,0,.336-.464L6.48-6.8h.16V-4H6.48l-.352-.608A2.264,2.264,0,0,0,5.8-5.072a.713.713,0,0,0-.536-.176H3.6v2.136q0,1.016.016,1.992A.788.788,0,0,0,4.224-.3L4.7-.16V0Z" transform="translate(146 36)" fill="#000000"/>
    <path id="Rectangle_53" data-name="Rectangle 53" d="M2,1A1,1,0,0,0,1,2V22a1,1,0,0,0,1,1H22a1,1,0,0,0,1-1V2a1,1,0,0,0-1-1H2M2,0H22a2,2,0,0,1,2,2V22a2,2,0,0,1-2,2H2a2,2,0,0,1-2-2V2A2,2,0,0,1,2,0Z" transform="translate(138 18)" fill="#000000"/>
  </g>
</svg>
