<svg xmlns="http://www.w3.org/2000/svg" viewBox="0 0 1218.94 181.66"><title>logotype-white</title><path d="M221.05,3h75.53c21.58,0,38.89,6.52,49.93,17.56C355,29.11,360.06,41.4,360.06,55.2v.5c0,29.11-20.07,46.17-47.67,51.19l53.94,71.76H342L291.06,110.4H240.88v68.25H221.05Zm73.77,89.58C321.17,92.59,340,79,340,56.46V56c0-21.57-16.56-34.62-44.92-34.62H240.88V92.59Z" fill="#fff"/><path d="M402.46,3h61c55.2,0,93.34,37.89,93.34,87.32v.5c0,49.43-38.14,87.82-93.34,87.82h-61Zm19.83,18.32v139h41.15c44.41,0,72.76-30.12,72.76-69v-.5c0-38.89-28.35-69.5-72.76-69.5Z" fill="#fff"/><path d="M598.68,3h127V21.08H618.5v60h95.85V99.11H618.5v61.48H726.9v18.06H598.68Z" fill="#fff"/><path d="M766.79,3h75.53c21.58,0,38.89,6.52,49.93,17.56,8.53,8.54,13.55,20.83,13.55,34.63v.5c0,29.11-20.07,46.17-47.67,51.19l53.94,71.76H887.73L836.8,110.4H786.62v68.25H766.79Zm73.77,89.58c26.35,0,45.17-13.55,45.17-36.13V56c0-21.57-16.56-34.62-44.92-34.62H786.62V92.59Z" fill="#fff"/><path d="M948.2,3H968V160.34h98.86v18.31H948.2Z" fill="#fff"/><path d="M1125.85,109.15,1052.83,3h24.09l59.22,87.82L1195.86,3h23.08l-73,105.89v69.75h-20.07Z" fill="#fff"/><polygon points="41.2 85.36 53.44 73.12 81.1 100.78 157.7 24.18 169.58 36.06 80.75 124.9 41.2 85.36" fill="#fff"/><path d="M158.58,90.83h0v.5c0,39.9-28.61,72-68.75,72S20.58,130.73,20.58,90.83v-.5c0-39.9,28.6-72,68.75-72a69.65,69.65,0,0,1,20.36,3L124.22,6.43A92.15,92.15,0,0,0,89.83,0C36.38,0,0,42.4,0,90.83v.5c0,48.43,35.88,90.33,89.33,90.33s89.82-42.4,89.82-90.83H158.58Z" fill="#fff"/></svg>