<svg xmlns="http://www.w3.org/2000/svg" width="167.198" height="10.087" viewBox="0 0 167.198 10.087">
  <path id="Path_100" data-name="Path 100" d="M-2494.808,2764.495c-5.863,0-9.67-2.838-13.03-5.343-2.92-2.177-5.442-4.055-8.682-3.614-3.085.422-5.605,1.864-8.273,3.391-3.308,1.893-6.724,3.847-11.382,3.847q-.364,0-.737-.016c-4.211-.183-6.275-2.1-8.27-3.949a13.741,13.741,0,0,0-3.553-2.646,9.846,9.846,0,0,0-5.6-.626,27.371,27.371,0,0,0-10.131,3.234,13.376,13.376,0,0,0-3.075,2.3.5.5,0,0,1-.705.043.5.5,0,0,1-.045-.7,13.944,13.944,0,0,1,3.273-2.473,28.319,28.319,0,0,1,10.552-3.39c5.387-.714,7.713,1.444,9.962,3.531,1.949,1.808,3.79,3.516,7.634,3.683,4.75.205,8.222-1.779,11.578-3.7,2.634-1.507,5.358-3.065,8.635-3.514,3.644-.5,6.448,1.591,9.415,3.8a33.787,33.787,0,0,0,5.408,3.508,15.734,15.734,0,0,0,7.024,1.637h.044c5.163-.013,7.529-2.134,10.034-4.378s5.109-4.579,10.559-4.579q.223,0,.452.005c7.529.172,9.579,1.635,11.952,3.327a18.661,18.661,0,0,0,4.2,2.407c3.315,1.341,7.4-.73,11.344-2.732,2.87-1.455,5.58-2.83,8.061-3q.28-.019.541-.019c2.739,0,3.973,1.549,5.274,3.183,1.4,1.757,2.846,3.574,6.468,4.057,7.254.967,23.778-7.089,23.944-7.171a.5.5,0,0,1,.669.229.5.5,0,0,1-.229.669c-.042.021-4.266,2.086-9.351,4-6.875,2.59-11.978,3.686-15.166,3.262a9.5,9.5,0,0,1-4.537-1.746,14.014,14.014,0,0,1-2.582-2.678c-1.321-1.659-2.364-2.968-4.964-2.79-2.279.157-4.9,1.487-7.677,2.9-4.147,2.1-8.436,4.279-12.172,2.767a19.773,19.773,0,0,1-4.405-2.52c-2.239-1.6-4.173-2.976-11.395-3.142-.146,0-.291,0-.433,0-5.063,0-7.408,2.1-9.887,4.323-2.534,2.271-5.154,4.619-10.7,4.634Z" transform="translate(2568.412 -2754.408)" fill="#1c1b3e"/>
</svg>
