<svg xmlns="http://www.w3.org/2000/svg" width="55.023" height="55.023" viewBox="0 0 55.023 55.023"><rect width="40" height="40" transform="translate(8 8.207)" fill="none" stroke="rgba(0,0,0,0)" stroke-miterlimit="10" stroke-width="1"/><path d="M0,0H55.023V55.023H0Z" fill="#09a1a1"/><g transform="translate(12.418 5.428)"><path d="M1368.852,705.929l-.052-.019v-4.832l.054-.048.019-.03,17.853,11.572-17.875-6.638Zm0,13.294,0-.005,17.875-6.637-17.855,11.572-.017-.026h-.054v-4.884Z" transform="translate(-1355.661 -693.339)" fill="#001717"/><path d="M1379.734,290.7l9.642,19.233-17.854-11.572-.022-.015,0-.009,8.173-7.582Zm9.642,19.24-9.642,19.233-.054-.052-8.176-7.584,0-.009.021-.015Z" transform="translate(-1358.311 -290.7)" fill="#015051"/><path d="M678.289,300.8l.022.015-.019.03H665.217l-.118-.045,3.266-7.6.017.007h18.083l-8.172,7.582Zm0,.045-.054.049v-.049Zm0,23.1.017.026-.021.015,0,.009,8.176,7.584H668.382l-.017.008-3.266-7.6.11-.041h12.971l.058.054v-.054Z" transform="translate(-665.1 -293.153)" fill="#016b6b"/><path d="M1368.85,964.024l17.875,6.637v.007l-17.875,6.637,0,.006-.052.019V964l.052.019Z" transform="translate(-1355.661 -951.429)" fill="#015051"/><path d="M1365.758,1939.6v.054l-.058-.054Z" transform="translate(-1352.619 -1908.814)" fill="#016b6b"/><path d="M1170.277,1678v4.884h-.058l-3.719-3.469Z" transform="translate(-1157.138 -1652.098)" fill="#002122"/><path d="M719.553,902.93v.017l-3.777,1.415-8.576-8.07v-.022l8.576-8.07,3.777,1.415V902.93Z" transform="translate(-706.414 -877.044)" fill="#016b6b"/><path d="M1170.277,705.2v4.832l-3.777-1.415Z" transform="translate(-1157.138 -697.461)" fill="#002122"/><path d="M684.029,702.6v.048l-3.777,3.417-9.244-3.465Zm-.058,23.1H671l9.251-3.469Z" transform="translate(-670.89 -694.909)" fill="#013535"/></g><path d="M1043.7,2512.8h1.5l.487,1.876.159.743h.026l.159-.743.459-1.876h1.5v5.753h-1.221V2517.2c0-.172.007-.388.022-.65s.032-.534.049-.814.039-.551.062-.811.045-.474.061-.646h-.026l-.478,1.708-.3,1.037h-.655l-.3-1.037-.452-1.708h-.035c.017.172.039.386.061.646s.045.531.062.811.034.552.048.814.022.48.022.65v1.354h-1.2Zm9.222,4.531h-1.576l-.284,1.221h-1.557l1.735-5.753h1.841l1.734,5.753h-1.611Zm-.274-1.178-.088-.4q-.1-.418-.2-.9c-.071-.325-.142-.631-.213-.92h-.035c-.065.295-.131.6-.2.924s-.134.622-.2.9l-.087.4Zm4.875-.556-1.567-2.8h1.7l.459.938c.065.136.133.281.2.438s.148.328.23.518h.036c.065-.189.129-.363.194-.518s.127-.3.187-.438l.407-.938H1061l-1.567,2.868,1.664,2.885h-1.7l-.53-1.027c-.082-.153-.158-.306-.226-.459s-.14-.32-.217-.494h-.035c-.065.177-.131.342-.2.494s-.136.306-.207.459l-.495,1.027h-1.629Z" transform="translate(-1024.213 -2465.884)" fill="#fff"/></svg>