<svg xmlns="http://www.w3.org/2000/svg" xmlns:xlink="http://www.w3.org/1999/xlink" width="61.635" height="61.635" viewBox="0 0 61.635 61.635"><defs><linearGradient id="a" x1="0.5" x2="0.5" y2="1" gradientUnits="objectBoundingBox"><stop offset="0" stop-color="#126df6"/><stop offset="1" stop-color="#21c6fd"/></linearGradient></defs><g transform="translate(0 0)"><path d="M20.81,6409.082H54.158A14.113,14.113,0,0,1,68.3,6423.227v33.347a14.113,14.113,0,0,1-14.144,14.144H20.81a14.113,14.113,0,0,1-14.144-14.144v-33.347a14.113,14.113,0,0,1,14.144-14.145Z" transform="translate(-6.666 -6409.082)" fill="url(#a)"/><path d="M113.822,6579.71a2.473,2.473,0,0,0-.92.171l5.8,5.971,5.864,6.078.107.128.171.172.171.17.342.364,5.029,5.157a4.968,4.968,0,0,0,.516.372,1.963,1.963,0,0,0,.781.245,1.845,1.845,0,0,0,.86-.2,3.27,3.27,0,0,0,.517-.413l5.821-6.014,5.885-6.057,5.671-5.842a2.5,2.5,0,0,0-1.2-.3H113.822Zm-1.776.727a3.374,3.374,0,0,0-1.006,2.461v19.6a3.458,3.458,0,0,0,.685,2.1l.813-.77,6.057-5.885,5.372-5.2-.107-.128-5.885-6.057-5.885-6.078Zm39.164.193-5.735,5.928-5.864,6.057-.107.107,5.585,5.414,6.057,5.885.364.342a3.52,3.52,0,0,0,.514-1.862v-19.6A3.44,3.44,0,0,0,151.21,6580.63Zm-26.559,12.819-5.35,5.2-6.078,5.885-.77.749a2.524,2.524,0,0,0,1.37.429h35.418a2.548,2.548,0,0,0,1.605-.6l-.385-.385-6.078-5.885-5.585-5.393-5.029,5.179a5.676,5.676,0,0,1-.72.5,3.222,3.222,0,0,1-1.368.358,3.288,3.288,0,0,1-1.36-.4,2.648,2.648,0,0,1-.576-.417l-5.094-5.222Z" transform="translate(-100.318 -6562.183)" fill="#fff"/></g></svg>