<svg xmlns="http://www.w3.org/2000/svg" width="20" height="17.5" viewBox="0 0 20 17.5"><g transform="translate(0 -32)"><path d="M2.969,98.5H4.531A.469.469,0,0,0,5,98.031V96.469A.469.469,0,0,0,4.531,96H2.969a.469.469,0,0,0-.469.469v1.563A.469.469,0,0,0,2.969,98.5ZM0,101v8.125A1.875,1.875,0,0,0,1.875,111h16.25A1.875,1.875,0,0,0,20,109.125V101Z" transform="translate(0 -61.5)" fill="#8d8d8d" opacity="0.4"/><path d="M18.125,32H1.875A1.875,1.875,0,0,0,0,33.875V39.5H20V33.875A1.875,1.875,0,0,0,18.125,32ZM5,36.531A.469.469,0,0,1,4.531,37H2.969a.469.469,0,0,1-.469-.469V34.969a.469.469,0,0,1,.469-.469H4.531A.469.469,0,0,1,5,34.969Zm12.5,0a.469.469,0,0,1-.469.469H7.344a.469.469,0,0,1-.469-.469V34.969a.469.469,0,0,1,.469-.469h9.688a.469.469,0,0,1,.469.469Z" fill="#8d8d8d"/></g></svg>