<?xml version="1.0" encoding="utf-8"?>
<!-- Generator: Adobe Illustrator 27.1.1, SVG Export Plug-In . SVG Version: 6.00 Build 0)  -->
<svg version="1.1" id="Layer_1" xmlns="http://www.w3.org/2000/svg" xmlns:xlink="http://www.w3.org/1999/xlink" x="0px" y="0px"
	 viewBox="0 0 500 500" style="enable-background:new 0 0 500 500;" xml:space="preserve">
<style type="text/css">
	.st0{fill-rule:evenodd;clip-rule:evenodd;}
</style>
<path class="st0" d="M489,110.8c-12.4-49.1-50.7-87.3-99.8-99.8C297.1-3.8,203.5-3.8,111.5,11c-49.2,12.5-87.4,50.7-99.8,99.8
	c-14.8,92.1-14.8,185.7,0,277.7c12.4,49.1,50.7,87.3,99.8,99.8c92.1,14.8,185.7,14.8,277.7,0c49.1-12.4,87.3-50.7,99.8-99.8
	C503.8,296.4,503.8,202.8,489,110.8z M384.6,128.6c-0.4,7.4-6.8,13.2-14.2,13.2c-16.9,0-32.9,6.7-45,18.7
	c-12.1,12.1-19,28.1-19.6,45.2v33.6h53c8.1,0,14.5,6.7,14.1,14.8c-0.4,7.6-6.9,13.4-14.5,13.4h-28.8c-13.1,0-23.7,10.6-23.7,23.7
	c0,53.9-44.9,97.4-99.2,95.3c-49.5-1.9-89.6-42-91.5-91.5c-2.1-54.3,41.4-99.2,95.3-99.2c8,0,14.5,6.7,14,14.9
	c-0.4,7.4-6.8,13.2-14.2,13.2c-36.9,0.1-67,30.3-67,67.3c0,37.2,30.5,67.6,67.9,67.2c37-0.4,66.6-31.1,66.6-68.1v-51.7v-33.3
	c0.6-24.6,10.4-47.5,27.8-64.7c17.4-17.4,40.6-26.9,65-26.9C378.6,113.7,385.1,120.4,384.6,128.6z"/>
</svg>
