<svg width="168" height="80" viewBox="0 0 168 80" fill="none" xmlns="http://www.w3.org/2000/svg">
<path fill-rule="evenodd" clip-rule="evenodd" d="M39.9999 0C17.9086 0 0 17.9087 0 40.0001C0 62.0915 17.9086 80 39.9999 80C56.3628 80 70.4314 70.1741 76.6267 56.102L67.5992 51.7774C63.0176 62.4895 52.3874 69.9997 39.9995 69.9997C25.1377 69.9997 12.7998 59.1924 10.416 45.0083H69.5828V45.0085H79.6891C79.8941 43.3677 79.9997 41.6961 79.9997 40.0001C79.9997 17.9087 62.0912 0 39.9999 0ZM128 9.99981C111.432 9.99981 98.0001 23.4314 98.0001 39.9997C98.0001 56.5682 111.432 69.9997 128 69.9997C144.568 69.9997 158 56.5682 158 39.9997C158 23.4314 144.568 9.99981 128 9.99981ZM39.9995 9.99981C25.1259 9.99981 12.7806 20.824 10.4104 35.0245H69.5888C67.2184 20.824 54.873 9.99981 39.9995 9.99981ZM128 0C150.092 0 168 17.9087 168 40.0001C168 62.0915 150.092 80 128 80C105.909 80 88.0003 62.0915 88.0003 40.0001C88.0003 17.9087 105.909 0 128 0Z" fill="white"/>
</svg>
