<?xml version="1.0" encoding="utf-8"?>
<!-- Generator: Adobe Illustrator 26.4.1, SVG Export Plug-In . SVG Version: 6.00 Build 0)  -->
<svg version="1.1" id="Layer_1" xmlns="http://www.w3.org/2000/svg" xmlns:xlink="http://www.w3.org/1999/xlink" x="0px" y="0px"
	 viewBox="0 0 199.5 72.9" style="enable-background:new 0 0 199.5 72.9;" xml:space="preserve">
<style type="text/css">
	.st0{fill:#FFFFFF;}
</style>
<path class="st0" d="M138.5,66.6c0.3,0.3,0.4,0.6,0.7,0.9c2.5,3.3,7.1,4.3,10.7,2.2c1-0.4,1.9-1.2,2.6-1.9c3.5-3.2,6.1-7.1,7.8-11.4
	c0.6-1.3,0-2.9-1.3-3.6c-1.2-0.7-2.7-0.6-3.6,0.6c-0.4,0.7-0.9,1.3-1.3,2c-1.2,1.9-2.2,3.9-3.5,5.6c-0.7,1-1.7,2-2.9,2.7
	c-2,1.4-3.6,1-4.5-1.3c-0.4-1.3-0.7-2.5-0.9-3.8c-0.1-0.7-0.1-1.4-0.3-2.2c-0.1-1.4-1.3-2.6-2.7-2.7c-1.4-0.1-2.7,0.9-3,2.3
	c-0.3,0.7-0.4,1.6-0.6,2.5c-0.4,1.7-1.3,3.2-2.6,4.5c-0.7,1-2,1.4-3.3,1.2c-1.2-0.4-1.7-1.6-1.7-2.7c-0.4-3.3,1-6.6,3.6-8.8
	c1.9-1.7,4.8-1.9,6.9-0.4c0.4,0.3,0.9,0.6,1.3,0.7c1.3,0.6,2.7,0.3,3.5-0.9c0.9-0.9,1-2.3,0-3.3l0,0c-1-1-2-1.9-3.3-2.5
	c-4.6-1.7-8.8-0.4-12.6,2.6c-2.2,2-4,4.5-5.3,7.1c-1.2,2.2-2.6,4.2-4,6.2c-0.9,1-1.9,1.9-3,2.5c-0.7,0.6-1.7,0.3-2.2-0.4
	c-0.1-0.3-0.3-0.6-0.3-1c-0.1-1.4-0.3-2.9-0.1-4.5c0-2,0.3-3.9,0.3-5.9c0.1-2.6-1.3-4.9-3.6-5.9c-2.6-1.2-4.9-0.1-6.8,1.6
	c-1,1-2,2-2.7,3.2c-1.2,1.6-2.2,3.3-3.2,4.9c-0.3,0.4-0.6,0.9-1.2,1.6c0.3-2,0.4-4,0.4-6.1c0-1.7-0.3-3.6-0.9-5.3
	c-0.9-2.2-3.2-3.3-5.5-2.6c-0.6,0.1-1.2,0.6-1.6,1c-1,0.7-1.7,1.7-2.5,2.7c-1.2,2-2.2,4.2-3.3,6.4c-1.3,2.3-2.6,4.6-4,6.8
	c-0.7,1-1.7,2-2.7,2.7c-1,1-2.6,1.2-3.6,0.1c-0.3-0.3-0.6-0.7-0.7-1.2c-0.4-1.4-0.9-2.9-1-4.3c-0.1-0.7-0.1-1.4-0.3-2.2
	C69.4,55,68.4,54,67,53.8c-1.4-0.1-2.6,0.9-3,2.2c-0.3,0.9-0.4,1.7-0.6,2.6c-0.4,2-1.6,3.9-3.3,5.1c-2,1.4-3.8,0.7-4.2-1.7
	c-0.6-3.2,0.4-6.5,2.9-8.8c2-2,5.3-2.5,7.7-0.9c0.3,0.3,0.7,0.4,1,0.6c1.3,0.6,2.7,0.3,3.5-0.9c1-1,0.9-2.7-0.1-3.6l-0.1-0.1
	c-1.9-1.9-4.5-2.9-7.1-3c-0.6,0-1.3-0.1-1.9-0.3c-1-0.3-2-0.6-3-0.7C54.2,44,49.7,44,45.4,44c-0.9,0-1.6,0-2.7,0l2-3.9
	c5.1-10,10.1-19.8,15.3-29.7c0.7-1.4-0.1-2.9-1.7-2.6c-2.2,0.1-4.2,1.4-5.2,3.3C47.7,21.6,42.2,32,36.7,42.5c-0.6,1.3-1.9,2.2-3.2,2
	c-4.5,0.1-9.1,0.6-13.6,1c-1.7,0.1-3.3,1.3-4.2,2.7c-0.4,0.6-0.4,1.4,0.1,1.9c0.1,0.1,0.3,0.1,0.6,0.3c0.6,0.1,1.2,0.3,1.7,0.3
	c1.9-0.1,3.6-0.3,5.5-0.4c3-0.1,6.1-0.3,9.4-0.6c-0.3,0.6-0.6,1-0.7,1.3c-2.7,5.2-5.3,10.4-8.1,15.6c-0.3,0.7-0.7,1.3-0.1,2
	s1.6,1.2,2.5,0.9c2.2-0.4,4.2-1.9,5.2-3.9c1.9-3.9,3.9-7.7,5.8-11.4c0.7-1.6,1.6-3,2.5-4.6c1.7,0,3.6-0.1,5.3-0.1c2.6,0,5.3,0,8.4,0
	c-0.6,0.9-1,1.4-1.4,1.9c-2.5,3.6-3.3,8.1-2.3,12.3c1,4.3,5.3,7.2,9.7,6.2c1-0.3,2.2-0.7,3-1.3c1.2-0.7,2-1.6,3-2.5l0.4,0.6
	c3.3,4.2,7.7,4.9,12,2c1.7-1.3,3.5-2.9,4.8-4.6c2.3-3,4.2-6.4,5.5-9.8c0.3-0.6,0.6-1,0.9-1.6c0.1,0.4,0.3,0.9,0.1,1.3
	c-0.4,4-0.7,8.1-1.2,12.1c-0.1,2.3,1.4,4.3,3.8,4.5c1.3,0.1,2.5-0.3,3.3-1.2c0.7-0.9,1.4-1.7,2-2.9c1.2-2.2,2.2-4.5,3.5-6.5
	c1.3-2.2,2.9-4.2,4.3-6.4c0.4-0.4,1-0.9,1.4-1.3c-0.1,2.7-0.3,5.2-0.4,7.5s0.1,4.6,1.2,6.8c1,2.2,3.2,3.8,5.6,3.9
	c2,0.3,4-0.3,5.6-1.4c1.4-1,2.9-2.2,4.2-3.3C126.4,70.7,131.5,73.3,138.5,66.6"/>
<path class="st0" d="M74,0.9L74,0.9c-6.6-0.1-13.1-0.1-19.8-0.1c-9.5,0.1-18.9,2-27.7,5.6c-8.5,3.3-16,8.8-21.7,15.9
	c-1.6,2-2.9,4.2-3.6,6.5c-1.6,5.3,1,9.5,6.6,10.5c0.7,0.1,1.4,0.1,2.2,0.1c2.5-0.1,4.8-0.4,7.1-0.9c8.7-2.2,16.5-6.8,22.5-13.3
	c1.3-1.4,2.5-3.2,3.3-4.9c0.3-0.4,0.4-0.9,0.6-1.3c0-0.6-0.3-1.3-0.7-1.7c-0.3-0.3-1.2-0.1-1.6,0.1c-1,0.7-2,1.6-3,2.6
	c-6.9,6.8-15.9,11.3-25.4,13c-1.8,0.4-3.5,0.3-5.2,0c-2.2-0.3-2.9-1.7-2.2-3.8C5.7,28.5,6,27.6,6.6,27c1.6-2,3.3-3.9,5.1-5.6
	c4.6-4.2,10-7.4,15.7-9.5c8.5-3.5,17.6-5,26.8-5C66.1,7,78,6.9,89.9,7c3.2,0.1,6.2-0.7,9-2.3c1.6-1,2.2-2,1.7-2.9
	c-0.6-1.3-1.9-1.2-3-1.2L74,0.9"/>
<path class="st0" d="M175.9,55.5c1.2,1.6,1.9,3.5,2.2,5.3c0.3,1.3-0.3,2.6-1.3,3.2c-1,0.6-2.3,0.3-3.2-0.6c-1.2-1.2-3-1.2-4.2,0
	c-1.2,1.2-1.2,2.7,0.3,4.5c1.6,1.9,3.6,3.2,5.9,3.8c4.9,1.3,10.1,0.3,14-2.7c3.5-2.7,6.2-6.2,7.9-10.3c0.4-0.7,0.7-1.4,1-2.3
	c0.4-1.4-0.3-3-1.7-3.6c-1.3-0.4-2.7,0.1-3.3,1.4c-0.4,0.6-0.7,1.3-1,2c-1.3,2.7-2.9,5.2-5.1,7.2c-1.3,1.2-2.7,2.2-4.5,2.7
	c1.6-3.3,1.4-7.1-0.3-10.3c-1.2-2.3-2.2-4.6-3.3-6.9c-0.6-1.2-0.9-2.5-0.6-3.8c0.1-1.2,0.1-2.3-0.3-3.3c-0.4-1.3-1.6-2.3-2.9-2.3
	c-1.3-0.1-2.6,0.6-3.2,1.9c-0.7,1.2-0.9,2.7-0.6,4c0.4,1.4,0.3,3.2-0.3,4.6c-0.6,1.4-1.3,2.9-1.9,4.3c-0.7,1.3-0.3,3,1,3.8
	c0,0,0.1,0,0.1,0.1c1.3,0.9,3,0.4,3.9-1l0,0C175.2,56.7,175.5,56.1,175.9,55.5"/>
<path class="st0" d="M166.8,9c0-0.6,0-1.2-0.1-1.7c-0.1-1.6-1.4-2.7-2.9-2.9c-1.6,0-2.9,1.2-3,2.7c-0.1,1.2-0.1,2.5-0.4,3.6
	c-0.6,2-1.6,3.9-3,5.3c-0.7,0.9-0.9,2-0.3,3c0.4,1,1.4,1.7,2.5,1.7c1.2,0,2.2-0.6,2.7-1.4C165,16.7,166.5,12.9,166.8,9"/>
</svg>
