<svg xmlns="http://www.w3.org/2000/svg" width="37.367" height="56.05" viewBox="0 0 37.367 56.05"><path d="M9.342,218.683a9.345,9.345,0,0,0,9.342-9.342V200H9.342a9.342,9.342,0,1,0,0,18.683Z" transform="translate(0 -162.633)" fill="#0acf83"/><path d="M0,109.342A9.345,9.345,0,0,1,9.342,100h9.342v18.683H9.342A9.345,9.345,0,0,1,0,109.342Z" transform="translate(0 -81.317)" fill="#a259ff"/><path d="M0,9.342A9.345,9.345,0,0,1,9.342,0h9.342V18.683H9.342A9.345,9.345,0,0,1,0,9.342Z" fill="#f24e1e"/><path d="M100,0h9.342a9.342,9.342,0,0,1,0,18.683H100Z" transform="translate(-81.317)" fill="#ff7262"/><path d="M118.683,109.342A9.342,9.342,0,1,1,109.342,100,9.345,9.345,0,0,1,118.683,109.342Z" transform="translate(-81.317 -81.317)" fill="#1abcfe"/></svg>