<svg xmlns="http://www.w3.org/2000/svg" width="15" height="20" viewBox="0 0 15 20"><g transform="translate(0 0)"><path d="M15,5H10.625A.625.625,0,0,1,10,4.375V0H.937A.935.935,0,0,0,0,.933v18.13A.935.935,0,0,0,.933,20h13.13A.935.935,0,0,0,15,19.067ZM7.5,7.5A2.5,2.5,0,1,1,5,10,2.5,2.5,0,0,1,7.5,7.5Zm4.375,9.25A.819.819,0,0,1,11,17.5H4a.819.819,0,0,1-.875-.75V16a2.458,2.458,0,0,1,2.621-2.25h.2a4.032,4.032,0,0,0,3.113,0h.2A2.459,2.459,0,0,1,11.875,16Z" fill="#8d8d8d" opacity="0.4"/><path d="M91.6,4.1,87.777.273A.937.937,0,0,0,87.113,0h-.238V4.375A.625.625,0,0,0,87.5,5h4.375V4.762A.934.934,0,0,0,91.6,4.1Zm-7.227,8.4a2.5,2.5,0,1,0-2.5-2.5A2.5,2.5,0,0,0,84.375,12.5Zm1.75,1.25h-.2a4.032,4.032,0,0,1-3.113,0h-.2A2.458,2.458,0,0,0,80,16v.75a.819.819,0,0,0,.875.75h7a.82.82,0,0,0,.875-.75V16A2.459,2.459,0,0,0,86.125,13.75Z" transform="translate(-76.875 0)" fill="#8d8d8d"/></g></svg>