<svg xmlns="http://www.w3.org/2000/svg" width="55.313" height="53.947" viewBox="0 0 55.313 53.947"><path d="M27.656,0a27.659,27.659,0,0,0-8.743,53.9c1.382.256,1.89-.6,1.89-1.33,0-.659-.026-2.838-.038-5.149-7.694,1.673-9.318-3.263-9.318-3.263-1.258-3.2-3.071-4.047-3.071-4.047-2.509-1.717.189-1.681.189-1.681a5.814,5.814,0,0,1,4.24,2.85c2.467,4.228,6.47,3.006,8.048,2.3a5.889,5.889,0,0,1,1.756-3.7c-6.143-.7-12.6-3.071-12.6-13.668a10.7,10.7,0,0,1,2.85-7.423,9.938,9.938,0,0,1,.268-7.319s2.322-.743,7.607,2.835a26.236,26.236,0,0,1,13.851,0c5.279-3.578,7.6-2.835,7.6-2.835a9.925,9.925,0,0,1,.271,7.319A10.682,10.682,0,0,1,45.3,26.212c0,10.622-6.47,12.961-12.628,13.646a6.611,6.611,0,0,1,1.876,5.122c0,3.7-.032,6.679-.032,7.59,0,.736.5,1.6,1.9,1.327A27.66,27.66,0,0,0,27.656,0" transform="translate(0 0)" fill="#161614"/><path d="M45.081,179.941c-.061.137-.277.179-.474.084s-.313-.278-.248-.416.276-.181.476-.086.316.279.246.417m1.36,1.214c-.132.122-.39.066-.565-.128a.423.423,0,0,1-.081-.575c.136-.122.386-.065.567.128s.216.451.078.575m.934,1.553c-.17.118-.447.007-.618-.239s-.169-.541,0-.659.445-.012.618.232.169.545,0,.666m1.578,1.8c-.152.167-.474.122-.711-.106a.532.532,0,0,1-.157-.707c.153-.167.478-.12.716.106s.313.541.152.707m2.04.607c-.067.216-.378.315-.691.223s-.518-.349-.454-.567.377-.321.693-.222.518.346.452.567m2.322.257c.008.228-.258.417-.587.421s-.6-.177-.6-.4.26-.418.59-.423.6.177.6.4m2.281-.087c.039.223-.189.451-.516.512s-.618-.079-.659-.3.193-.457.513-.516.62.077.661.3" transform="translate(-34.722 -140.544)" fill="#161614"/></svg>