<?xml version="1.0" encoding="utf-8"?>
<!-- Generator: Adobe Illustrator 27.7.0, SVG Export Plug-In . SVG Version: 6.00 Build 0)  -->
<svg version="1.1" id="Layer_1" xmlns="http://www.w3.org/2000/svg" xmlns:xlink="http://www.w3.org/1999/xlink" x="0px" y="0px"
	 viewBox="0 0 100 99.97" style="enable-background:new 0 0 100 99.97;" xml:space="preserve">
<style type="text/css">
	.st0{fill:#FF3900;}
	.st1{fill:#FFFFFF;}
</style>
<path class="st0" d="M50.04,0.01c14.77,0,29.54,0,44.31,0c3.09,0,5.65,2.56,5.65,5.63c0,29.56,0,59.12,0,88.67
	c0,2.83-2.19,5.27-5.01,5.58c-0.39,0.04-0.79,0.07-1.18,0.07c-29.35,0-58.71,0.01-88.06,0c-3.05,0-5.39-2.34-5.67-5.04
	C0.04,94.56,0,94.2,0,93.84C0,64.48,0,35.12,0,5.76C0.01,2.42,2.73,0,5.78,0C20.53,0.02,35.28,0.01,50.04,0.01z M30.36,61.48
	c0.03-0.63,0.05-1.27,0.09-1.9c0.07-1.37,0.28-2.71,0.63-4.05c0.82-3.15,2.56-5.7,5.08-7.73c2.06-1.66,4.35-2.96,6.66-4.25
	c3.39-1.9,6.81-3.74,9.91-6.1c2.65-2.02,5.03-4.3,6.94-7.04c2.2-3.14,3.71-6.58,4.46-10.34c0.29-1.44,0.57-2.89,0.72-4.35
	c0.15-1.4,0.14-2.82,0.19-4.24c-0.12-0.06-0.24-0.17-0.36-0.17c-4.69-0.01-9.37-0.01-14.06,0c-0.12,0-0.23,0.12-0.35,0.18
	c-0.15,1.57-0.26,3.15-0.47,4.72c-0.26,1.99-1.01,3.82-2.12,5.5c-1.45,2.18-3.41,3.83-5.61,5.16c-2.93,1.77-5.92,3.44-8.88,5.15
	c-3.07,1.78-5.98,3.78-8.54,6.25c-2.66,2.57-4.78,5.52-6.29,8.91c-0.72,1.62-1.29,3.29-1.72,5c-0.34,1.35-0.51,2.74-0.73,4.12
	c-0.27,1.72-0.29,3.45-0.23,5.18c0.13,0.05,0.26,0.14,0.39,0.14c4.64,0.01,9.28,0.01,13.93,0C30.11,61.64,30.24,61.54,30.36,61.48z
	 M34.86,88.48c0.14,0.04,0.27,0.12,0.41,0.12c4.65,0.01,9.29,0.01,13.94,0c0.14,0,0.27-0.07,0.41-0.11
	c0.04-0.74,0.02-1.49,0.12-2.22c0.18-1.36,0.31-2.75,0.67-4.06c0.96-3.49,3.11-6.15,6.04-8.24c2.34-1.67,4.86-3.03,7.36-4.42
	c3.53-1.97,7-4.03,10.08-6.67c4.36-3.74,7.43-8.33,9.01-13.86c0.46-1.6,0.81-3.24,1.01-4.88c0.24-1.9,0.26-3.82,0.38-5.73
	c-0.13-0.04-0.27-0.12-0.4-0.12c-4.65-0.01-9.3-0.01-13.96,0c-0.13,0-0.26,0.09-0.4,0.13c-0.03,0.44-0.06,0.87-0.1,1.31
	c-0.12,1.15-0.21,2.3-0.37,3.44c-0.34,2.34-1.26,4.44-2.71,6.32c-1.31,1.69-2.91,3.05-4.72,4.15c-2.57,1.57-5.2,3.05-7.81,4.54
	c-4.16,2.38-8.13,5-11.38,8.58c-2.32,2.56-4.12,5.44-5.36,8.65c-0.63,1.63-1.06,3.35-1.45,5.06c-0.33,1.45-0.53,2.94-0.68,4.43
	C34.85,86.07,34.89,87.28,34.86,88.48z"/>
<path class="st1" d="M84.29,38.39c-0.12,1.91-0.14,3.84-0.38,5.73c-0.21,1.64-0.56,3.29-1.01,4.88c-1.58,5.53-4.65,10.12-9.01,13.86
	c-3.09,2.65-6.55,4.7-10.08,6.67c-2.5,1.39-5.02,2.76-7.36,4.42c-2.93,2.08-5.08,4.75-6.04,8.24c-0.36,1.32-0.49,2.7-0.67,4.06
	c-0.1,0.73-0.08,1.48-0.12,2.22c-4.92,0-9.84,0-14.75,0c0.03-1.2-0.01-2.41,0.1-3.6c0.15-1.48,0.35-2.97,0.68-4.43
	c0.39-1.71,0.82-3.43,1.45-5.06c1.24-3.21,3.04-6.09,5.36-8.65c3.25-3.58,7.22-6.2,11.38-8.58c2.62-1.5,5.24-2.97,7.81-4.54
	c1.8-1.1,3.41-2.46,4.72-4.15c1.45-1.87,2.37-3.98,2.71-6.32c0.16-1.14,0.25-2.3,0.37-3.44c0.04-0.44,0.07-0.87,0.1-1.31
	C74.45,38.39,79.37,38.39,84.29,38.39z"/>
<path class="st1" d="M65.03,11.48c-0.06,1.41-0.04,2.83-0.19,4.24c-0.16,1.46-0.43,2.91-0.72,4.35c-0.75,3.76-2.26,7.2-4.46,10.34
	c-1.92,2.74-4.29,5.03-6.94,7.04c-3.1,2.36-6.52,4.21-9.91,6.1c-2.3,1.29-4.59,2.58-6.66,4.25c-2.52,2.04-4.25,4.58-5.08,7.73
	c-0.35,1.33-0.56,2.68-0.63,4.05c-0.03,0.63-0.06,1.27-0.09,1.9c-4.9,0-9.79,0.01-14.69,0.01c-0.07-1.73-0.04-3.46,0.23-5.18
	c0.22-1.38,0.39-2.77,0.73-4.12c0.43-1.71,1-3.38,1.72-5c1.51-3.38,3.63-6.34,6.29-8.91c2.56-2.47,5.47-4.47,8.54-6.25
	c2.96-1.72,5.95-3.38,8.88-5.15c2.21-1.33,4.16-2.98,5.61-5.16c1.11-1.68,1.86-3.5,2.12-5.5c0.21-1.57,0.31-3.15,0.47-4.72
	c0.03-0.01,0.06-0.02,0.09-0.02C55.25,11.47,60.14,11.48,65.03,11.48z"/>
</svg>
