<?xml version="1.0" encoding="UTF-8"?>
<svg id="CLOSE" xmlns="http://www.w3.org/2000/svg" viewBox="0 0 24 24">
  <defs>
    <style>
      .cls-1 {
        fill: none;
        stroke: #000;
        stroke-linecap: round;
        stroke-miterlimit: 10;
        stroke-width: 1.5px;
      }
    </style>
  </defs>
  <g id="master">
    <path class="cls-1" d="m21.86,11.07c0,6.62-4.41,12.18-9.86,12.18S2.14,17.43,2.14,11.07C2.14,4.32,6.55.75,12,.75s9.86,3.44,9.86,10.32Z"/>
    <path class="cls-1" d="m12.06,22.03c1.29,0,2.35-.73,2.83-1.29,1.91-2.23,2.83-5.55,3.11-8.41.14-1.42.04-2.62-.13-3.67-.72-4.42-3.14-5.79-5.81-5.79h-.06c-2.67,0-5.08,1.37-5.81,5.79-.17,1.05-.27,2.25-.13,3.67.16,1.57.6,3.1,1.12,4.59.48,1.38,1.09,2.7,2.05,3.82.48.56,1.54,1.29,2.83,1.29h0Z"/>
    <circle class="cls-1" cx="12.06" cy="18.37" r="3.69"/>
  </g>
</svg>