<svg xmlns="http://www.w3.org/2000/svg" width="55.023" height="53.648" viewBox="0 0 55.023 53.648"><g transform="translate(0)"><g transform="translate(0)"><g transform="translate(0)"><path d="M9.744,0H45.28a9.736,9.736,0,0,1,9.744,9.744V43.9a9.736,9.736,0,0,1-9.744,9.744H9.744A9.736,9.736,0,0,1,0,43.9V9.744A9.736,9.736,0,0,1,9.744,0Z" transform="translate(0)" fill="#300"/></g></g><g transform="translate(11.369 11.899)"><path d="M64.885,78.356H56.356l-1.742,5.388a.4.4,0,0,1-.436.321h-4.31c-.252,0-.321-.138-.252-.413L57,62.4c.069-.229.138-.481.229-.757a8.008,8.008,0,0,0,.138-1.49.227.227,0,0,1,.183-.252h5.938c.183,0,.275.069.3.183L72.152,83.7c.069.252,0,.367-.229.367H67.131a.346.346,0,0,1-.367-.252Zm-7.2-4.654h5.823c-.138-.481-.321-1.055-.527-1.651-.206-.619-.413-1.284-.619-1.972-.229-.711-.436-1.4-.665-2.109s-.436-1.376-.619-2.04c-.183-.642-.344-1.238-.5-1.788h-.046a28.148,28.148,0,0,1-.779,2.958c-.344,1.1-.688,2.247-1.055,3.393-.321,1.169-.665,2.247-1.009,3.21Z" transform="translate(-49.59 -58.066)" fill="#ff9a00"/><path d="M160.315,57.655a2.837,2.837,0,0,1-2.04-.8,2.978,2.978,0,0,1-.779-2.109,2.7,2.7,0,0,1,.825-2.04,2.936,2.936,0,0,1,2.04-.8,2.745,2.745,0,0,1,2.086.8,3.152,3.152,0,0,1-.046,4.15A2.7,2.7,0,0,1,160.315,57.655Zm-2.568,19.9V59.9c0-.229.092-.321.3-.321h4.539c.206,0,.3.115.3.321V77.555c0,.252-.092.367-.3.367h-4.494A.321.321,0,0,1,157.748,77.555Z" transform="translate(-132.756 -51.9)" fill="#ff9a00"/></g></g></svg>