<svg xmlns="http://www.w3.org/2000/svg" width="55.023" height="53.648" viewBox="0 0 55.023 53.648"><g transform="translate(0)"><g transform="translate(0 0)"><path d="M17.744,4H53.28a9.736,9.736,0,0,1,9.744,9.744V47.9a9.736,9.736,0,0,1-9.744,9.744H17.744A9.736,9.736,0,0,1,8,47.9V13.744A9.736,9.736,0,0,1,17.744,4Z" transform="translate(-8 -4)" fill="#49021f"/></g><g transform="translate(14.879 11.758)"><path d="M78.013,64.186V87.709c0,.252-.115.367-.321.367H73.2c-.206,0-.3-.115-.3-.367V64.186c0-.206.115-.3.321-.3h4.471a.259.259,0,0,1,.3.229A.084.084,0,0,1,78.013,64.186Z" transform="translate(-72.9 -61.913)" fill="#f36"/><path d="M120.349,81.814a11.4,11.4,0,0,1-4.929-1.032,7.993,7.993,0,0,1-3.462-3.118,9.92,9.92,0,0,1-1.261-5.227,9.416,9.416,0,0,1,1.261-4.837,9.521,9.521,0,0,1,3.645-3.554,11.727,11.727,0,0,1,5.8-1.33,4.094,4.094,0,0,1,.481.023c.206.023.436.023.711.046V55.54c0-.16.069-.252.229-.252h4.654a.206.206,0,0,1,.229.16V77.32c0,.413.023.871.046,1.376.046.481.069.94.092,1.33a.372.372,0,0,1-.229.367,17.509,17.509,0,0,1-3.737,1.1A20.022,20.022,0,0,1,120.349,81.814Zm2.247-4.585V67.141a5.864,5.864,0,0,0-.619-.115c-.252-.023-.5-.046-.757-.046a5.652,5.652,0,0,0-2.591.6,5.14,5.14,0,0,0-1.949,1.7,5.082,5.082,0,0,0-.757,2.912,6.389,6.389,0,0,0,.39,2.361,4.481,4.481,0,0,0,1.032,1.628,3.961,3.961,0,0,0,1.559.917,6,6,0,0,0,1.9.3c.344,0,.665-.023.963-.046A1.952,1.952,0,0,0,122.6,77.229Z" transform="translate(-102.031 -55.284)" fill="#f36"/></g></g></svg>