<?xml version="1.0" encoding="utf-8"?>
<!-- Generator: Adobe Illustrator 28.2.0, SVG Export Plug-In . SVG Version: 6.00 Build 0)  -->
<svg version="1.1" id="Layer_1" xmlns="http://www.w3.org/2000/svg" xmlns:xlink="http://www.w3.org/1999/xlink" x="0px" y="0px"
	 viewBox="0 0 3705.6 500" style="enable-background:new 0 0 3705.6 500;" xml:space="preserve">
<style type="text/css">
	.st0{fill:#FFFFFF;}
</style>
<polygon class="st0" points="245.5,232 344.5,132.9 0,132.9 0,232 "/>
<polygon class="st0" points="500,265.4 259.3,265.4 160.2,364.4 500,364.4 "/>
<polygon class="st0" points="212.1,265.4 0,265.4 0,364.4 113,364.4 "/>
<polygon class="st0" points="79.6,397.8 0,397.8 0,477.4 "/>
<polygon class="st0" points="391.7,132.9 292.7,232 500,232 500,132.9 "/>
<path class="st0" d="M126.8,397.8L24.6,500h374.7c55.6,0,100.7-45.1,100.7-100.7v-1.5H126.8z"/>
<path class="st0" d="M377.9,99.5L477.4,0H100.7C45.5,0,0.7,44.5,0.1,99.5H377.9z"/>
<polygon class="st0" points="425.1,99.5 500,99.5 500,24.6 "/>
<polygon class="st0" points="659.8,355.6 617.9,355.6 784.3,181.7 826.2,169.2 826.2,303.7 951.3,185.4 993.9,169.2 993.9,355.6 
	965.7,355.6 965.7,218.6 826.8,355.6 794.9,355.6 794.9,215.5 "/>
<polygon class="st0" points="1217.2,355.6 1032,355.6 1032,169.2 1189,169.2 1220.9,202.9 1062.7,202.9 1062.7,246.7 1155.2,246.7 
	1155.2,281.1 1062,281.1 1062,318.7 1216.6,318.7 "/>
<path class="st0" d="M1401.1,355.6h-109.5c0,0-73.2-18.8-73.2-93.2s80.7-93.2,80.7-93.2h80.7l23.8,33.8h-107
	c0,0-46.9,13.1-46.9,59.4s51.3,60.1,51.3,60.1h100.1V355.6z"/>
<path class="st0" d="M1741.4,169l-152.7,152.7h-102.1c0,0-52.5-8.7-52.5-59.4s48.4-61.4,48.4-61.4h110.2l-32.1-31.8h-75.8
	c0,0-81.3,13.8-81.3,93.2c0,79.4,75.4,92,75.4,92h122.5l36.2-36.2h98v37.3h34V197.3L1741.4,169z M1735.6,289.7h-62.4l63.6-63.6
	L1735.6,289.7z"/>
<path class="st0" d="M3577.5,169l-152.7,152.7h-102.1c0,0-52.5-8.7-52.5-59.4s48.4-61.4,48.4-61.4h110.2l-32.1-31.8H3321
	c0,0-81.3,13.8-81.3,93.2c0,79.4,75.4,92,75.4,92h122.5l36.2-36.2h98v37.3h34V197.3L3577.5,169z M3571.8,289.7h-62.4l63.6-63.6
	L3571.8,289.7z"/>
<path class="st0" d="M1803.3,355.6V166c0,0,33.2,1.2,54.8,23.3c21.6,22.2,116.7,117.2,116.7,117.2V166h33.2v189.6h-36.7L1836,220.3
	v135.3H1803.3z"/>
<path class="st0" d="M2033.1,336.9V225.2c0-31,25.1-56.1,56.1-56.1h116.5l-35.5,35.5h-77.9c-15,0-27.2,12.2-27.2,27.2v76.6
	L2033.1,336.9z"/>
<path class="st0" d="M2355.1,169h-111.4v186.5h32.7v-61.8h57.7c0,0,68.8,7.6,68.8-56.6S2355.1,169,2355.1,169z M2339,262.3h-63.8
	v-59h63.8c16.3,0,29.5,13.2,29.5,29.5C2368.5,249.1,2355.3,262.3,2339,262.3z"/>
<path class="st0" d="M2724,165.1l-153.1,153.1h-119V194.6l-33.8-25.5v186.5h165.6l33.8-33.8h103.2v33.8h35.6V197.5L2724,165.1z
	 M2641.5,289.1l75.2-75.2l2.3,75.2H2641.5z"/>
<path class="st0" d="M2968.1,202.8l-32.7-32.7h-110.8c0,0-44.3,4.7-44.3,56.6s58.3,53.7,58.3,53.7h74.1c0,0,20.4,6.4,20.4,21.6
	c0,15.2-22.7,20.4-22.7,20.4h-130.1v33.3h138.2c0,0,49.6-7.6,49.6-54.2s-51.3-57.7-51.3-57.7h-84.6c0,0-20.4-1.2-20.4-17.5
	s12.8-21,20.4-21S2968.1,202.8,2968.1,202.8z"/>
<polygon class="st0" points="2982.7,170.1 3143.6,170.1 3171.1,205.7 3091.2,205.7 3091.2,355.6 3055,355.6 3055,205.1 
	2982.7,205.1 "/>
<polygon class="st0" points="3184.5,170.1 3184.5,355.6 3219.5,355.6 3219.5,196.3 "/>
<path class="st0" d="M2212.2,187.7v111.7c0,31-25.1,56.1-56.1,56.1h-116.5L2075,320h77.9c15,0,27.2-12.2,27.2-27.2v-76.6
	L2212.2,187.7z"/>
</svg>
