<svg width="128" height="128" viewBox="0 0 128 128" fill="none" xmlns="http://www.w3.org/2000/svg">
<g clip-path="url(#clip0_1267_218)">
<path d="M103.461 0H24.5394C10.9867 0 0 10.9867 0 24.5394V103.461C0 117.013 10.9867 128 24.5394 128H103.461C117.013 128 128 117.013 128 103.461V24.5394C128 10.9867 117.013 0 103.461 0Z" fill="#16161D"/>
<path d="M35.5723 18.6667C38.8465 18.6667 42.0471 19.6398 44.7695 21.463C47.4918 23.2862 49.6137 25.8776 50.8666 28.9095C52.1196 31.9414 52.4474 35.2776 51.8087 38.4963C51.1699 41.7149 49.5933 44.6714 47.2781 46.9919C44.9629 49.3124 42.0132 50.8927 38.8019 51.533C35.5907 52.1732 32.2622 51.8446 29.2372 50.5887C26.2123 49.3329 23.6269 47.2062 21.8078 44.4776C19.9888 41.7489 19.0179 38.5409 19.0179 35.2592C19.0229 30.8601 20.7686 26.6426 23.872 23.532C26.9755 20.4214 31.1833 18.6716 35.5723 18.6667ZM35.5723 44.3573C37.3676 44.3573 39.1226 43.8237 40.6153 42.824C42.1081 41.8243 43.2715 40.4034 43.9586 38.7409C44.6456 37.0785 44.8253 35.2491 44.4751 33.4843C44.1248 31.7194 43.2603 30.0983 41.9909 28.8259C40.7214 27.5535 39.104 26.687 37.3432 26.336C35.5824 25.9849 33.7573 26.1651 32.0986 26.8537C30.44 27.5423 29.0223 28.7084 28.0249 30.2046C27.0275 31.7008 26.4952 33.4598 26.4952 35.2592C26.4979 37.6714 27.4551 39.9839 29.1568 41.6895C30.8585 43.3952 33.1658 44.3546 35.5723 44.3573Z" fill="white"/>
<path d="M104.426 23.0638H80.0277V47.5178H104.426V23.0638Z" fill="white"/>
<path d="M80.0277 19.8284H104.425C105.282 19.8284 106.103 20.1693 106.708 20.776C107.313 21.3828 107.653 22.2057 107.653 23.0637V47.5178C107.653 48.3758 107.313 49.1987 106.708 49.8055C106.103 50.4122 105.282 50.7531 104.425 50.7531H80.0277C79.1716 50.7531 78.3506 50.4122 77.7452 49.8055C77.1399 49.1987 76.7998 48.3758 76.7998 47.5178V23.0637C76.7998 22.2057 77.1399 21.3828 77.7452 20.776C78.3506 20.1693 79.1716 19.8284 80.0277 19.8284ZM101.198 26.299H83.2555V44.2825H101.198V26.299Z" fill="white"/>
<path d="M36.0585 78.6634L20.1969 94.5616L36.0585 110.46L51.9201 94.5616L36.0585 78.6634Z" fill="white"/>
<path d="M18.0983 92.4582L33.9599 76.56C34.5166 76.0025 35.2713 75.6895 36.0583 75.6896C36.8452 75.6898 37.5998 76.0032 38.1562 76.5609L54.0179 92.459C54.5739 93.0168 54.8863 93.7731 54.8863 94.5616C54.8863 95.3501 54.5739 96.1064 54.0179 96.6642L38.1562 112.562C37.5998 113.12 36.8452 113.433 36.0583 113.434C35.2713 113.434 34.5166 113.121 33.9599 112.563L18.0983 96.665C17.5417 96.1071 17.2291 95.3505 17.2291 94.5616C17.2291 93.7727 17.5417 93.0161 18.0983 92.4582ZM36.0585 82.8702L24.394 94.5616L36.0585 106.253L47.723 94.5616L36.0585 82.8702Z" fill="white"/>
<path opacity="0.3" d="M35.7636 82.8372C34.7721 82.8372 33.8211 82.4424 33.12 81.7396C32.4189 81.0369 32.025 80.0838 32.025 79.0899V47.8474C32.025 46.8536 32.4189 45.9005 33.12 45.1977C33.8211 44.495 34.7721 44.1002 35.7636 44.1002C36.7552 44.1002 37.7061 44.495 38.4072 45.1977C39.1083 45.9005 39.5022 46.8536 39.5022 47.8474V79.0899C39.5022 80.0838 39.1083 81.0369 38.4072 81.7396C37.7061 82.4424 36.7552 82.8372 35.7636 82.8372Z" fill="white"/>
<path d="M91.7053 76.231C94.9795 76.231 98.1801 77.2041 100.902 79.0273C103.625 80.8505 105.747 83.4419 107 86.4738C108.253 89.5057 108.58 92.8419 107.942 96.0606C107.303 99.2792 105.726 102.236 103.411 104.556C101.096 106.877 98.1461 108.457 94.9349 109.097C91.7237 109.737 88.3951 109.409 85.3702 108.153C82.3453 106.897 79.7598 104.77 77.9408 102.042C76.1218 99.3132 75.1509 96.1052 75.1509 92.8235C75.1558 88.4244 76.9015 84.2069 80.005 81.0963C83.1085 77.9856 87.3163 76.2359 91.7053 76.231ZM91.7053 101.922C93.5006 101.922 95.2556 101.388 96.7483 100.388C98.241 99.3886 99.4045 97.9677 100.092 96.3052C100.779 94.6427 100.958 92.8134 100.608 91.0486C100.258 89.2837 99.3933 87.6626 98.1238 86.3902C96.8544 85.1178 95.237 84.2513 93.4762 83.9002C91.7154 83.5492 89.8903 83.7294 88.2316 84.418C86.573 85.1066 85.1553 86.2727 84.1579 87.7689C83.1605 89.2651 82.6281 91.0241 82.6281 92.8235C82.6308 95.2356 83.5881 97.5482 85.2898 99.2538C86.9915 100.959 89.2987 101.919 91.7053 101.922Z" fill="white"/>
<path opacity="0.3" d="M91.5141 83.9826C90.5226 83.9826 89.5716 83.5878 88.8705 82.8851C88.1694 82.1823 87.7755 81.2292 87.7755 80.2354V48.9928C87.7755 47.999 88.1694 47.0459 88.8705 46.3431C89.5716 45.6404 90.5226 45.2456 91.5141 45.2456C92.5056 45.2456 93.4566 45.6404 94.1577 46.3431C94.8588 47.0459 95.2527 47.999 95.2527 48.9928V80.2354C95.2527 81.2292 94.8588 82.1823 94.1577 82.8851C93.4566 83.5878 92.5056 83.9826 91.5141 83.9826Z" fill="white"/>
<path opacity="0.3" d="M80.9629 39.4857H49.7898C48.7983 39.4857 47.8473 39.0909 47.1462 38.3881C46.4451 37.6854 46.0512 36.7323 46.0512 35.7384C46.0512 34.7446 46.4451 33.7915 47.1462 33.0888C47.8473 32.386 48.7983 31.9912 49.7898 31.9912H80.9629C81.9544 31.9912 82.9053 32.386 83.6065 33.0888C84.3076 33.7915 84.7015 34.7446 84.7015 35.7384C84.7015 36.7323 84.3076 37.6854 83.6065 38.3881C82.9053 39.0909 81.9544 39.4857 80.9629 39.4857Z" fill="white"/>
</g>
<defs>
<clipPath id="clip0_1267_218">
<rect width="128" height="128" fill="white"/>
</clipPath>
</defs>
</svg>
