<svg width="150" height="40" viewBox="0 0 150 40" fill="none" xmlns="http://www.w3.org/2000/svg">
<path d="M53.224 26V13.4H56.122V23.336H61.486V26H53.224ZM68.7617 26.216C67.4657 26.216 66.3197 25.94 65.3237 25.388C64.3277 24.824 63.5477 24.056 62.9837 23.084C62.4197 22.1 62.1377 20.978 62.1377 19.718C62.1377 18.446 62.4197 17.324 62.9837 16.352C63.5477 15.368 64.3217 14.6 65.3057 14.048C66.3017 13.484 67.4417 13.202 68.7257 13.202C70.0097 13.202 71.1437 13.484 72.1277 14.048C73.1237 14.6 73.9037 15.368 74.4677 16.352C75.0317 17.324 75.3137 18.446 75.3137 19.718C75.3137 20.978 75.0317 22.1 74.4677 23.084C73.9157 24.056 73.1477 24.824 72.1637 25.388C71.1797 25.94 70.0457 26.216 68.7617 26.216ZM68.7617 23.552C69.4697 23.552 70.0937 23.39 70.6337 23.066C71.1737 22.742 71.5937 22.292 71.8937 21.716C72.1937 21.128 72.3437 20.462 72.3437 19.718C72.3437 18.962 72.1877 18.296 71.8757 17.72C71.5637 17.132 71.1377 16.676 70.5977 16.352C70.0577 16.016 69.4337 15.848 68.7257 15.848C68.0177 15.848 67.3937 16.016 66.8537 16.352C66.3137 16.676 65.8877 17.132 65.5757 17.72C65.2637 18.296 65.1077 18.962 65.1077 19.718C65.1077 20.462 65.2637 21.128 65.5757 21.716C65.8877 22.292 66.3197 22.742 66.8717 23.066C67.4237 23.39 68.0537 23.552 68.7617 23.552ZM78.7515 23.336L78.6075 19.466L84.1875 13.4H87.9675L78.7515 23.336ZM77.0775 26V13.4H79.9575V26H77.0775ZM84.5655 26L79.6155 19.592L81.7575 17.882L88.1475 26H84.5655ZM89.5404 26V13.4H92.4384V26H89.5404ZM96.0722 26.27C95.6162 26.27 95.2262 26.108 94.9022 25.784C94.5782 25.46 94.4162 25.07 94.4162 24.614C94.4162 24.17 94.5782 23.786 94.9022 23.462C95.2262 23.138 95.6162 22.976 96.0722 22.976C96.5162 22.976 96.9002 23.138 97.2242 23.462C97.5482 23.786 97.7102 24.17 97.7102 24.614C97.7102 25.07 97.5482 25.46 97.2242 25.784C96.9002 26.108 96.5162 26.27 96.0722 26.27ZM105.371 26.216C104.123 26.216 103.019 25.94 102.059 25.388C101.111 24.824 100.361 24.056 99.809 23.084C99.269 22.1 98.999 20.972 98.999 19.7C98.999 18.428 99.269 17.306 99.809 16.334C100.361 15.35 101.111 14.582 102.059 14.03C103.019 13.466 104.123 13.184 105.371 13.184C106.283 13.184 107.117 13.346 107.873 13.67C108.641 13.982 109.301 14.426 109.853 15.002C110.417 15.578 110.849 16.244 111.149 17L108.431 17.918C108.251 17.498 108.005 17.132 107.693 16.82C107.393 16.508 107.045 16.268 106.649 16.1C106.265 15.932 105.839 15.848 105.371 15.848C104.711 15.848 104.123 16.01 103.607 16.334C103.091 16.658 102.689 17.114 102.401 17.702C102.113 18.278 101.969 18.944 101.969 19.7C101.969 20.456 102.113 21.128 102.401 21.716C102.701 22.292 103.109 22.748 103.625 23.084C104.153 23.408 104.753 23.57 105.425 23.57C105.917 23.57 106.355 23.48 106.739 23.3C107.123 23.12 107.453 22.868 107.729 22.544C108.017 22.22 108.263 21.848 108.467 21.428L111.185 22.346C110.897 23.114 110.471 23.792 109.907 24.38C109.343 24.956 108.677 25.406 107.909 25.73C107.141 26.054 106.295 26.216 105.371 26.216ZM118.701 26.216C117.405 26.216 116.259 25.94 115.263 25.388C114.267 24.824 113.487 24.056 112.923 23.084C112.359 22.1 112.077 20.978 112.077 19.718C112.077 18.446 112.359 17.324 112.923 16.352C113.487 15.368 114.261 14.6 115.245 14.048C116.241 13.484 117.381 13.202 118.665 13.202C119.949 13.202 121.083 13.484 122.067 14.048C123.063 14.6 123.843 15.368 124.407 16.352C124.971 17.324 125.253 18.446 125.253 19.718C125.253 20.978 124.971 22.1 124.407 23.084C123.855 24.056 123.087 24.824 122.103 25.388C121.119 25.94 119.985 26.216 118.701 26.216ZM118.701 23.552C119.409 23.552 120.033 23.39 120.573 23.066C121.113 22.742 121.533 22.292 121.833 21.716C122.133 21.128 122.283 20.462 122.283 19.718C122.283 18.962 122.127 18.296 121.815 17.72C121.503 17.132 121.077 16.676 120.537 16.352C119.997 16.016 119.373 15.848 118.665 15.848C117.957 15.848 117.333 16.016 116.793 16.352C116.253 16.676 115.827 17.132 115.515 17.72C115.203 18.296 115.047 18.962 115.047 19.718C115.047 20.462 115.203 21.128 115.515 21.716C115.827 22.292 116.259 22.742 116.811 23.066C117.363 23.39 117.993 23.552 118.701 23.552ZM127.017 26V13.4H131.139C132.471 13.4 133.647 13.67 134.667 14.21C135.699 14.75 136.503 15.494 137.079 16.442C137.655 17.378 137.943 18.464 137.943 19.7C137.943 20.924 137.655 22.01 137.079 22.958C136.503 23.906 135.699 24.65 134.667 25.19C133.647 25.73 132.471 26 131.139 26H127.017ZM129.915 23.264H131.139C131.691 23.264 132.201 23.18 132.669 23.012C133.137 22.832 133.545 22.586 133.893 22.274C134.241 21.95 134.511 21.572 134.703 21.14C134.895 20.696 134.991 20.216 134.991 19.7C134.991 19.184 134.895 18.71 134.703 18.278C134.511 17.834 134.241 17.456 133.893 17.144C133.545 16.82 133.137 16.574 132.669 16.406C132.201 16.226 131.691 16.136 131.139 16.136H129.915V23.264ZM139.708 26V13.4H147.916V16.064H142.606V18.368H147.052V20.942H142.606V23.336H148.006V26H139.708Z" fill="#EAEAEA"/>
<path d="M32.3314 0H7.66857C3.43334 0 0 3.43334 0 7.66857V32.3314C0 36.5667 3.43334 40 7.66857 40H32.3314C36.5667 40 40 36.5667 40 32.3314V7.66857C40 3.43334 36.5667 0 32.3314 0Z" fill="#16161D"/>
<path d="M11.1164 5.83333C12.1395 5.83333 13.1397 6.13743 13.9905 6.70719C14.8412 7.27694 15.5043 8.08675 15.8958 9.03422C16.2874 9.98169 16.3898 11.0243 16.1902 12.0301C15.9906 13.0359 15.4979 13.9598 14.7744 14.685C14.0509 15.4101 13.1291 15.904 12.1256 16.104C11.1221 16.3041 10.0819 16.2014 9.13663 15.809C8.19134 15.4165 7.38339 14.7519 6.81495 13.8992C6.2465 13.0465 5.94309 12.044 5.94309 11.0185C5.94464 9.64378 6.49017 8.32581 7.46001 7.35374C8.42985 6.38167 9.74479 5.83488 11.1164 5.83333ZM11.1164 13.8617C11.6774 13.8617 12.2258 13.6949 12.6923 13.3825C13.1588 13.0701 13.5223 12.626 13.737 12.1065C13.9517 11.587 14.0079 11.0153 13.8985 10.4638C13.789 9.91231 13.5189 9.40571 13.1221 9.00809C12.7254 8.61047 12.22 8.33968 11.6697 8.22998C11.1195 8.12028 10.5491 8.17658 10.0308 8.39177C9.5125 8.60696 9.06948 8.97138 8.75779 9.43893C8.4461 9.90648 8.27973 10.4562 8.27973 11.0185C8.28058 11.7723 8.57971 12.495 9.1115 13.028C9.64328 13.561 10.3643 13.8608 11.1164 13.8617Z" fill="white"/>
<path d="M32.633 7.20744H25.0086V14.8493H32.633V7.20744Z" fill="white"/>
<path d="M25.0086 6.1964H32.633C32.9005 6.1964 33.1571 6.30291 33.3462 6.49252C33.5354 6.68212 33.6417 6.93928 33.6417 7.20742V14.8493C33.6417 15.1174 33.5354 15.3746 33.3462 15.5642C33.1571 15.7538 32.9005 15.8603 32.633 15.8603H25.0086C24.7411 15.8603 24.4846 15.7538 24.2954 15.5642C24.1062 15.3746 23.9999 15.1174 23.9999 14.8493V7.20742C23.9999 6.93928 24.1062 6.68212 24.2954 6.49252C24.4846 6.30291 24.7411 6.1964 25.0086 6.1964ZM31.6243 8.21845H26.0173V13.8383H31.6243V8.21845Z" fill="white"/>
<path d="M11.2683 24.5823L6.31152 29.5505L11.2683 34.5187L16.225 29.5505L11.2683 24.5823Z" fill="white"/>
<path d="M5.65572 28.8932L10.6125 23.925C10.7864 23.7508 11.0223 23.653 11.2682 23.653C11.5141 23.6531 11.7499 23.751 11.9238 23.9253L16.8806 28.8935C17.0544 29.0678 17.152 29.3041 17.152 29.5505C17.152 29.7969 17.0544 30.0332 16.8806 30.2076L11.9238 35.1757C11.7499 35.35 11.5141 35.448 11.2682 35.448C11.0223 35.448 10.7864 35.3502 10.6125 35.176L5.65572 30.2078C5.48179 30.0335 5.38408 29.797 5.38408 29.5505C5.38408 29.304 5.48179 29.0675 5.65572 28.8932ZM11.2683 25.8969L7.62312 29.5505L11.2683 33.2041L14.9134 29.5505L11.2683 25.8969Z" fill="white"/>
<path opacity="0.3" d="M11.1761 25.8866C10.8663 25.8866 10.5691 25.7632 10.35 25.5436C10.1309 25.324 10.0078 25.0262 10.0078 24.7156V14.9523C10.0078 14.6418 10.1309 14.3439 10.35 14.1243C10.5691 13.9047 10.8663 13.7813 11.1761 13.7813C11.486 13.7813 11.7832 13.9047 12.0023 14.1243C12.2214 14.3439 12.3444 14.6418 12.3444 14.9523V24.7156C12.3444 25.0262 12.2214 25.324 12.0023 25.5436C11.7832 25.7632 11.486 25.8866 11.1761 25.8866Z" fill="white"/>
<path d="M28.6579 23.8222C29.6811 23.8222 30.6813 24.1263 31.532 24.696C32.3828 25.2658 33.0458 26.0756 33.4374 27.0231C33.8289 27.9705 33.9314 29.0131 33.7318 30.0189C33.5321 31.0247 33.0394 31.9487 32.316 32.6738C31.5925 33.399 30.6707 33.8928 29.6672 34.0929C28.6636 34.293 27.6235 34.1903 26.6782 33.7978C25.7329 33.4054 24.9249 32.7408 24.3565 31.8881C23.7881 31.0354 23.4846 30.0329 23.4846 29.0073C23.4862 27.6326 24.0317 26.3147 25.0016 25.3426C25.9714 24.3705 27.2863 23.8237 28.6579 23.8222ZM28.6579 31.8505C29.2189 31.8505 29.7674 31.6838 30.2338 31.3713C30.7003 31.0589 31.0639 30.6149 31.2786 30.0954C31.4933 29.5759 31.5495 29.0042 31.44 28.4527C31.3306 27.9012 31.0604 27.3946 30.6637 26.9969C30.267 26.5993 29.7616 26.3285 29.2113 26.2188C28.6611 26.1091 28.0907 26.1654 27.5724 26.3806C27.0541 26.5958 26.611 26.9602 26.2993 27.4278C25.9877 27.8953 25.8213 28.445 25.8213 29.0073C25.8221 29.7611 26.1213 30.4838 26.6531 31.0168C27.1848 31.5498 27.9058 31.8496 28.6579 31.8505Z" fill="white"/>
<path opacity="0.3" d="M28.5982 26.2446C28.2883 26.2446 27.9911 26.1212 27.772 25.9016C27.5529 25.682 27.4298 25.3841 27.4298 25.0736V15.3103C27.4298 14.9997 27.5529 14.7018 27.772 14.4822C27.9911 14.2626 28.2883 14.1393 28.5982 14.1393C28.908 14.1393 29.2052 14.2626 29.4243 14.4822C29.6434 14.7018 29.7665 14.9997 29.7665 15.3103V25.0736C29.7665 25.3841 29.6434 25.682 29.4243 25.9016C29.2052 26.1212 28.908 26.2446 28.5982 26.2446Z" fill="white"/>
<path opacity="0.3" d="M25.3009 12.3393H15.5593C15.2495 12.3393 14.9523 12.2159 14.7332 11.9963C14.5141 11.7767 14.391 11.4788 14.391 11.1683C14.391 10.8577 14.5141 10.5598 14.7332 10.3402C14.9523 10.1206 15.2495 9.99725 15.5593 9.99725H25.3009C25.6108 9.99725 25.9079 10.1206 26.127 10.3402C26.3461 10.5598 26.4692 10.8577 26.4692 11.1683C26.4692 11.4788 26.3461 11.7767 26.127 11.9963C25.9079 12.2159 25.6108 12.3393 25.3009 12.3393Z" fill="white"/>
</svg>
