<?xml version="1.0" encoding="utf-8"?>
<!-- Generator: Adobe Illustrator 27.1.1, SVG Export Plug-In . SVG Version: 6.00 Build 0)  -->
<svg version="1.1" id="Layer_1" xmlns="http://www.w3.org/2000/svg" xmlns:xlink="http://www.w3.org/1999/xlink" x="0px" y="0px"
	 viewBox="0 0 128 128" style="enable-background:new 0 0 128 128;" xml:space="preserve">
<style type="text/css">
	.st0{fill:#FFFFFF;}
</style>
<g>
	<path class="st0" d="M121.8,71.7c-1.1,0.7-2,1.6-2.7,2.7c-0.8,1.3-1.2,2.8-1.1,4.4v25.1c0.1,2.6-0.5,5.1-1.5,7.4
		c-0.9,2-2.1,3.7-3.6,5.2c-1.3,1.3-2.8,2.3-4.5,3c-1.3,0.6-2.7,0.9-4.1,1h-7H30.7h-7c-1.4-0.1-2.8-0.4-4.1-1c-1.7-0.7-3.2-1.8-4.5-3
		c-1.5-1.5-2.8-3.3-3.6-5.2c-1-2.3-1.6-4.9-1.5-7.4V79.7c0.1-1.7-0.3-3.4-1.2-4.9c-0.7-1.2-1.6-2.2-2.8-3c-1-0.7-2.1-1.2-3.3-1.5
		C1.9,70,0.9,69.9,0,69.9V104c0,13.3,10.7,24,24,24h80c13.3,0,24-10.7,24-24V69.9c-1,0-1.9,0.2-2.9,0.4
		C123.9,70.6,122.8,71.1,121.8,71.7z"/>
	<path class="st0" d="M6.1,57.1c1.1-0.7,2-1.7,2.8-2.7c0.8-1.3,1.2-2.8,1.2-4.4V24.9c-0.1-2.6,0.5-5.1,1.5-7.4
		c0.9-2,2.1-3.7,3.6-5.2c1.3-1.3,2.8-2.3,4.5-3c1.3-0.6,2.7-0.9,4.1-1h7h66.6h7c1.4,0.1,2.8,0.4,4.1,1c1.7,0.7,3.2,1.8,4.5,3
		c1.5,1.5,2.8,3.3,3.6,5.2c1,2.3,1.6,4.9,1.5,7.4V49c-0.1,1.7,0.3,3.4,1.1,4.9c0.7,1.2,1.6,2.3,2.7,3c1,0.7,2.1,1.2,3.3,1.5
		c0.9,0.3,1.9,0.4,2.9,0.4V24c0-13.3-10.7-24-24-24H24C10.7,0,0,10.7,0,24v34.9c0.9,0,1.9-0.2,2.8-0.4C4,58.3,5.1,57.8,6.1,57.1z"/>
</g>
<path id="Path_9" class="st0" d="M29.5,40.7h9.9v6.6h0.3c0.8-1.1,1.6-2.2,2.6-3.2c0.9-1,1.9-1.8,3.1-2.5c1.2-0.7,2.5-1.3,3.9-1.6
	c1.7-0.4,3.4-0.6,5.1-0.6c2.8,0,5.6,0.6,8,1.9c2.5,1.3,4.3,3.4,5.3,6c1.6-2.3,3.7-4.3,6.2-5.8c2.7-1.5,5.7-2.2,8.7-2.1
	c5,0,8.9,1.2,11.7,3.7s4.2,6.6,4.2,12.3v32.8H88V60.5c0-1.9-0.1-3.6-0.2-5.2c-0.1-1.4-0.4-2.8-1.1-4c-0.6-1.1-1.5-2-2.6-2.6
	c-1.5-0.7-3.1-1-4.8-0.9c-3.6,0-6.1,1.1-7.7,3.3c-1.6,2.2-2.4,5.3-2.4,9.4v27.8H58.8V57.7c0-3.3-0.6-5.8-1.8-7.5
	c-1.2-1.7-3.4-2.5-6.6-2.5c-1.3,0-2.7,0.3-3.9,0.8c-1.3,0.6-2.4,1.4-3.3,2.4c-1,1.1-1.8,2.4-2.3,3.9C40.3,56.4,40,58.2,40,60v28.2
	H29.5V40.7z"/>
</svg>
