<svg xmlns="http://www.w3.org/2000/svg" width="170" height="25.335" viewBox="0 0 170 25.335">
  <g id="logotype-color" transform="translate(0 0.002)">
    <path id="Path_1" data-name="Path 1" d="M221.05,3h10.534a9.657,9.657,0,0,1,6.964,2.449,6.8,6.8,0,0,1,1.89,4.831v.07c0,4.06-2.8,6.439-6.648,7.139L241.312,27.5h-3.393l-7.1-9.519h-7V27.5H221.05Zm10.288,12.493c3.675,0,6.3-1.894,6.3-5.037v-.064c0-3.008-2.31-4.828-6.265-4.828h-7.559v9.931Z" transform="translate(-190.221 -2.583)" fill="#50b6d6"/>
    <path id="Path_2" data-name="Path 2" d="M402.46,3h8.507c7.7,0,13.018,5.284,13.018,12.178v.07c0,6.894-5.319,12.248-13.018,12.248H402.46Zm2.766,2.555V24.941h5.739c6.194,0,10.147-4.2,10.147-9.623v-.07c0-5.424-3.954-9.693-10.148-9.693Z" transform="translate(-346.331 -2.583)" fill="#50b6d6"/>
    <path id="Path_3" data-name="Path 3" d="M598.68,3h17.712V5.522H601.444v8.368h13.368V16.4H601.444v8.574h15.118V27.5H598.68Z" transform="translate(-515.185 -2.583)" fill="#50b6d6"/>
    <path id="Path_4" data-name="Path 4" d="M766.79,3h10.534a9.657,9.657,0,0,1,6.964,2.449,6.77,6.77,0,0,1,1.89,4.83v.07c0,4.06-2.8,6.439-6.648,7.139L787.052,27.5h-3.395l-7.1-9.517h-7V27.5H766.79Zm10.288,12.493c3.675,0,6.3-1.89,6.3-5.039v-.063c0-3.008-2.31-4.828-6.265-4.828h-7.558v9.931Z" transform="translate(-659.849 -2.583)" fill="#50b6d6"/>
    <path id="Path_5" data-name="Path 5" d="M948.2,3h2.761V24.943h13.787V27.5H948.2Z" transform="translate(-815.959 -2.583)" fill="#50b6d6"/>
    <path id="Path_6" data-name="Path 6" d="M1063.014,17.8,1052.83,3h3.36l8.259,12.248L1072.778,3H1076l-10.181,14.768V27.5h-2.8Z" transform="translate(-905.997 -2.583)" fill="#50b6d6"/>
    <path id="Path_7" data-name="Path 7" d="M41.2,32.712l1.707-1.707,3.858,3.858L57.448,24.18,59.1,25.837,46.716,38.227Z" transform="translate(-35.454 -20.809)" fill="#50b6d6"/>
    <path id="Path_8" data-name="Path 8" d="M22.116,12.666h0v.07c0,5.565-3.99,10.042-9.588,10.042S2.87,18.231,2.87,12.666V12.6c0-5.565,3.989-10.042,9.588-10.042a9.714,9.714,0,0,1,2.84.418L17.324.9a12.852,12.852,0,0,0-4.8-.9A12.41,12.41,0,0,0,0,12.666v.07a12.294,12.294,0,0,0,12.458,12.6A12.409,12.409,0,0,0,24.985,12.666Z" transform="translate(0 0)" fill="#50b6d6"/>
  </g>
</svg>
