<svg xmlns="http://www.w3.org/2000/svg" width="55.023" height="53.648" viewBox="0 0 55.023 53.648"><g transform="translate(0)"><path d="M9.744,0H45.28a9.736,9.736,0,0,1,9.744,9.744V43.9a9.736,9.736,0,0,1-9.744,9.744H9.744A9.736,9.736,0,0,1,0,43.9V9.744A9.736,9.736,0,0,1,9.744,0Z" transform="translate(0)" fill="#001e36"/></g><g transform="translate(12.38 13.641)"><path d="M54,83.481V59.89c0-.16.069-.252.229-.252.39,0,.757,0,1.284-.023.55-.023,1.123-.023,1.742-.046s1.284-.023,1.995-.046,1.4-.023,2.086-.023a13.48,13.48,0,0,1,4.723.711,8.187,8.187,0,0,1,3.072,1.88A7.3,7.3,0,0,1,70.805,64.7a8.775,8.775,0,0,1,.527,2.98,8.2,8.2,0,0,1-1.376,4.883,7.854,7.854,0,0,1-3.691,2.8,14.858,14.858,0,0,1-5.158.779c-.55,0-.917,0-1.146-.023s-.55-.023-.986-.023v7.359a.285.285,0,0,1-.252.321H54.275C54.092,83.779,54,83.687,54,83.481Zm5-19.419v7.7c.321.023.619.046.894.046h1.215a8.563,8.563,0,0,0,2.637-.413,3.943,3.943,0,0,0,1.88-1.215,3.543,3.543,0,0,0,.711-2.361,3.774,3.774,0,0,0-.527-2.04,3.325,3.325,0,0,0-1.6-1.307,6.727,6.727,0,0,0-2.705-.459c-.6,0-1.123,0-1.559.023a5.25,5.25,0,0,0-.94.023Z" transform="translate(-54 -59.5)" fill="#31a8ff"/><path d="M152.143,89.481a8.115,8.115,0,0,0-2.2-.779,12.086,12.086,0,0,0-2.568-.3,4.616,4.616,0,0,0-1.376.16,1.177,1.177,0,0,0-.711.459,1.215,1.215,0,0,0-.183.619,1.02,1.02,0,0,0,.229.6,2.587,2.587,0,0,0,.78.619c.527.275,1.078.527,1.628.757a16.605,16.605,0,0,1,3.531,1.674,5.334,5.334,0,0,1,1.811,1.9,4.95,4.95,0,0,1,.527,2.361,5.335,5.335,0,0,1-.894,3.049,5.745,5.745,0,0,1-2.568,2.04,10.5,10.5,0,0,1-4.15.734,15.792,15.792,0,0,1-3.118-.3,9.248,9.248,0,0,1-2.339-.734.451.451,0,0,1-.252-.436V97.918a.249.249,0,0,1,.092-.206.175.175,0,0,1,.206.023,9.814,9.814,0,0,0,2.843,1.123,10.673,10.673,0,0,0,2.705.344,4.376,4.376,0,0,0,1.9-.321,1.065,1.065,0,0,0,.619-.963,1.215,1.215,0,0,0-.55-.917,9.723,9.723,0,0,0-2.247-1.078,14.027,14.027,0,0,1-3.256-1.651,5.936,5.936,0,0,1-1.742-1.949,4.919,4.919,0,0,1-.527-2.338,5.392,5.392,0,0,1,.779-2.774,5.651,5.651,0,0,1,2.407-2.109,8.89,8.89,0,0,1,4.058-.8,19.765,19.765,0,0,1,2.843.206,8.067,8.067,0,0,1,1.972.527.4.4,0,0,1,.229.206,1.151,1.151,0,0,1,.046.275v3.737a.282.282,0,0,1-.115.229A.611.611,0,0,1,152.143,89.481Z" transform="translate(-120.505 -78.614)" fill="#31a8ff"/></g></svg>