<?xml version="1.0" encoding="utf-8"?>
<!-- Generator: Adobe Illustrator 19.0.0, SVG Export Plug-In . SVG Version: 6.00 Build 0)  -->
<svg version="1.1" id="Layer_4" xmlns="http://www.w3.org/2000/svg" xmlns:xlink="http://www.w3.org/1999/xlink" x="0px" y="0px"
	 viewBox="0 0 334.7 144.1" style="enable-background:new 0 0 334.7 144.1;" xml:space="preserve">
<style type="text/css">
	.st0{fill:#FFFFFF;}
</style>
<g id="XMLID_22_">
	<path id="XMLID_30_" class="st0" d="M101.6,13.9c3,0,2.3,5.2,2.3,5.2v111.4H79.4V107l-12.9,23.6H38.8l16.5-29.3
		c-4.5-1.6-16.1-3.6-29.9-13.2C16.4,81.7,12.2,73,13.7,55.9C15.5,34.8,35.3,33.8,39,33.8c0.4,0,0.6,0,0.6,0h40.3
		c0,0,7.7-7.7,13.5-14.2C97.5,15.3,100.1,13.9,101.6,13.9 M72.4,55.9c1.9,0,3.4-1.5,3.4-3.4c0-1.9-1.5-3.4-3.4-3.4
		c-1.9,0-3.4,1.5-3.4,3.4C69.1,54.4,70.6,55.9,72.4,55.9 M101.6,1.9c-6.9,0-12.4,4.8-16.9,9.4c-0.1,0.1-0.2,0.2-0.3,0.3
		c-3.2,3.5-6.9,7.4-9.6,10.2H39.8c-0.2,0-0.5,0-0.8,0C21.8,21.8,3.7,32,1.7,54.9C0,75.3,5.2,88.6,18.7,97.9c7,4.9,13.6,8,19,10.2
		l-9.3,16.5c-2.1,3.7-2.1,8.3,0.1,11.9c2.2,3.7,6.1,5.9,10.4,5.9h27.6c2.3,0,4.6-0.7,6.5-1.9c1.9,1.2,4.1,1.9,6.5,1.9h24.6
		c6.6,0,12-5.4,12-12V19.7c0.2-3,0.1-8.7-3.8-13.1C109.5,3.6,105.7,1.9,101.6,1.9L101.6,1.9z"/>
	<g id="XMLID_55_">
		<path id="XMLID_24_" class="st0" d="M133.4,54.7l0.8-0.8c3.6,3.5,8.2,5.5,13.4,5.5c6.7,0,11-3.6,11-8.4v-0.1
			c0-4.4-2.6-6.7-11.7-8.6c-8.8-1.8-12.2-4.4-12.2-9.4v-0.1c0-5,4.9-9.1,11.6-9.1c4.7,0,8.9,1.6,12.1,4.1l-0.7,0.9
			c-3.2-2.4-7.1-4-11.5-4c-6.3,0-10.4,3.9-10.4,8v0.1c0,4.3,2.8,6.6,11.5,8.4c9.3,1.9,12.3,4.7,12.3,9.5v0.1c0,5.3-4.6,9.5-12.2,9.5
			C142.1,60.4,137.2,58.3,133.4,54.7z"/>
		<path id="XMLID_54_" class="st0" d="M147.5,61.9c-5.7,0-10.9-2.1-15.1-6.1l-1.1-1.1l3-2.9l1.1,1c3.4,3.3,7.7,5.1,12.4,5.1
			c5.6,0,9.5-2.8,9.5-6.9v-0.1c0-2.7-0.8-5.1-10.5-7.1c-6.9-1.4-13.4-3.7-13.4-10.8v-0.1c0-6,5.8-10.6,13.1-10.6
			c4.8,0,9.3,1.5,13,4.4l1.2,0.9l-2.6,3.3l-1.2-0.9c-2.2-1.7-5.8-3.7-10.6-3.7c-5.6,0-8.9,3.3-8.9,6.5v0.1c0,2.6,0.8,5,10.3,6.9
			c9.6,2,13.5,5.1,13.5,11v0.1C161.2,57.4,155.6,61.9,147.5,61.9z"/>
	</g>
	<g id="XMLID_53_">
		<path id="XMLID_26_" class="st0" d="M195.5,25.3h-12.9v-1h26.9v1h-12.9v34.6h-1.1V25.3z"/>
		<polygon id="XMLID_37_" class="st0" points="198.1,61.4 194,61.4 194,26.8 181.1,26.8 181.1,22.8 211,22.8 211,26.8 198.1,26.8 		
			"/>
	</g>
	<g id="XMLID_52_">
		<path id="XMLID_40_" class="st0" d="M248.3,24h1l17.2,35.9h-1.2l-5.1-10.7h-22.7l-5.1,10.7h-1.2L248.3,24z M259.6,48.2l-10.8-22.7
			l-10.8,22.7H259.6z"/>
		<path id="XMLID_49_" class="st0" d="M249,22.5h1.2l18.6,38.9h-4.5l-5.1-10.7h-20.8l-5.1,10.7h-4.5l18.6-38.9h1.2 M240.3,46.7h16.9
			L248.7,29L240.3,46.7z"/>
	</g>
	<g id="XMLID_47_">
		<path id="XMLID_1_" class="st0" d="M301.8,45l-15.1-20.7h1.3L302.4,44l14.2-19.8h1.3l-15,20.7v14.9h-1.1V45z"/>
		<polygon id="XMLID_46_" class="st0" points="304.4,61.4 300.3,61.4 300.3,45.5 283.8,22.8 288.8,22.8 302.4,41.5 315.9,22.8 
			320.9,22.8 304.4,45.5 		"/>
	</g>
	<g id="XMLID_2_">
		<path id="XMLID_3_" class="st0" d="M120.1,104.5c0-8.7,0.2-14.5,0.7-17.4c0.5-2.9,1.3-5.3,2.4-7.1c1.7-3.4,4.6-6.5,8.4-9.2
			c3.8-2.7,8.5-4.1,14.2-4.2c5.7,0.1,10.5,1.5,14.4,4.2c3.8,2.7,6.5,5.8,8.2,9.2c1.2,1.8,2.1,4.2,2.5,7.1c0.4,2.9,0.6,8.7,0.6,17.4
			c0,8.5-0.2,14.3-0.6,17.3c-0.5,3-1.3,5.4-2.5,7.2c-1.7,3.4-4.4,6.5-8.2,9.1c-3.8,2.7-8.6,4.2-14.3,4.3c-5.7-0.1-10.4-1.6-14.2-4.3
			c-3.9-2.6-6.7-5.7-8.4-9.1c-0.5-1.1-1-2.2-1.4-3.2c-0.4-1.1-0.7-2.4-1-4C120.4,118.8,120.1,113,120.1,104.5z M131.1,104.5
			c0,7.3,0.3,12.3,0.8,14.9c0.5,2.6,1.4,4.7,2.8,6.3c1.2,1.5,2.7,2.8,4.6,3.7c1.9,1.1,4.1,1.7,6.6,1.7c2.6,0,4.9-0.6,6.8-1.7
			c1.8-1,3.3-2.2,4.4-3.7c1.4-1.6,2.4-3.7,2.9-6.3c0.5-2.6,0.7-7.6,0.7-14.9c0-7.3-0.2-12.3-0.7-15c-0.5-2.5-1.5-4.6-2.9-6.2
			c-1.1-1.5-2.5-2.8-4.4-3.8c-1.9-1-4.2-1.5-6.8-1.6c-2.6,0.1-4.8,0.6-6.6,1.6c-1.9,1-3.4,2.3-4.6,3.8c-1.4,1.6-2.4,3.7-2.8,6.2
			C131.3,92.1,131.1,97.1,131.1,104.5z"/>
		<path id="XMLID_6_" class="st0" d="M168.5,67.2H180l16.4,56.8h0.2L213,67.2h11.6l-23.8,74.5h-8.5L168.5,67.2z"/>
		<path id="XMLID_16_" class="st0" d="M226.3,67.2h46.1v10.6h-35.2v21.3h30v10h-30v21.9h35.2v10.6h-46.1V67.2z"/>
		<path id="XMLID_18_" class="st0" d="M276.7,67.2h28.2c6,0,10.9,1.6,14.7,4.9c4.6,3.7,7,9,7.2,15.9c-0.1,10.1-4.8,17-13.9,20.6
			l16.7,33.1h-13l-14.9-31.8h-14v31.8h-10.9V67.2z M287.6,99.9h16.6c4.1-0.1,7.2-1.3,9.2-3.7c2-2.2,3-5,3-8.2
			c-0.1-3.9-1.3-6.7-3.6-8.5c-1.9-1.5-4.5-2.3-8-2.3h-17.2V99.9z"/>
	</g>
</g>
</svg>
