<svg xmlns="http://www.w3.org/2000/svg" width="55.023" height="49.788" viewBox="0 0 55.023 49.788"><g transform="translate(0)"><path d="M11.143,0,27.509,32.034,0,0Z" transform="translate(0 17.753)" fill="#ea6c00" fill-rule="evenodd"/><path d="M11.143,32.034,27.509,0,0,32.034Z" transform="translate(55.023 49.788) rotate(180)" fill="#ea6c00" fill-rule="evenodd"/><path d="M0,0H32.733L16.367,32.034Z" transform="translate(11.142 17.753)" fill="#fdad00" fill-rule="evenodd"/><path d="M16.367,0,.861,1.639,0,17.753Z" transform="translate(11.142 0)" fill="#fdd231" fill-rule="evenodd"/><path d="M16.367,17.753.861,16.114,0,0Z" transform="translate(43.875 17.753) rotate(180)" fill="#fdd231" fill-rule="evenodd"/><path d="M0,0,12,16.114,11.143,0Z" transform="translate(55.023 17.753) rotate(180)" fill="#fdad00" fill-rule="evenodd"/><path d="M0,16.114,12,0l-.861,16.114Z" transform="translate(0 1.639)" fill="#fdad00" fill-rule="evenodd"/><path d="M16.367,0,0,17.753H32.733Z" transform="translate(11.142 0)" fill="#feeeb7" fill-rule="evenodd"/></g></svg>