<svg xmlns="http://www.w3.org/2000/svg" width="467.784" height="42.47" viewBox="0 0 467.784 42.47"><path d="M29-40.484v6.554H12.122v10.382H25.056v6.438H12.122V0H4V-40.484ZM62.35-7.714H46.226L43.558,0H35.032L49.59-40.542h9.454L73.6,0H65.018Zm-2.2-6.5L54.288-31.146,48.43-14.21Zm44.66-6.554a9.1,9.1,0,0,1,5.626,3.422,9.994,9.994,0,0,1,2.2,6.38,10.282,10.282,0,0,1-1.6,5.713,10.622,10.622,0,0,1-4.611,3.857A16.893,16.893,0,0,1,99.3,0H81.838V-40.484h16.7a17.323,17.323,0,0,1,7.1,1.334,10.117,10.117,0,0,1,4.524,3.712,9.719,9.719,0,0,1,1.537,5.394,9.226,9.226,0,0,1-1.885,5.916A10.085,10.085,0,0,1,104.806-20.764ZM89.958-23.78h7.424a6.8,6.8,0,0,0,4.466-1.305,4.6,4.6,0,0,0,1.566-3.741,4.682,4.682,0,0,0-1.566-3.77,6.694,6.694,0,0,0-4.466-1.334H89.958ZM98.136-6.612A6.949,6.949,0,0,0,102.747-8a4.871,4.871,0,0,0,1.653-3.944,5.079,5.079,0,0,0-1.74-4.089,7.016,7.016,0,0,0-4.7-1.479h-8v10.9Zm31.9-33.872V0h-8.12V-40.484ZM159.616.406a20.975,20.975,0,0,1-10.44-2.668,19.919,19.919,0,0,1-7.54-7.4,20.687,20.687,0,0,1-2.784-10.7A20.576,20.576,0,0,1,141.636-31a19.919,19.919,0,0,1,7.54-7.4,20.975,20.975,0,0,1,10.44-2.668A20.928,20.928,0,0,1,170.085-38.4a19.767,19.767,0,0,1,7.482,7.4,20.743,20.743,0,0,1,2.755,10.643,20.856,20.856,0,0,1-2.755,10.7,19.707,19.707,0,0,1-7.511,7.4A20.975,20.975,0,0,1,159.616.406Zm0-7.25A12.369,12.369,0,0,0,166.054-8.5a11.331,11.331,0,0,0,4.35-4.727,15.511,15.511,0,0,0,1.566-7.134,15.332,15.332,0,0,0-1.566-7.105,11.177,11.177,0,0,0-4.35-4.669,12.542,12.542,0,0,0-6.438-1.624,12.7,12.7,0,0,0-6.467,1.624,11.121,11.121,0,0,0-4.379,4.669,15.332,15.332,0,0,0-1.566,7.105,15.511,15.511,0,0,0,1.566,7.134A11.272,11.272,0,0,0,153.149-8.5,12.525,12.525,0,0,0,159.616-6.844ZM247.254-40.02V0h-4.06V-31.958L228.926,0h-2.958L211.7-31.842V0h-4.06V-40.02h4.292L227.418-5.336,242.9-40.02ZM277.472.406a20.083,20.083,0,0,1-10.208-2.639A19.028,19.028,0,0,1,260.043-9.6,21.574,21.574,0,0,1,257.4-20.3,21.574,21.574,0,0,1,260.043-31a19.028,19.028,0,0,1,7.221-7.366,20.083,20.083,0,0,1,10.208-2.639,20.2,20.2,0,0,1,10.266,2.639A18.824,18.824,0,0,1,294.93-31a21.765,21.765,0,0,1,2.61,10.7,21.765,21.765,0,0,1-2.61,10.7,18.824,18.824,0,0,1-7.192,7.366A20.2,20.2,0,0,1,277.472.406Zm0-3.538a15.872,15.872,0,0,0,8.12-2.088,14.824,14.824,0,0,0,5.684-6,19,19,0,0,0,2.088-9.077,18.831,18.831,0,0,0-2.088-9.048,14.868,14.868,0,0,0-5.684-5.974,15.872,15.872,0,0,0-8.12-2.088,15.872,15.872,0,0,0-8.12,2.088,14.868,14.868,0,0,0-5.684,5.974A18.831,18.831,0,0,0,261.58-20.3a19,19,0,0,0,2.088,9.077,14.824,14.824,0,0,0,5.684,6A15.872,15.872,0,0,0,277.472-3.132ZM338.314,0h-4.06L311.808-34.1V0h-4.06V-40.542h4.06L334.254-6.5V-40.542h4.06ZM352.93-3.6h20.706V0H348.174V-3.248l20.416-33.7H348.522v-3.6h24.824v3.248Zm54.114-6.032H388.6L385.062,0H380.77l14.79-40.02h4.582L414.874,0h-4.292Zm-1.218-3.364-8-21.924-8,21.924ZM454.72,0h-4.06L428.214-34.1V0h-4.06V-40.542h4.06L450.66-6.5V-40.542h4.06Zm16.066-40.542V0h-4.06V-40.542Z" transform="translate(-3.502 41.564)" fill="none" stroke="#fff" stroke-width="1"/></svg>