<svg xmlns="http://www.w3.org/2000/svg" width="641.09" height="67.529" viewBox="0 0 641.09 67.529"><path d="M42.039-56.862v11.1H18.873v11.988H36.207V-23H18.873V0H5.022V-56.862ZM50.463-22.68A27.013,27.013,0,0,1,53.1-34.911a19.636,19.636,0,0,1,7.168-8.1,18.715,18.715,0,0,1,10.125-2.835A17.393,17.393,0,0,1,78.772-43.9a14.32,14.32,0,0,1,5.549,5.1v-6.4H98.172V0H84.321V-6.4a14.957,14.957,0,0,1-5.63,5.1A17.393,17.393,0,0,1,70.308.648,18.378,18.378,0,0,1,60.264-2.227,19.87,19.87,0,0,1,53.1-10.408,27.269,27.269,0,0,1,50.463-22.68Zm33.858.081a11.325,11.325,0,0,0-2.876-8.181,9.342,9.342,0,0,0-7.007-3,9.4,9.4,0,0,0-7.007,2.957q-2.875,2.956-2.875,8.14a11.47,11.47,0,0,0,2.875,8.222,9.284,9.284,0,0,0,7.007,3.037,9.342,9.342,0,0,0,7.007-3A11.325,11.325,0,0,0,84.321-22.6Zm41.634-16.2a14.254,14.254,0,0,1,5.589-5.1,17.455,17.455,0,0,1,8.343-1.944,18.715,18.715,0,0,1,10.125,2.835,19.636,19.636,0,0,1,7.169,8.1,27.013,27.013,0,0,1,2.633,12.231,27.269,27.269,0,0,1-2.633,12.272,19.87,19.87,0,0,1-7.169,8.181A18.519,18.519,0,0,1,139.887.648a17.454,17.454,0,0,1-8.343-1.9,14.719,14.719,0,0,1-5.589-5.063V0H112.1V-59.94h13.851ZM145.719-22.68q0-5.184-2.875-8.14a9.5,9.5,0,0,0-7.088-2.957,9.342,9.342,0,0,0-7.007,3,11.325,11.325,0,0,0-2.875,8.181,11.325,11.325,0,0,0,2.875,8.181,9.342,9.342,0,0,0,7.007,3,9.412,9.412,0,0,0,7.047-3.037A11.375,11.375,0,0,0,145.719-22.68ZM177.957-49.9A8.4,8.4,0,0,1,172-52.042a6.955,6.955,0,0,1-2.309-5.306A7.046,7.046,0,0,1,172-62.735a8.4,8.4,0,0,1,5.954-2.146,8.285,8.285,0,0,1,5.872,2.146,7.046,7.046,0,0,1,2.309,5.387,6.955,6.955,0,0,1-2.309,5.306A8.285,8.285,0,0,1,177.957-49.9Zm6.885,4.7V0H170.991V-45.2ZM219.348.648A24.948,24.948,0,0,1,207.4-2.187a20.759,20.759,0,0,1-8.343-8.1A24.2,24.2,0,0,1,196.02-22.6,24.009,24.009,0,0,1,199.1-34.87a20.885,20.885,0,0,1,8.424-8.141,25.186,25.186,0,0,1,11.988-2.835A25.186,25.186,0,0,1,231.5-43.011a20.885,20.885,0,0,1,8.424,8.141A24.009,24.009,0,0,1,243-22.6a23.764,23.764,0,0,1-3.118,12.272,21.088,21.088,0,0,1-8.505,8.14A25.426,25.426,0,0,1,219.348.648Zm0-11.988a9.023,9.023,0,0,0,6.764-2.916q2.795-2.916,2.795-8.343t-2.714-8.343a8.769,8.769,0,0,0-6.683-2.916,8.79,8.79,0,0,0-6.723,2.876q-2.673,2.875-2.673,8.383,0,5.427,2.633,8.343A8.52,8.52,0,0,0,219.348-11.34ZM339.714-56.862V0H325.863V-34.1L313.146,0H301.968l-12.8-34.182V0H275.319V-56.862h16.362L307.638-17.5l15.795-39.366ZM374.139.648a24.948,24.948,0,0,1-11.948-2.835,20.759,20.759,0,0,1-8.343-8.1A24.2,24.2,0,0,1,350.811-22.6a24.009,24.009,0,0,1,3.078-12.271,20.885,20.885,0,0,1,8.424-8.141A25.186,25.186,0,0,1,374.3-45.846a25.186,25.186,0,0,1,11.988,2.835,20.885,20.885,0,0,1,8.424,8.141A24.009,24.009,0,0,1,397.791-22.6a23.764,23.764,0,0,1-3.118,12.272,21.087,21.087,0,0,1-8.5,8.14A25.426,25.426,0,0,1,374.139.648Zm0-11.988a9.023,9.023,0,0,0,6.763-2.916Q383.7-17.172,383.7-22.6t-2.714-8.343a8.769,8.769,0,0,0-6.682-2.916,8.79,8.79,0,0,0-6.723,2.876Q364.9-28.107,364.9-22.6q0,5.427,2.633,8.343A8.52,8.52,0,0,0,374.139-11.34ZM436.59-45.684q7.938,0,12.676,5.144t4.738,14.135V0h-13.77V-24.543a9.919,9.919,0,0,0-2.349-7.047,8.236,8.236,0,0,0-6.318-2.511,8.237,8.237,0,0,0-6.318,2.511,9.919,9.919,0,0,0-2.349,7.047V0H409.05V-45.2H422.9V-39.2a14.613,14.613,0,0,1,5.67-4.739A18.026,18.026,0,0,1,436.59-45.684Zm43.9,34.263h19.6V0H465.021V-11.016l18.792-22.761h-18.63V-45.2h34.506v11.016Zm28.35-11.259a27.013,27.013,0,0,1,2.633-12.231,19.636,19.636,0,0,1,7.168-8.1,18.715,18.715,0,0,1,10.125-2.835,17.394,17.394,0,0,1,8.383,1.944,14.32,14.32,0,0,1,5.549,5.1v-6.4h13.851V0H542.7V-6.4a14.958,14.958,0,0,1-5.63,5.1A17.394,17.394,0,0,1,528.687.648a18.378,18.378,0,0,1-10.044-2.875,19.87,19.87,0,0,1-7.168-8.181A27.269,27.269,0,0,1,508.842-22.68ZM542.7-22.6a11.325,11.325,0,0,0-2.875-8.181,9.343,9.343,0,0,0-7.007-3,9.4,9.4,0,0,0-7.006,2.957q-2.875,2.956-2.875,8.14a11.47,11.47,0,0,0,2.875,8.222,9.284,9.284,0,0,0,7.006,3.037,9.343,9.343,0,0,0,7.007-3A11.325,11.325,0,0,0,542.7-22.6Zm55.323-23.085q7.938,0,12.677,5.144t4.738,14.135V0h-13.77V-24.543a9.919,9.919,0,0,0-2.349-7.047A8.236,8.236,0,0,0,593-34.1a8.236,8.236,0,0,0-6.318,2.511,9.919,9.919,0,0,0-2.349,7.047V0H570.483V-45.2h13.851V-39.2A14.612,14.612,0,0,1,590-43.943,18.025,18.025,0,0,1,598.023-45.684ZM635.931-49.9a8.4,8.4,0,0,1-5.953-2.146,6.955,6.955,0,0,1-2.308-5.306,7.046,7.046,0,0,1,2.308-5.387,8.4,8.4,0,0,1,5.953-2.146,8.284,8.284,0,0,1,5.872,2.146,7.046,7.046,0,0,1,2.309,5.387,6.955,6.955,0,0,1-2.309,5.306A8.284,8.284,0,0,1,635.931-49.9Zm6.885,4.7V0H628.965V-45.2Z" transform="translate(-4.022 65.881)" fill="none" stroke="#f4f4f4" stroke-width="2"/></svg>