<svg xmlns="http://www.w3.org/2000/svg" width="626.186" height="65.099" viewBox="0 0 626.186 65.099"><path d="M39.2-56.295v7.533H15.309v16.6h18.63v7.533H15.309V0H6.075V-56.295Zm9.4,33.777a24.7,24.7,0,0,1,2.794-11.907,20.483,20.483,0,0,1,7.614-8.06A20.4,20.4,0,0,1,69.66-45.36a19.483,19.483,0,0,1,9.193,2.066,18.657,18.657,0,0,1,6.277,5.144v-6.48h9.315V0H85.131V-6.642a18.339,18.339,0,0,1-6.4,5.265A19.721,19.721,0,0,1,69.5.729a19.625,19.625,0,0,1-10.53-2.956,20.967,20.967,0,0,1-7.574-8.262A25.416,25.416,0,0,1,48.6-22.518Zm36.531.162a16.161,16.161,0,0,0-1.9-8.019,13.362,13.362,0,0,0-4.981-5.184A13.033,13.033,0,0,0,71.6-37.341,13.266,13.266,0,0,0,64.962-35.6a13.134,13.134,0,0,0-4.981,5.1,15.932,15.932,0,0,0-1.9,7.979,16.625,16.625,0,0,0,1.9,8.1A13.43,13.43,0,0,0,65-9.113,12.881,12.881,0,0,0,71.6-7.29a13.033,13.033,0,0,0,6.642-1.782A13.3,13.3,0,0,0,83.228-14.3,16.392,16.392,0,0,0,85.131-22.356Zm34.587-15.633a17.514,17.514,0,0,1,6.44-5.305,19.927,19.927,0,0,1,9.112-2.066,20.558,20.558,0,0,1,10.692,2.835,19.943,19.943,0,0,1,7.533,8.059,25.236,25.236,0,0,1,2.754,11.948,25.722,25.722,0,0,1-2.754,12.028,20.581,20.581,0,0,1-7.574,8.262A19.974,19.974,0,0,1,135.27.729,20.119,20.119,0,0,1,126.076-1.3a17.673,17.673,0,0,1-6.359-5.184V0h-9.234V-59.94h9.234Zm27.135,15.471a15.932,15.932,0,0,0-1.9-7.979,13.045,13.045,0,0,0-5.022-5.1,13.49,13.49,0,0,0-6.682-1.742,13.1,13.1,0,0,0-6.6,1.782,13.268,13.268,0,0,0-5.022,5.184,16.161,16.161,0,0,0-1.9,8.019,16.392,16.392,0,0,0,1.9,8.059,13.2,13.2,0,0,0,5.022,5.224,13.1,13.1,0,0,0,6.6,1.782,13.025,13.025,0,0,0,6.682-1.822,13.43,13.43,0,0,0,5.022-5.306A16.626,16.626,0,0,0,146.853-22.518Zm27.135-28.026a5.72,5.72,0,0,1-4.212-1.7,5.721,5.721,0,0,1-1.7-4.212,5.721,5.721,0,0,1,1.7-4.212,5.72,5.72,0,0,1,4.212-1.7,5.624,5.624,0,0,1,4.131,1.7,5.721,5.721,0,0,1,1.7,4.212,5.721,5.721,0,0,1-1.7,4.212A5.624,5.624,0,0,1,173.988-50.544Zm4.536,5.913V0H169.29V-44.631Zm35.4,45.36A22.857,22.857,0,0,1,202.5-2.146a20.656,20.656,0,0,1-8.019-8.1,24.433,24.433,0,0,1-2.916-12.109,23.965,23.965,0,0,1,3-12.069,20.7,20.7,0,0,1,8.181-8.1,23.739,23.739,0,0,1,11.583-2.835,23.739,23.739,0,0,1,11.583,2.835,20.7,20.7,0,0,1,8.181,8.1,23.965,23.965,0,0,1,3,12.069,23.467,23.467,0,0,1-3.078,12.069,21.313,21.313,0,0,1-8.383,8.141A24.164,24.164,0,0,1,213.921.729Zm0-8.019a13.741,13.741,0,0,0,6.682-1.7,12.961,12.961,0,0,0,5.063-5.1,16.406,16.406,0,0,0,1.944-8.262,16.748,16.748,0,0,0-1.863-8.222,12.577,12.577,0,0,0-4.941-5.062,13.513,13.513,0,0,0-6.642-1.7,13.287,13.287,0,0,0-6.6,1.7,12.142,12.142,0,0,0-4.82,5.062,17.373,17.373,0,0,0-1.782,8.222q0,7.209,3.686,11.137A12.178,12.178,0,0,0,213.921-7.29Zm120.447-49V0h-9.234V-38.556L307.962,0h-6.4L284.31-38.556V0h-9.234V-56.295h9.963L304.8-12.15l19.683-44.145ZM369.765.729a22.857,22.857,0,0,1-11.421-2.875,20.656,20.656,0,0,1-8.019-8.1,24.433,24.433,0,0,1-2.916-12.109,23.965,23.965,0,0,1,3-12.069,20.7,20.7,0,0,1,8.181-8.1A23.739,23.739,0,0,1,370.17-45.36a23.739,23.739,0,0,1,11.583,2.835,20.7,20.7,0,0,1,8.181,8.1,23.965,23.965,0,0,1,3,12.069,23.467,23.467,0,0,1-3.078,12.069,21.313,21.313,0,0,1-8.384,8.141A24.164,24.164,0,0,1,369.765.729Zm0-8.019a13.741,13.741,0,0,0,6.683-1.7,12.961,12.961,0,0,0,5.063-5.1,16.406,16.406,0,0,0,1.944-8.262,16.748,16.748,0,0,0-1.863-8.222,12.577,12.577,0,0,0-4.941-5.062,13.512,13.512,0,0,0-6.642-1.7,13.287,13.287,0,0,0-6.6,1.7,12.142,12.142,0,0,0-4.819,5.062,17.373,17.373,0,0,0-1.782,8.222q0,7.209,3.685,11.137A12.178,12.178,0,0,0,369.765-7.29ZM428.49-45.36a20.014,20.014,0,0,1,9.437,2.187,15.553,15.553,0,0,1,6.52,6.48A21.316,21.316,0,0,1,446.8-26.325V0h-9.153V-24.948q0-5.994-3-9.193a10.666,10.666,0,0,0-8.181-3.2,10.8,10.8,0,0,0-8.221,3.2q-3.037,3.2-3.038,9.193V0h-9.234V-44.631h9.234v5.1A15.285,15.285,0,0,1,421-43.821,18.514,18.514,0,0,1,428.49-45.36ZM470.61-7.533h20.25V0H459.918V-7.533L480.249-37.1H459.918v-7.533H490.86V-37.1Zm30.78-14.985a24.7,24.7,0,0,1,2.794-11.907,20.483,20.483,0,0,1,7.614-8.06A20.4,20.4,0,0,1,522.45-45.36a19.483,19.483,0,0,1,9.193,2.066,18.656,18.656,0,0,1,6.278,5.144v-6.48h9.315V0h-9.315V-6.642a18.338,18.338,0,0,1-6.4,5.265A19.721,19.721,0,0,1,522.288.729a19.625,19.625,0,0,1-10.53-2.956,20.967,20.967,0,0,1-7.573-8.262A25.416,25.416,0,0,1,501.39-22.518Zm36.531.162a16.161,16.161,0,0,0-1.9-8.019,13.362,13.362,0,0,0-4.982-5.184,13.033,13.033,0,0,0-6.642-1.782,13.266,13.266,0,0,0-6.642,1.742,13.133,13.133,0,0,0-4.982,5.1,15.932,15.932,0,0,0-1.9,7.979,16.625,16.625,0,0,0,1.9,8.1,13.43,13.43,0,0,0,5.022,5.306,12.881,12.881,0,0,0,6.6,1.822,13.033,13.033,0,0,0,6.642-1.782,13.3,13.3,0,0,0,4.982-5.224A16.392,16.392,0,0,0,537.921-22.356Zm47.871-23a20.014,20.014,0,0,1,9.436,2.187,15.553,15.553,0,0,1,6.521,6.48A21.317,21.317,0,0,1,604.1-26.325V0h-9.153V-24.948q0-5.994-3-9.193a10.666,10.666,0,0,0-8.181-3.2,10.8,10.8,0,0,0-8.221,3.2q-3.037,3.2-3.037,9.193V0h-9.234V-44.631h9.234v5.1a15.285,15.285,0,0,1,5.792-4.293A18.514,18.514,0,0,1,585.792-45.36Zm38.637-5.184a5.721,5.721,0,0,1-4.212-1.7,5.721,5.721,0,0,1-1.7-4.212,5.721,5.721,0,0,1,1.7-4.212,5.721,5.721,0,0,1,4.212-1.7,5.624,5.624,0,0,1,4.131,1.7,5.721,5.721,0,0,1,1.7,4.212,5.721,5.721,0,0,1-1.7,4.212A5.624,5.624,0,0,1,624.429-50.544Zm4.536,5.913V0h-9.234V-44.631Z" transform="translate(-5.075 63.37)" fill="none" stroke="#f4f4f4" stroke-width="2"/></svg>