<svg xmlns="http://www.w3.org/2000/svg" xmlns:xlink="http://www.w3.org/1999/xlink" width="567.335" height="332.43" viewBox="0 0 567.335 332.43"><defs><linearGradient id="a" x1="0.918" y1="1.952" x2="0.282" y2="1.538" gradientUnits="objectBoundingBox"><stop offset="0.18" stop-color="#0052cc"/><stop offset="1" stop-color="#2684ff"/></linearGradient><linearGradient id="b" x1="0.087" y1="-0.233" x2="0.722" y2="0.179" xlink:href="#a"/></defs><g transform="translate(-668 -469.554)"><g transform="translate(873 469.554)"><g transform="translate(0)"><path d="M11.827,0H43.162A11.761,11.761,0,0,1,54.989,11.827V41.821A11.761,11.761,0,0,1,43.162,53.648H11.827A11.761,11.761,0,0,1,0,41.821H0V11.827A11.761,11.761,0,0,1,11.827,0Z" fill="#470137"/></g><g transform="translate(8.011 11.744)"><g transform="translate(0 1.99)"><path d="M20.971.366,14.144,11.7l7.316,12.071v.244c0,.122-.122,0-.244,0H15.972c-.366,0-.61,0-.732-.244-.488-.975-.975-1.951-1.463-2.8-.488-.975-.975-1.951-1.585-2.926s-1.219-1.951-1.707-2.926h0C10,16.094,9.51,17.07,8.9,18.045S7.8,20,7.316,20.971s-1.1,1.951-1.585,2.926c-.122.244-.244.244-.488.244H0V23.9l7.072-11.7L.244.366C.122.244.122.244.244.122.244,0,.366,0,.488,0H6.1c0,.122,0,.122.122.244A16.389,16.389,0,0,0,7.681,3.17c.488.975,1.1,1.951,1.585,2.926.61.975,1.1,1.951,1.585,2.926h0L12.315,6.1c.488-.975.975-1.951,1.585-2.926.488-.975,1.1-1.951,1.585-2.926,0-.122.122-.122.122-.244h5.121c.122,0,.244,0,.244.122h0V.366Z" transform="translate(0 0)" fill="#ff61f6"/></g><g transform="translate(21.977)"><path d="M9.614,26.58A12.889,12.889,0,0,1,4.737,25.6a6.651,6.651,0,0,1-3.414-3.17A9.8,9.8,0,0,1,.1,17.192a9.662,9.662,0,0,1,1.219-4.877A9.288,9.288,0,0,1,4.98,8.779a12.143,12.143,0,0,1,5.852-1.341h1.219V.122c-.122,0-.122-.122,0-.122h4.633c.122,0,.244,0,.244.122h0V23.288c0,.488.122.975.122,1.341,0,.122-.122.244-.244.366a19.3,19.3,0,0,1-3.78,1.1A10.054,10.054,0,0,1,9.614,26.58Zm2.195-4.633V11.827c-.244,0-.366-.122-.61-.122h-.732a6.084,6.084,0,0,0-2.56.61,5.219,5.219,0,0,0-1.951,1.707,4.781,4.781,0,0,0-.732,2.926,7.1,7.1,0,0,0,.366,2.317,5.011,5.011,0,0,0,.975,1.585,6.913,6.913,0,0,0,1.585.975,5.054,5.054,0,0,0,1.951.244h.975a1.546,1.546,0,0,0,.732-.122Z" transform="translate(-0.085)" fill="#ff61f6"/></g></g></g><g transform="translate(975 470.013)"><g transform="translate(0 0)"><path d="M17.744,4H53.28a9.736,9.736,0,0,1,9.744,9.744V47.9a9.736,9.736,0,0,1-9.744,9.744H17.744A9.736,9.736,0,0,1,8,47.9V13.744A9.736,9.736,0,0,1,17.744,4Z" transform="translate(-8 -4)" fill="#49021f"/></g><g transform="translate(14.879 11.758)"><path d="M78.013,64.186V87.709c0,.252-.115.367-.321.367H73.2c-.206,0-.3-.115-.3-.367V64.186c0-.206.115-.3.321-.3h4.471a.259.259,0,0,1,.3.229A.084.084,0,0,1,78.013,64.186Z" transform="translate(-72.9 -61.913)" fill="#f36"/><path d="M120.349,81.814a11.4,11.4,0,0,1-4.929-1.032,7.993,7.993,0,0,1-3.462-3.118,9.92,9.92,0,0,1-1.261-5.227,9.416,9.416,0,0,1,1.261-4.837,9.521,9.521,0,0,1,3.645-3.554,11.727,11.727,0,0,1,5.8-1.33,4.094,4.094,0,0,1,.481.023c.206.023.436.023.711.046V55.54c0-.16.069-.252.229-.252h4.654a.206.206,0,0,1,.229.16V77.32c0,.413.023.871.046,1.376.046.481.069.94.092,1.33a.372.372,0,0,1-.229.367,17.509,17.509,0,0,1-3.737,1.1A20.022,20.022,0,0,1,120.349,81.814Zm2.247-4.585V67.141a5.864,5.864,0,0,0-.619-.115c-.252-.023-.5-.046-.757-.046a5.652,5.652,0,0,0-2.591.6,5.14,5.14,0,0,0-1.949,1.7,5.082,5.082,0,0,0-.757,2.912,6.389,6.389,0,0,0,.39,2.361,4.481,4.481,0,0,0,1.032,1.628,3.961,3.961,0,0,0,1.559.917,6,6,0,0,0,1.9.3c.344,0,.665-.023.963-.046A1.952,1.952,0,0,0,122.6,77.229Z" transform="translate(-102.031 -55.284)" fill="#f36"/></g></g><g transform="translate(668 470.013)"><g transform="translate(0)"><path d="M9.744,0H45.28a9.736,9.736,0,0,1,9.744,9.744V43.9a9.736,9.736,0,0,1-9.744,9.744H9.744A9.736,9.736,0,0,1,0,43.9V9.744A9.736,9.736,0,0,1,9.744,0Z" transform="translate(0)" fill="#001e36"/></g><g transform="translate(12.38 13.641)"><path d="M54,83.481V59.89c0-.16.069-.252.229-.252.39,0,.757,0,1.284-.023.55-.023,1.123-.023,1.742-.046s1.284-.023,1.995-.046,1.4-.023,2.086-.023a13.48,13.48,0,0,1,4.723.711,8.187,8.187,0,0,1,3.072,1.88A7.3,7.3,0,0,1,70.805,64.7a8.775,8.775,0,0,1,.527,2.98,8.2,8.2,0,0,1-1.376,4.883,7.854,7.854,0,0,1-3.691,2.8,14.858,14.858,0,0,1-5.158.779c-.55,0-.917,0-1.146-.023s-.55-.023-.986-.023v7.359a.285.285,0,0,1-.252.321H54.275C54.092,83.779,54,83.687,54,83.481Zm5-19.419v7.7c.321.023.619.046.894.046h1.215a8.563,8.563,0,0,0,2.637-.413,3.943,3.943,0,0,0,1.88-1.215,3.543,3.543,0,0,0,.711-2.361,3.774,3.774,0,0,0-.527-2.04,3.325,3.325,0,0,0-1.6-1.307,6.727,6.727,0,0,0-2.705-.459c-.6,0-1.123,0-1.559.023a5.25,5.25,0,0,0-.94.023Z" transform="translate(-54 -59.5)" fill="#31a8ff"/><path d="M152.143,89.481a8.115,8.115,0,0,0-2.2-.779,12.086,12.086,0,0,0-2.568-.3,4.616,4.616,0,0,0-1.376.16,1.177,1.177,0,0,0-.711.459,1.215,1.215,0,0,0-.183.619,1.02,1.02,0,0,0,.229.6,2.587,2.587,0,0,0,.78.619c.527.275,1.078.527,1.628.757a16.605,16.605,0,0,1,3.531,1.674,5.334,5.334,0,0,1,1.811,1.9,4.95,4.95,0,0,1,.527,2.361,5.335,5.335,0,0,1-.894,3.049,5.745,5.745,0,0,1-2.568,2.04,10.5,10.5,0,0,1-4.15.734,15.792,15.792,0,0,1-3.118-.3,9.248,9.248,0,0,1-2.339-.734.451.451,0,0,1-.252-.436V97.918a.249.249,0,0,1,.092-.206.175.175,0,0,1,.206.023,9.814,9.814,0,0,0,2.843,1.123,10.673,10.673,0,0,0,2.705.344,4.376,4.376,0,0,0,1.9-.321,1.065,1.065,0,0,0,.619-.963,1.215,1.215,0,0,0-.55-.917,9.723,9.723,0,0,0-2.247-1.078,14.027,14.027,0,0,1-3.256-1.651,5.936,5.936,0,0,1-1.742-1.949,4.919,4.919,0,0,1-.527-2.338,5.392,5.392,0,0,1,.779-2.774,5.651,5.651,0,0,1,2.407-2.109,8.89,8.89,0,0,1,4.058-.8,19.765,19.765,0,0,1,2.843.206,8.067,8.067,0,0,1,1.972.527.4.4,0,0,1,.229.206,1.151,1.151,0,0,1,.046.275v3.737a.282.282,0,0,1-.115.229A.611.611,0,0,1,152.143,89.481Z" transform="translate(-120.505 -78.614)" fill="#31a8ff"/></g></g><g transform="translate(1180 469.554)"><g transform="translate(0)"><g transform="translate(0)"><path d="M9.744,0H45.28a9.736,9.736,0,0,1,9.744,9.744V43.9a9.736,9.736,0,0,1-9.744,9.744H9.744A9.736,9.736,0,0,1,0,43.9V9.744A9.736,9.736,0,0,1,9.744,0Z" transform="translate(0)" fill="#00005b"/></g></g><g transform="translate(13.068 13.641)"><path d="M57,83.481V59.89c0-.16.069-.252.229-.252.39,0,.757,0,1.284-.023.55-.023,1.123-.023,1.742-.046s1.284-.023,1.995-.046,1.4-.023,2.086-.023a13.481,13.481,0,0,1,4.723.711,8.187,8.187,0,0,1,3.072,1.88A7.3,7.3,0,0,1,73.805,64.7a8.775,8.775,0,0,1,.527,2.98,8.2,8.2,0,0,1-1.376,4.883,7.854,7.854,0,0,1-3.691,2.8,14.858,14.858,0,0,1-5.158.779c-.55,0-.917,0-1.146-.023s-.55-.023-.986-.023v7.359a.285.285,0,0,1-.252.321H57.275C57.092,83.779,57,83.687,57,83.481Zm5-19.419v7.7c.321.023.619.046.894.046h1.215a8.563,8.563,0,0,0,2.637-.413,3.943,3.943,0,0,0,1.88-1.215,3.543,3.543,0,0,0,.711-2.361,3.773,3.773,0,0,0-.527-2.04,3.325,3.325,0,0,0-1.6-1.307,6.727,6.727,0,0,0-2.705-.459c-.6,0-1.123,0-1.559.023a5.25,5.25,0,0,0-.94.023Z" transform="translate(-57 -59.5)" fill="#99f"/><path d="M145.814,83.88h4.012a.516.516,0,0,1,.481.367,2.329,2.329,0,0,1,.138.573c.046.229.092.481.115.711.023.252.046.527.046.825a8.533,8.533,0,0,1,2.453-1.972,7.105,7.105,0,0,1,3.485-.894.285.285,0,0,1,.321.252V88.3c0,.183-.115.252-.367.252a9.969,9.969,0,0,0-2.476.229,9.435,9.435,0,0,0-1.926.619,3.564,3.564,0,0,0-1.169.848v11.692c0,.229-.092.321-.3.321h-4.517a.317.317,0,0,1-.367-.275V89.2c0-.55,0-1.123-.023-1.719s-.023-1.192-.046-1.788c0-.527-.046-1.032-.092-1.559a.211.211,0,0,1,.16-.252c0-.023.046-.023.069,0Z" transform="translate(-125.272 -77.988)" fill="#99f"/></g></g><g transform="translate(1077.618 469.907)"><g transform="translate(0 0)"><rect width="55" height="54" rx="12" transform="translate(0.382 0.093)" fill="#00005b"/></g><g transform="translate(6.731 13.879)"><path d="M44.956,78.4H36.429l-1.735,5.4a.434.434,0,0,1-.443.332H29.933q-.369,0-.258-.406L37.057,62.55c.074-.221.148-.438.221-.721a7.886,7.886,0,0,0,.148-1.495.228.228,0,0,1,.258-.258h5.869q.258,0,.3.185l8.379,23.5q.111.369-.221.369h-4.8a.341.341,0,0,1-.369-.258Zm-7.2-4.553H43.59q-.221-.738-.517-1.661t-.627-1.975l-.664-2.1q-.332-1.052-.609-2.03t-.5-1.79h-.037a29.77,29.77,0,0,1-.775,2.953q-.517,1.661-1.052,3.4T37.758,73.845Z" transform="translate(-29.649 -60.073)" fill="#99f"/><path d="M145.563,94.793h-7.272a5.186,5.186,0,0,0,.7,2.034,3.8,3.8,0,0,0,1.679,1.384,7.013,7.013,0,0,0,2.935.575,13.3,13.3,0,0,0,2.381-.261,8.775,8.775,0,0,0,2.047-.534c.123-.1.185-.037.185.185v3.507a.547.547,0,0,1-.055.277.53.53,0,0,1-.166.166,9.387,9.387,0,0,1-2.287.681,16.223,16.223,0,0,1-3.248.277,10.526,10.526,0,0,1-4.393-.812,7.829,7.829,0,0,1-2.879-2.178,8.528,8.528,0,0,1-1.587-3.008,11.846,11.846,0,0,1-.48-3.341,11.633,11.633,0,0,1,.572-3.636,9.5,9.5,0,0,1,1.716-3.138,8.245,8.245,0,0,1,2.768-2.178,8.668,8.668,0,0,1,3.839-.719,8.33,8.33,0,0,1,3.562.7A6.278,6.278,0,0,1,148,86.6a8.4,8.4,0,0,1,1.366,2.6,9.274,9.274,0,0,1,.443,2.805q0,.812-.055,1.476t-.092.96a.334.334,0,0,1-.332.3q-.221,0-.757.055t-1.329.074C146.713,94.883,146.154,94.793,145.563,94.793Zm-7.272-3.363h4.835q.886,0,1.31-.018a1.289,1.289,0,0,0,.535-.177v-.221a2.953,2.953,0,0,0-.148-.849,3.015,3.015,0,0,0-2.99-2.1,3.206,3.206,0,0,0-3.045,1.735,5.339,5.339,0,0,0-.5,1.635Z" transform="translate(-109.401 -78.57)" fill="#99f"/></g></g><g transform="translate(770 469.554)"><g transform="translate(0)"><g transform="translate(0)"><path d="M9.744,0H45.28a9.736,9.736,0,0,1,9.744,9.744V43.9a9.736,9.736,0,0,1-9.744,9.744H9.744A9.736,9.736,0,0,1,0,43.9V9.744A9.736,9.736,0,0,1,9.744,0Z" transform="translate(0)" fill="#300"/></g></g><g transform="translate(11.369 11.899)"><path d="M64.885,78.356H56.356l-1.742,5.388a.4.4,0,0,1-.436.321h-4.31c-.252,0-.321-.138-.252-.413L57,62.4c.069-.229.138-.481.229-.757a8.008,8.008,0,0,0,.138-1.49.227.227,0,0,1,.183-.252h5.938c.183,0,.275.069.3.183L72.152,83.7c.069.252,0,.367-.229.367H67.131a.346.346,0,0,1-.367-.252Zm-7.2-4.654h5.823c-.138-.481-.321-1.055-.527-1.651-.206-.619-.413-1.284-.619-1.972-.229-.711-.436-1.4-.665-2.109s-.436-1.376-.619-2.04c-.183-.642-.344-1.238-.5-1.788h-.046a28.148,28.148,0,0,1-.779,2.958c-.344,1.1-.688,2.247-1.055,3.393-.321,1.169-.665,2.247-1.009,3.21Z" transform="translate(-49.59 -58.066)" fill="#ff9a00"/><path d="M160.315,57.655a2.837,2.837,0,0,1-2.04-.8,2.978,2.978,0,0,1-.779-2.109,2.7,2.7,0,0,1,.825-2.04,2.936,2.936,0,0,1,2.04-.8,2.745,2.745,0,0,1,2.086.8,3.152,3.152,0,0,1-.046,4.15A2.7,2.7,0,0,1,160.315,57.655Zm-2.568,19.9V59.9c0-.229.092-.321.3-.321h4.539c.206,0,.3.115.3.321V77.555c0,.252-.092.367-.3.367h-4.494A.321.321,0,0,1,157.748,77.555Z" transform="translate(-132.756 -51.9)" fill="#ff9a00"/></g></g><g transform="translate(668 554.49)"><path d="M11.143,0,27.509,32.034,0,0Z" transform="translate(0 17.753)" fill="#ea6c00" fill-rule="evenodd"/><path d="M11.143,32.034,27.509,0,0,32.034Z" transform="translate(55.023 49.788) rotate(180)" fill="#ea6c00" fill-rule="evenodd"/><path d="M0,0H32.733L16.367,32.034Z" transform="translate(11.142 17.753)" fill="#fdad00" fill-rule="evenodd"/><path d="M16.367,0,.861,1.639,0,17.753Z" transform="translate(11.142 0)" fill="#fdd231" fill-rule="evenodd"/><path d="M16.367,17.753.861,16.114,0,0Z" transform="translate(43.875 17.753) rotate(180)" fill="#fdd231" fill-rule="evenodd"/><path d="M0,0,12,16.114,11.143,0Z" transform="translate(55.023 17.753) rotate(180)" fill="#fdad00" fill-rule="evenodd"/><path d="M0,16.114,12,0l-.861,16.114Z" transform="translate(0 1.639)" fill="#fdad00" fill-rule="evenodd"/><path d="M16.367,0,0,17.753H32.733Z" transform="translate(11.142 0)" fill="#feeeb7" fill-rule="evenodd"/></g><g transform="translate(776 551.328)"><path d="M51.1,0h-46A5.094,5.094,0,0,0,0,5.094v46a5.094,5.094,0,0,0,5.094,5.094h46A5.094,5.094,0,0,0,56.192,51.1v-46A5.094,5.094,0,0,0,51.1,0" fill="#dc395f"/><path d="M55.221,56.492a3.383,3.383,0,1,0-3.432-3.383,3.393,3.393,0,0,0,3.432,3.383M48.1,74.606a11.618,11.618,0,0,0-.3,2.541c0,2.979,1.615,4.956,5.048,4.956,2.847,0,5.155-1.691,6.817-4.421l-1.015,4.072H64.3L67.535,68.8c.808-3.281,2.373-4.984,4.745-4.984a2.825,2.825,0,0,1,3.029,3.079,6.047,6.047,0,0,1-.252,1.817l-1.666,5.957a8.953,8.953,0,0,0-.353,2.524c0,2.828,1.665,4.9,5.149,4.9,2.978,0,5.351-1.917,6.663-6.511l-2.221-.857c-1.111,3.078-2.07,3.634-2.827,3.634s-1.161-.5-1.161-1.513a6.7,6.7,0,0,1,.252-1.566l1.616-5.8a12.8,12.8,0,0,0,.555-3.681c0-4.341-2.625-6.607-5.805-6.607-2.978,0-6.007,2.686-7.521,5.514l1.11-5.075H60.216L59,64.088h4.039l-2.487,9.957c-1.953,4.341-5.54,4.412-5.99,4.311-.739-.167-1.212-.448-1.212-1.408a9.52,9.52,0,0,1,.353-2.31l3.786-15.019H47.9l-1.212,4.47h3.988L48.1,74.606" transform="translate(-36.441 -38.813)" fill="#fff"/></g><path d="M32.057,11.848l2.29-2.29q.993-.994,1.891-1.742t1.792-1.543a20.54,20.54,0,0,1,3.285-2.389,5.256,5.256,0,0,1,2.489-.7A4.357,4.357,0,0,1,46.842,4.43a3.782,3.782,0,0,1,1.344,2.838,5.268,5.268,0,0,1-.647,2.439,25.347,25.347,0,0,1-2.34,3.435Q37.434,23.3,37.434,26.283a1.144,1.144,0,0,0,1.294,1.294,3.891,3.891,0,0,0,2.191-.847A21.042,21.042,0,0,0,44,23.794Q45,22.7,46.443,20.808t2.539-3.485a10.672,10.672,0,0,1,1.842-2.19,2.705,2.705,0,0,1,1.742-.6,2.379,2.379,0,0,1,2.389,2.389,11.29,11.29,0,0,1-1.742,5.028,40.3,40.3,0,0,1-4.53,6.421,30.933,30.933,0,0,1-7.118,6.471,12.7,12.7,0,0,1-6.62,2.29,6.116,6.116,0,0,1-4.58-1.842,6.5,6.5,0,0,1-1.792-4.729,15.528,15.528,0,0,1,.249-2.838,19.2,19.2,0,0,1,.746-2.788,20.4,20.4,0,0,1,1.394-3.086,38.942,38.942,0,0,1,2.29-3.634q.1-.2.5-.8a33.026,33.026,0,0,0-5.127,5.028A47.627,47.627,0,0,0,23.5,30.266,26.871,26.871,0,0,1,20.608,34.5a3.294,3.294,0,0,1-2.489,1.045A3.417,3.417,0,0,1,15.481,34.4a4.048,4.048,0,0,1-1.045-2.838,9.192,9.192,0,0,1,.249-2.14,17.371,17.371,0,0,1,1.046-2.837,30.223,30.223,0,0,1,1.294-3.037,22.259,22.259,0,0,1,1.394-2.538l1.891-3.286a4.61,4.61,0,0,0,.6-1,35.8,35.8,0,0,0-3.883,3.634q-1.9,2.046-3.634,4.232a40.979,40.979,0,0,0-3.086,4.43,36.012,36.012,0,0,0-2.24,4.331,12.782,12.782,0,0,1-2.141,3.733,3.3,3.3,0,0,1-2.439.946A3.112,3.112,0,0,1,1,36.837,4.667,4.667,0,0,1,0,33.75q0-3.782,3.683-13.042a89.058,89.058,0,0,1,4.53-9.757,63.331,63.331,0,0,1,4.829-7.666A13.954,13.954,0,0,1,15.431.747,3.565,3.565,0,0,1,17.622,0a3.151,3.151,0,0,1,2.24.9,2.905,2.905,0,0,1,.946,2.19,5.515,5.515,0,0,1-.448,2.091A30,30,0,0,1,18.219,8.96q-.455.768-.9,1.543-.6,1.046-1.493,2.639l-1.1,2.19q2.987-3.584,5.227-6.073a49.987,49.987,0,0,1,3.933-3.982,15.76,15.76,0,0,1,3.037-2.19,5.4,5.4,0,0,1,2.439-.7,3.35,3.35,0,0,1,2.39.946,3.1,3.1,0,0,1,1,2.339,5.908,5.908,0,0,1-.4,1.991,25.969,25.969,0,0,1-1.692,3.385l-2.091,3.783-.8,1.493,1.194-1.294q1.792-1.89,3.086-3.186Z" transform="translate(885 560.023)" fill="#1991eb"/><g transform="translate(993 547.375)"><path d="M8.243,195.978a16.014,16.014,0,0,1,7.694-1.622c5.142.175,7.968,2.789,8.081,7.906.125,5.36.087,10.677.069,16.031,0,2.178-.574,2.683-2.727,2.683H18.377c-1.9,0-2.5-.58-2.533-2.5V204.127c0-2.221-1.048-3.132-3.295-3.045a7.317,7.317,0,0,0-1.167.112c-2.945.6-3.114.811-3.114,3.813V217.8c0,2.733-.468,3.195-3.164,3.195H2.115c-1.4,0-2.022-.661-2.115-2.109v-33.8c0-2.471.524-2.989,2.958-2.989H5.591c2.04,0,2.671.574,2.708,2.633.056,3.089,0,6.178,0,9.26-.056.568-.056,1.179-.056,1.984ZM52.216,208.5c-.181,1.423-.281,3.245-.661,5.023a9.33,9.33,0,0,1-7.7,7.837,18.612,18.612,0,0,1-8.274-.106,8.974,8.974,0,0,1-7.02-6.664,23.623,23.623,0,0,1,0-13.135c1.317-4.505,4.761-6.92,9.809-7.095a23.733,23.733,0,0,1,5.441.337c4.761.955,7.463,4.181,8.075,9.454.15,1.335.193,2.627.331,4.349Zm-8.318.106c-.094-1.466-.144-2.471-.237-3.457a8.023,8.023,0,0,0-.318-1.529,3.3,3.3,0,0,0-3.494-2.7,3.215,3.215,0,0,0-3.407,2.633,18.4,18.4,0,0,0,0,9.023,3.2,3.2,0,0,0,3.507,2.59,3.14,3.14,0,0,0,3.295-2.527A38.442,38.442,0,0,0,43.9,208.6v.006Zm61-4.1c.362-2.752-.25-3.6-2.9-3.476a50.774,50.774,0,0,0-6.433.955c-1.8.324-3.114-.131-3.363-1.529-.406-2.3-.25-4.281,1.6-4.836a25.083,25.083,0,0,1,13.248-.661c3.994.955,5.928,3.594,5.928,7.906v15.257c0,1.154,0,2.34-1.373,2.789a3.812,3.812,0,0,1-4.262-1.173l-.424-.612a12.113,12.113,0,0,1-8.268,2.633,8.351,8.351,0,0,1-7.394-12.305c1.317-2.8,3.95-3.682,6.671-4.118C100.271,204.988,102.6,204.77,104.9,204.508Zm.125,4.493c-1.572.237-2.958.368-4.3.661a2.855,2.855,0,0,0-2.49,2.771,3.037,3.037,0,0,0,1.791,3.413c1.317.512,4.118,0,4.761-.9a1.072,1.072,0,0,0,.2-.593c.037-1.735.037-3.457.037-5.373ZM57.857,195.279v-3.407a2.09,2.09,0,0,1,1.572-2.265q2.012-.674,4.093-1.148a1.9,1.9,0,0,1,2.409,1.2,1.872,1.872,0,0,1,.081.83c.044,1.466,0,2.927,0,4.555h3.906c1.9.044,2.558.661,2.633,2.633.106,4.006-.112,4.231-4.068,4.231h-2.3a8.932,8.932,0,0,0-.125,1.08v8.449c0,2.633.792,3.438,3.351,3.625,2.246.162,2.858.661,2.858,2.49.081,2.92-.512,3.906-2.858,4.044a22.476,22.476,0,0,1-5.566-.281c-3.813-.774-5.866-3.245-6-7.276-.112-3.519-.044-7.039-.056-10.539v-1.579h-2.3a1.976,1.976,0,0,1-2.128-1.8v-.181c-.318-2.7.162-3.413,2.727-4.137Zm28.648,16.38c0,4.561.087,9.129,0,13.691a9.529,9.529,0,0,1-9.572,9.491,9.326,9.326,0,0,1-1.5-.125c-1.835-.231-2.49-.955-2.515-2.858v-1.691c.081-1.591.574-2.147,2.153-2.44,2.44-.456,3.232-1.373,3.239-3.919V197.85c0-2.2.562-2.789,2.764-2.858h3c1.772.081,2.44.724,2.452,2.508v14.071Zm36.791-14.8a13.374,13.374,0,0,1,7.382-2.5c2.633,0,3.239.555,3.232,3.164V198.7c0,1.685-.7,2.284-2.346,2.459a44.556,44.556,0,0,0-4.611.811c-1.023.218-1.41.836-1.392,1.978.081,4.761,0,9.485,0,14.221,0,2.328-.505,2.814-2.858,2.858h-3.395A1.774,1.774,0,0,1,117.4,219.4a1.7,1.7,0,0,1,.006-.356V197.138a1.774,1.774,0,0,1,1.629-1.9h.087c1.647-.281,3.376-.537,4.175,1.622Z" transform="translate(0 -170.743)"/><path d="M1185.9,19.719c1.491-5.348.955-8.043-1.66-8.561.4,1.816.849,3.682-1.061,4.942-1,.661-1.791.406-3.563-.955-.818,1.679-.543,3.351-.162,5.142-2.54-.443-4.543-1.5-5.473-3.95a5.837,5.837,0,0,1,1.317-6.508,15.564,15.564,0,0,1,1.978-1.7c2.858-2.147,3.413-4.231,1.9-7.457a3.653,3.653,0,0,1-.162-.568,19.187,19.187,0,0,1,8.742,3.707c5.572,4.555,4.9,12.748-1.254,15.756A1.581,1.581,0,0,0,1185.9,19.719Z" transform="translate(-1100.277 -0.1)" fill="#ee4854"/></g><g transform="translate(1180 550.537)"><path d="M54.667,27,30.052,2.385,27.667,0,9.137,18.53.663,27a2.27,2.27,0,0,0,0,3.2L17.592,47.132,27.667,57.2l18.528-18.53.289-.286,8.185-8.172a2.265,2.265,0,0,0,0-3.215Zm-27,10.059L19.209,28.6l8.458-8.458L36.122,28.6Z" transform="translate(-0.002 0)" fill="#2684ff"/><path d="M54.188,20.345A14.237,14.237,0,0,1,54.127.27L35.62,18.769,45.692,28.841Z" transform="translate(-26.524 -0.201)" fill="url(#a)"/><path d="M116.808,111.91l-8.478,8.481a14.242,14.242,0,0,1,0,20.139l18.558-18.548Z" transform="translate(-80.666 -83.331)" fill="url(#b)"/></g><g transform="translate(770 635)"><path d="M409.312,2.93h-4.654L409.5,8.186v2.5h-9.973V7.758h4.841L399.527,2.5V0h9.789Zm-11.766,0h-4.66l4.847,5.256v2.5h-9.976V7.758H392.6L387.758,2.5V0h9.789Zm-11.652.12h-5.021V7.638h5.021v3.051H377.3V0h8.595Z" transform="translate(-365.347)" fill="#131313"/><path d="M5.107,548.668,0,491.4H56.1l-5.113,57.258-22.974,6.368Z" transform="translate(0 -475.833)" fill="#1572b6"/><path d="M885.5,693.277l18.564-5.148L908.43,639.2H885.5Z" transform="translate(-857.447 -618.95)" fill="#33a9dc"/><path d="M885.5,859.711h9.295l.64-7.191H885.5V845.5h17.614l-.168,1.885-1.727,19.356H885.5Z" transform="translate(-857.447 -818.715)" fill="#fff"/><path d="M416,1634.114h-.032L408.146,1632l-.5-5.6H400.6l.985,11.028,14.389,4h.041v-7.318Z" transform="translate(-387.909 -1574.876)" fill="#ebebeb"/><path d="M894.78,1506.2l-.846,9.4-7.834,2.113v7.318l14.4-3.992.1-1.188,1.223-13.654H894.78Z" transform="translate(-858.029 -1458.484)" fill="#fff"/><path d="M348.495,845.5v7.023H331.534l-.146-1.578-.32-3.561L330.9,845.5Zm-.025,14.212v7.023h-7.733l-.136-1.578-.32-3.561-.168-1.885h8.354Z" transform="translate(-320.417 -818.715)" fill="#ebebeb"/></g><g transform="translate(668 636)"><path d="M55.469,70.766l-5.013,56.156-22.533,6.247L5.453,126.931.445,70.766Z" transform="translate(-0.445 -55.503)" fill="#e44d26"/><path d="M128,145.093l18.208-5.048,4.284-47.988H128Z" transform="translate(-100.488 -72.202)" fill="#f16529"/><path d="M55.445,130.883H65.19V124H47.917l.165,1.848,1.693,18.983H65.19v-6.888H56.075ZM57,148.27H50.083l.965,10.816L65.158,163l.032-.009v-7.167l-.03.008-7.672-2.071Z" transform="translate(-37.678 -97.251)" fill="#ebebeb"/><path d="M24.18,0h3.5V3.459h3.2V0h3.5V10.473h-3.5V6.966h-3.2v3.507h-3.5V0ZM38.987,3.473H35.906V0h9.666V3.473H42.488v7h-3.5v-7h0ZM47.105,0h3.65L53,3.68,55.244,0H58.9V10.473H55.409V5.282L53,9.006h-.06L50.53,5.282v5.191H47.105ZM60.637,0h3.5V7.012h4.923v3.462H60.637V0Z" transform="translate(-19.061)"/><path d="M127.889,144.826h8.482l-.8,8.934-7.683,2.074V163l14.122-3.914.1-1.164,1.619-18.135.168-1.85H127.889v6.888Zm0-13.959v.017h16.639l.138-1.548.314-3.492.165-1.848H127.889v6.872Z" transform="translate(-100.401 -97.251)" fill="#fff"/></g><path d="M11.492,0A5.512,5.512,0,0,0,6.1,5.76a30.975,30.975,0,0,1-.969,9.648C4.193,18.457,2.6,20.389,0,20.637v2.8c2.6.249,4.193,2.18,5.135,5.229A30.972,30.972,0,0,1,6.1,38.314a5.513,5.513,0,0,0,5.389,5.76H43.839a5.512,5.512,0,0,0,5.388-5.76,30.975,30.975,0,0,1,.969-9.648c.942-3.05,2.53-4.982,5.131-5.229v-2.8c-2.6-.249-4.189-2.18-5.131-5.229a30.97,30.97,0,0,1-.969-9.648A5.512,5.512,0,0,0,43.839,0H11.491ZM37.51,27.13c0,4.126-3.078,6.628-8.185,6.628H20.63a.938.938,0,0,1-.938-.938V11.253a.938.938,0,0,1,.938-.938h8.645c4.259,0,7.054,2.307,7.054,5.849a5.237,5.237,0,0,1-4.276,5.1v.13c3.261.358,5.456,2.616,5.456,5.735ZM28.377,13.288H23.419v7h4.175c3.228,0,5.007-1.3,5.007-3.623C32.6,14.49,31.072,13.288,28.377,13.288Zm-4.957,9.781v7.717h5.14c3.361,0,5.141-1.348,5.141-3.883s-1.83-3.834-5.357-3.834H23.419Z" transform="translate(1078 652)" fill="#7952b3" fill-rule="evenodd"/><g transform="translate(975 647)"><path d="M27.656,0a27.659,27.659,0,0,0-8.743,53.9c1.382.256,1.89-.6,1.89-1.33,0-.659-.026-2.838-.038-5.149-7.694,1.673-9.318-3.263-9.318-3.263-1.258-3.2-3.071-4.047-3.071-4.047-2.509-1.717.189-1.681.189-1.681a5.814,5.814,0,0,1,4.24,2.85c2.467,4.228,6.47,3.006,8.048,2.3a5.889,5.889,0,0,1,1.756-3.7c-6.143-.7-12.6-3.071-12.6-13.668a10.7,10.7,0,0,1,2.85-7.423,9.938,9.938,0,0,1,.268-7.319s2.322-.743,7.607,2.835a26.236,26.236,0,0,1,13.851,0c5.279-3.578,7.6-2.835,7.6-2.835a9.925,9.925,0,0,1,.271,7.319A10.682,10.682,0,0,1,45.3,26.212c0,10.622-6.47,12.961-12.628,13.646a6.611,6.611,0,0,1,1.876,5.122c0,3.7-.032,6.679-.032,7.59,0,.736.5,1.6,1.9,1.327A27.66,27.66,0,0,0,27.656,0" transform="translate(0 0)" fill="#161614"/><path d="M45.081,179.941c-.061.137-.277.179-.474.084s-.313-.278-.248-.416.276-.181.476-.086.316.279.246.417m1.36,1.214c-.132.122-.39.066-.565-.128a.423.423,0,0,1-.081-.575c.136-.122.386-.065.567.128s.216.451.078.575m.934,1.553c-.17.118-.447.007-.618-.239s-.169-.541,0-.659.445-.012.618.232.169.545,0,.666m1.578,1.8c-.152.167-.474.122-.711-.106a.532.532,0,0,1-.157-.707c.153-.167.478-.12.716.106s.313.541.152.707m2.04.607c-.067.216-.378.315-.691.223s-.518-.349-.454-.567.377-.321.693-.222.518.346.452.567m2.322.257c.008.228-.258.417-.587.421s-.6-.177-.6-.4.26-.418.59-.423.6.177.6.4m2.281-.087c.039.223-.189.451-.516.512s-.618-.079-.659-.3.193-.457.513-.516.62.077.661.3" transform="translate(-34.722 -140.544)" fill="#161614"/></g><g transform="translate(873 647)"><path d="M0,0H55.326V55.326H0Z" fill="#f7df1e"/><path d="M67.311,137.285l4.234-2.562c.817,1.448,1.56,2.674,3.342,2.674,1.708,0,2.786-.668,2.786-3.268V116.45h5.2V134.2c0,5.385-3.157,7.836-7.762,7.836a8.07,8.07,0,0,1-7.8-4.754m18.385-.557,4.233-2.451a5.659,5.659,0,0,0,5.125,3.157c2.154,0,3.528-1.077,3.528-2.563,0-1.783-1.411-2.414-3.788-3.454l-1.3-.558c-3.751-1.6-6.239-3.6-6.239-7.836,0-3.9,2.971-6.871,7.613-6.871a7.679,7.679,0,0,1,7.39,4.16l-4.048,2.6c-.891-1.6-1.857-2.228-3.342-2.228a2.262,2.262,0,0,0-2.488,2.228c0,1.56.966,2.191,3.194,3.157l1.3.557c4.42,1.894,6.908,3.825,6.908,8.17,0,4.68-3.677,7.242-8.616,7.242-4.828,0-7.948-2.3-9.47-5.311" transform="translate(-52.764 -91.05)"/></g><g transform="translate(668 745.793)"><rect width="40" height="40" transform="translate(8 8.207)" fill="none"/><path d="M0,0H55.023V55.023H0Z" fill="#09a1a1"/><g transform="translate(12.418 5.428)"><path d="M1368.852,705.929l-.052-.019v-4.832l.054-.048.019-.03,17.853,11.572-17.875-6.638Zm0,13.294,0-.005,17.875-6.637-17.855,11.572-.017-.026h-.054v-4.884Z" transform="translate(-1355.661 -693.339)" fill="#001717"/><path d="M1379.734,290.7l9.642,19.233-17.854-11.572-.022-.015,0-.009,8.173-7.582Zm9.642,19.24-9.642,19.233-.054-.052-8.176-7.584,0-.009.021-.015Z" transform="translate(-1358.311 -290.7)" fill="#015051"/><path d="M678.289,300.8l.022.015-.019.03H665.217l-.118-.045,3.266-7.6.017.007h18.083l-8.172,7.582Zm0,.045-.054.049v-.049Zm0,23.1.017.026-.021.015,0,.009,8.176,7.584H668.382l-.017.008-3.266-7.6.11-.041h12.971l.058.054v-.054Z" transform="translate(-665.1 -293.153)" fill="#016b6b"/><path d="M1368.85,964.024l17.875,6.637v.007l-17.875,6.637,0,.006-.052.019V964l.052.019Z" transform="translate(-1355.661 -951.429)" fill="#015051"/><path d="M1365.758,1939.6v.054l-.058-.054Z" transform="translate(-1352.619 -1908.814)" fill="#016b6b"/><path d="M1170.277,1678v4.884h-.058l-3.719-3.469Z" transform="translate(-1157.138 -1652.098)" fill="#002122"/><path d="M719.553,902.93v.017l-3.777,1.415-8.576-8.07v-.022l8.576-8.07,3.777,1.415V902.93Z" transform="translate(-706.414 -877.044)" fill="#016b6b"/><path d="M1170.277,705.2v4.832l-3.777-1.415Z" transform="translate(-1157.138 -697.461)" fill="#002122"/><path d="M684.029,702.6v.048l-3.777,3.417-9.244-3.465Zm-.058,23.1H671l9.251-3.469Z" transform="translate(-670.89 -694.909)" fill="#013535"/></g><path d="M1043.7,2512.8h1.5l.487,1.876.159.743h.026l.159-.743.459-1.876h1.5v5.753h-1.221V2517.2c0-.172.007-.388.022-.65s.032-.534.049-.814.039-.551.062-.811.045-.474.061-.646h-.026l-.478,1.708-.3,1.037h-.655l-.3-1.037-.452-1.708h-.035c.017.172.039.386.061.646s.045.531.062.811.034.552.048.814.022.48.022.65v1.354h-1.2Zm9.222,4.531h-1.576l-.284,1.221h-1.557l1.735-5.753h1.841l1.734,5.753h-1.611Zm-.274-1.178-.088-.4q-.1-.418-.2-.9c-.071-.325-.142-.631-.213-.92h-.035c-.065.295-.131.6-.2.924s-.134.622-.2.9l-.087.4Zm4.875-.556-1.567-2.8h1.7l.459.938c.065.136.133.281.2.438s.148.328.23.518h.036c.065-.189.129-.363.194-.518s.127-.3.187-.438l.407-.938H1061l-1.567,2.868,1.664,2.885h-1.7l-.53-1.027c-.082-.153-.158-.306-.226-.459s-.14-.32-.217-.494h-.035c-.065.177-.131.342-.2.494s-.136.306-.207.459l-.495,1.027h-1.629Z" transform="translate(-1024.213 -2465.884)" fill="#fff"/></g><g transform="translate(771 745.793)"><path d="M28.1,0a28.1,28.1,0,1,0,28.1,28.1A28.1,28.1,0,0,0,28.1,0M16.533,6.13c1.9-2.138,5.118-3.807,9.438-4.224.7-.058,1.406-.107,2.123-.107a24.92,24.92,0,0,1,18,7.663,9.113,9.113,0,0,0-3.232-.5C29,8.961,24.3,36.327,20.149,36.233c-2.75.094-12.16-20.488-3.616-30.1M28.095,51.844A25,25,0,0,1,12.857,7c-10.006,11.3,1.178,35.647,7.631,36.3,8.038.5,11.08-24.9,20.522-28.158,7.085-2.658,12.446,7.949,9.21,19.905C46.935,45.221,38.546,51.665,28.095,51.844m.588-43.183c3.951,0,7.184-.994,7.212-2.21S32.737,4.242,28.78,4.242s-7.18.98-7.218,2.2,3.166,2.217,7.121,2.217" transform="translate(0 0.001)" fill="#f2f2f2"/></g><g transform="translate(717.113 589.322)"><path d="M183.088,249.583H154.43c0,.067,0,.134,0,.2A28.231,28.231,0,0,0,178,277.625Z" transform="translate(0 -66.148)" fill="#fff"/><path d="M200.572,183.435l1.752-10.534h11.43a28.233,28.233,0,0,0-52.218,0h38.979l-6.628,38.265a28.235,28.235,0,0,0,21.982-27.53c0-.067,0-.134,0-.2Z" transform="translate(-4.993)" fill="#fff"/></g></g></svg>