<svg xmlns="http://www.w3.org/2000/svg" width="135.597" height="8.814" viewBox="0 0 135.597 8.814">
  <path id="Path_101" data-name="Path 101" d="M-2483.575,2756.47h-.01q-.457-.01-4.961-.211c-10.182-.447-34.026-1.493-65.386-2.6-4.269-.15-7.322-.274-9.333-.377-.994-.051-1.714-.1-2.2-.139-.249-.021-.433-.042-.562-.062a1.506,1.506,0,0,1-.195-.041.526.526,0,0,1-.4-.512c0-.133.059-.449.538-.524.09-.014.214-.026.379-.038.3-.021.737-.04,1.331-.057,1.091-.031,2.7-.057,4.92-.078,4.2-.04,10.142-.058,17.023-.08,17.31-.054,41.016-.128,58.843-.606,11.338-.3,20.459-.437,27.71-.471-7.391-.382-16.566-.822-27.718-1.3-10.8-.464-29.093-.947-54.918-.611-15.446.2-26.4.607-26.512.611h-.019a.5.5,0,0,1-.5-.481.5.5,0,0,1,.481-.519c.109,0,11.079-.41,26.537-.612,4.917-.064,10.652-.112,16.854-.112,11.792,0,25.283.171,38.12.723,21.931.944,36.217,1.733,44.338,2.229,4.2.257,6.739.437,7.717.509.307.021.458.034.471.035l-.084,1-.477-.036c-1.612-.111-7.539-.443-20.474-.443-7.773,0-18.076.12-31.5.48-17.839.478-41.552.552-58.867.606-2.819.009-5.549.017-8.091.027,29.7,1.059,52.2,2.046,62.016,2.477,2.9.127,4.645.2,4.938.21a.5.5,0,0,1,.49.51A.5.5,0,0,1-2483.575,2756.47Z" transform="translate(2566.625 -2747.655)" fill="#0c0d0d"/>
</svg>
