<?xml version="1.0" encoding="utf-8"?>
<!-- Generator: Adobe Illustrator 27.7.0, SVG Export Plug-In . SVG Version: 6.00 Build 0)  -->
<svg version="1.1" id="Layer_1" xmlns="http://www.w3.org/2000/svg" xmlns:xlink="http://www.w3.org/1999/xlink" x="0px" y="0px"
	 viewBox="0 0 100 100.11" style="enable-background:new 0 0 100 100.11;" xml:space="preserve">
<style type="text/css">
	.st0{fill:#DD6360;}
	.st1{fill:#613433;}
	.st2{fill:#AB4E4E;}
</style>
<path class="st0" d="M0,55.26c-0.03-2.57,0.74-4.94,1.53-7.32c1.01-3.06,2-6.12,3-9.17c1.27-3.87,2.54-7.75,3.8-11.62
	c0.95-2.92,1.9-5.83,2.86-8.75c0.75-2.3,2.01-4.3,3.62-6.08c2.1-2.33,4.54-4.21,7.51-5.28c1.27-0.46,2.62-0.72,3.94-1
	c1.84-0.38,3.7-0.7,5.55-1.05c3.31-0.62,6.62-1.25,9.93-1.88c2.57-0.49,5.13-0.98,7.7-1.46c2.69-0.51,5.37-1.05,8.07-1.5
	c1.57-0.26,3.14-0.15,4.73,0.12c1.65,0.28,3.23,0.72,4.76,1.35c2.98,1.23,5.44,3.13,7.52,5.61c3.84,4.58,7.73,9.1,11.59,13.65
	c3.19,3.75,6.39,7.49,9.55,11.27c2.34,2.81,3.56,6.11,4.06,9.71c0.12,0.85,0.29,1.71,0.27,2.56c-0.03,1.23-0.09,2.49-0.34,3.69
	c-0.78,3.79-2.24,7.38-3.4,11.06c-1.5,4.73-3.08,9.44-4.62,14.16c-0.89,2.71-1.78,5.42-2.66,8.13c-1.19,3.67-3.46,6.55-6.46,8.9
	c-2.19,1.71-4.61,2.95-7.37,3.46c-2.44,0.45-4.89,0.88-7.32,1.34c-1.79,0.34-3.56,0.74-5.34,1.08c-2.53,0.48-5.06,0.93-7.58,1.4
	c-2.4,0.45-4.79,0.93-7.19,1.39c-1.62,0.31-3.24,0.64-4.86,0.9c-2.63,0.42-5.19,0.05-7.71-0.73c-3.82-1.19-7.01-3.26-9.58-6.36
	c-2.8-3.38-5.68-6.7-8.52-10.04c-4.17-4.91-8.34-9.81-12.5-14.72c-2.35-2.78-3.6-6.06-4.15-9.62C0.23,57.4,0.13,56.33,0,55.26z
	 M50.91,78.41c0.62-0.04,1.37-0.02,2.1-0.14c1.55-0.26,3.11-0.5,4.63-0.91c2.7-0.71,5.16-1.94,7.24-3.84
	c3.09-2.82,5.19-6.23,6.18-10.31c0.51-2.08,0.05-3.85-1.55-5.29c-1.12-1-2.46-1.49-3.94-1.61c-1.78-0.14-3.49,0.37-5.21,0.7
	c-3.71,0.71-7.42,1.43-11.13,2.14c-2.83,0.55-5.66,1.1-8.49,1.65c-1.9,0.37-3.65,1.04-4.93,2.58c-1.7,2.04-2.03,4.22-0.47,6.48
	c1.56,2.26,3.49,4.14,5.82,5.59C44.1,77.28,47.27,78.39,50.91,78.41z M21.55,48.57c-0.02,2.94,2.26,5.25,5.21,5.32
	c2.35,0.05,5.59-1.91,5.2-5.94c-0.21-2.2-2.17-4.6-5.16-4.6C23.73,43.35,21.49,45.92,21.55,48.57z M76.26,40.05
	c0.25-2.63-2.17-5.32-5.15-5.31c-2.9,0.01-5.21,2.32-5.26,5.2c-0.05,3.08,2.62,5.29,5.2,5.32C73.9,45.29,76.52,42.65,76.26,40.05z"
	/>
<path class="st1" d="M50.91,78.41c-3.64-0.02-6.81-1.14-9.75-2.97c-2.33-1.45-4.26-3.32-5.82-5.59c-1.55-2.26-1.23-4.44,0.47-6.48
	c1.28-1.53,3.03-2.21,4.93-2.58c2.83-0.54,5.66-1.1,8.49-1.65c3.71-0.72,7.42-1.44,11.13-2.14c1.72-0.33,3.43-0.84,5.21-0.7
	c1.48,0.12,2.83,0.6,3.94,1.61c1.6,1.44,2.05,3.21,1.55,5.29c-0.99,4.09-3.09,7.49-6.18,10.31c-2.08,1.9-4.54,3.13-7.24,3.84
	c-1.52,0.4-3.08,0.65-4.63,0.91C52.28,78.39,51.53,78.37,50.91,78.41z M51.79,77.11c1.07-0.17,2.86-0.39,4.62-0.74
	c3.34-0.67,6.14-2.38,8.54-4.74c0.78-0.77,1.38-1.73,2.02-2.64c1.05-1.48,0.44-3.36-1.25-4.06c-1.78-0.75-3.62-1.24-5.53-1.56
	c-2.14-0.36-4.25-0.25-6.37,0.08c-1.97,0.31-3.87,0.88-5.75,1.54c-1.67,0.59-3.12,1.53-4.54,2.55c-1.01,0.72-2.02,1.45-2.78,2.47
	c-0.85,1.14-0.72,2.89,0.35,3.69c0.78,0.59,1.59,1.17,2.47,1.59C45.93,76.41,48.43,77.02,51.79,77.11z"/>
<path class="st1" d="M21.55,48.57c-0.05-2.66,2.18-5.22,5.24-5.22c2.99,0,4.95,2.41,5.16,4.6c0.39,4.03-2.85,6-5.2,5.94
	C23.81,53.83,21.52,51.51,21.55,48.57z"/>
<path class="st1" d="M76.26,40.05c0.25,2.6-2.36,5.23-5.21,5.21c-2.58-0.02-5.25-2.23-5.2-5.32c0.05-2.88,2.36-5.19,5.26-5.2
	C74.09,34.74,76.52,37.43,76.26,40.05z"/>
<path class="st2" d="M51.79,77.11c-3.36-0.09-5.86-0.7-8.21-1.83c-0.88-0.42-1.69-1-2.47-1.59c-1.07-0.8-1.2-2.55-0.35-3.69
	c0.76-1.02,1.77-1.75,2.78-2.47c1.42-1.01,2.88-1.96,4.54-2.55c1.88-0.67,3.77-1.23,5.75-1.54c2.12-0.33,4.23-0.44,6.37-0.08
	c1.91,0.32,3.75,0.81,5.53,1.56c1.68,0.71,2.29,2.58,1.25,4.06c-0.64,0.91-1.24,1.87-2.02,2.64c-2.4,2.35-5.2,4.07-8.54,4.74
	C54.65,76.72,52.86,76.94,51.79,77.11z"/>
</svg>
