<svg xmlns="http://www.w3.org/2000/svg" width="56.192" height="56.191" viewBox="0 0 56.192 56.191"><path d="M28.1,0a28.1,28.1,0,1,0,28.1,28.1A28.1,28.1,0,0,0,28.1,0M16.533,6.13c1.9-2.138,5.118-3.807,9.438-4.224.7-.058,1.406-.107,2.123-.107a24.92,24.92,0,0,1,18,7.663,9.113,9.113,0,0,0-3.232-.5C29,8.961,24.3,36.327,20.149,36.233c-2.75.094-12.16-20.488-3.616-30.1M28.095,51.844A25,25,0,0,1,12.857,7c-10.006,11.3,1.178,35.647,7.631,36.3,8.038.5,11.08-24.9,20.522-28.158,7.085-2.658,12.446,7.949,9.21,19.905C46.935,45.221,38.546,51.665,28.095,51.844m.588-43.183c3.951,0,7.184-.994,7.212-2.21S32.737,4.242,28.78,4.242s-7.18.98-7.218,2.2,3.166,2.217,7.121,2.217" transform="translate(0 0.001)" fill="#333"/></svg>