<svg xmlns="http://www.w3.org/2000/svg" xmlns:xlink="http://www.w3.org/1999/xlink" width="766" height="1000" viewBox="0 0 766 1000"><defs><clipPath id="a"><rect width="766" height="1000" transform="translate(514)" fill="#fff" stroke="#707070" stroke-width="1"/></clipPath></defs><g transform="translate(-514)" clip-path="url(#a)"><g transform="translate(-30.315 115.403)"><path d="M1130.139-112.988c5.822,7.744,4.97,18.45,3.7,28.054A902.427,902.427,0,0,1,1115.472,12.2c-4.046,16.416-8.872,33.33-19.982,46.075-9.36,10.736-22.355,17.534-35.253,23.579a551.513,551.513,0,0,1-92.827,33.728c-33.963,10.548-21.364,111.593-24.127,168.772-.419,8.688-.1,17.6,2.957,25.737,5.167,13.737,17.315,23.427,25.989,35.267,21.4,29.2,20.2,68.738,31.671,103.079,9.268,27.75,27.258,53.551,27.262,82.808.007,61.02-76.35,101.533-76.287,162.552.016,15.853,7.548,33.518,22.73,38.077,4.69,1.409,9.67,1.433,14.568,1.445l33.006.083c5.172.013,10.656-.058,15.041-2.8,6.511-4.073,8.5-12.908,7.212-20.478s-5.135-14.419-7.956-21.562c-16.3-41.294,2.578-87.526,23.34-126.767s44.514-81.276,37.761-125.155c-3.566-23.178-15.636-45.761-11.564-68.855,2.021-11.464,7.9-21.841,13.955-31.783,26.537-43.574,58.958-85.193,70.949-134.783,1.8-7.457,3.053-15.625-.241-22.553-2.713-5.708-8.072-9.626-13.276-13.213-15.3-10.542-31.609-20.555-49.892-23.86-30.355-5.488-63.138,8.032-91.781-3.419-24.24-9.691-55.476-39.719-50.7-57.455,10.429-27.548,41.758-39.464,68.149-52.549a290.223,290.223,0,0,0,137.477-146.658c2.995-7.169,5.746-14.768,5.063-22.507s-5.75-15.614-13.374-17.111c-11.549,2.238-71.507,6.612-74.277,18.795C1088.458-127.83,1123.948-121.5,1130.139-112.988Z" transform="translate(85.841 1.786)" fill="none" stroke="#fff" stroke-miterlimit="10" stroke-width="3"/><path d="M1263.142,14.1A61.539,61.539,0,0,0,1221.653-.122c-18.7.715-35.888,9.891-52.36,18.775-42.809,23.087-88.363,46.258-136.983,44.933-28.017-.765-55.2-9.731-80.888-20.941C938.5,37,924.658,30.62,910.854,33.511c-19.38,4.061-30.212,24.114-44.943,37.345-27.528,24.725-74.477,23.426-100.6-2.782-3.46-3.473-6.687-7.543-7.482-12.381-.692-4.208.54-8.474,1.878-12.524A217.053,217.053,0,0,1,776.605,4.9c2.487-4.421,5.628-9.137,10.557-10.33,4.514-1.094,9.108,1.124,13.726,1.613,4.044.428,8.1-.484,12.062-1.389l39.069-8.92c5.787-1.321,11.727-2.708,16.632-6.052,4.723-3.221,8.111-8,11.519-12.59a324.4,324.4,0,0,1,38.19-42.889c8.913-8.379,18.343-16.285,28.764-22.69,36.977-22.726,85.994-26.569,114.825-59.012" transform="translate(45.872 1.948)" fill="none" stroke="#fff" stroke-miterlimit="10" stroke-width="3"/><path d="M706.888-151.989a344.655,344.655,0,0,0,147.286,58.5c22.835,3.548,4.525,47.77,19.918,67.242,17.02,21.531,34.247,43.272,55.751,60.326,20.319,16.115,44.465,28.086,60.534,48.441,24.125,30.563,24.882,72.851,24.552,111.786-.158,18.635-.444,37.888-8.052,54.9s-24.595,31.3-43.162,29.7c-14.679-1.613,4.481-52.351-11.131-49.158-15.966,4.613-38.457,36.825-63.576,59.09-14.262,12.642-29.454,26.969-31.93,45.866-1.777,13.569,3.475,27.062,9.825,39.187,34.111,65.146,100.942,109.1,132.134,175.7,2.709,5.786,5.061,12.862,1.642,18.258-3.533,5.575-11.236,6.306-17.836,6.4a1404.516,1404.516,0,0,1-240.061-17.132c-25.082-3.425,55.814-41.389,21.753-48.841-29.449-5.676-73.092,40.449-92.72,20.445-13.313-14.965-16.189-37.306-10.762-56.586s18.157-35.791,32.841-49.411c22.221-20.614,52.007-40.662,51.965-70.972-.046-34.09-37.431-54.108-56.456-82.4-27.84-41.4-14-96.775.813-144.413,4.188-13.477,8.722-27.534,18.762-37.452s43.139-18.473,38.282-4.966c-2.574,13.8,8.759,26.187,20.308,34.162,8.063,5.567,18.092,10.446,27.347,7.228s14.327-24.737,3.9-22.47c-30.1,7.267-55.359,31.843-63.452,61.73s1.32,63.852,23.641,85.311c16.722,16.078,41.267,27.651,45.942,50.372,3.35,16.291-5.7,33.238-18.836,43.435s-29.713,14.8-46.03,18.019c-26.837,5.293-55.42,7.312-80.9-2.644-41.566-16.245-64.946-59.535-84.128-99.83C552,209.4,530.215,150.9,557.274,104.6c13.994-23.947,38.715-39.46,63.471-51.966,6.361-3.214,13.8-6.341,20.365-3.572,3.272,1.378,5.81,4.065,7.952,6.9,32.579,43.074-11.6,116.613,26.477,154.911,21.089,10.059,48.061,6.164,65.44-9.454,12.474-11.208,19.743-27.2,31.778-38.884,27.606-26.788,71.913-24.306,109.382-15.605,7.863,1.826,16,4.009,22.065,9.336,16.877,14.826,8.345,41.772,4.557,63.915-6.37,37.233,6.273,77.218,32.891,104.022,17.127,17.246,39.019,28.8,58.645,43.133,53.051,38.755,90.472,106.578,73.884,170.149-4.247,16.28-12.06,31.956-24.348,43.448-16.567,15.493-39.325,21.951-60.586,29.855A382.194,382.194,0,0,0,834.461,718.087c-15.714,18.123-30.483,40.9-25.8,64.427,4.913,24.674,28.946,40.025,50.8,52.485,17.51,9.981,35.132,20.014,54.105,26.816C937.04,870.227,962,873.492,986.8,876.1c91.538,9.622,191.553,8.75,265.793-45.658,28.071-20.573,51.859-50.133,55.817-84.711,3.7-32.334-10.25-64.093-27.2-91.872a407.987,407.987,0,0,0-76.541-91.769c-16.12-14.38-33.682-27.811-45.249-46.055-7.938-12.517-12.68-26.745-17.346-40.813-7.535-22.713-15.167-46.152-13.444-70.019,1.273-17.642,7.606-34.484,14.187-50.9a1385.676,1385.676,0,0,1,58.363-126.738c6.166-10.6,15.549,9.62,13.972,16.016s-9.669,9.063-16.721,13.307c-42.092,25.33-87.4,52.588-109.063,96.677-10.425,21.214-13.267,45.223-19.722,67.96s-18.1,45.986-39.241,56.563c-22.8,11.411-50.471,5.234-75.12,11.751-22.628,5.983-43.825,22.721-66.8,18.259-10.66-2.069-20.129-8.624-30.887-10.1-16.417-2.247-31.82,7.6-45.274,17.267a1186.075,1186.075,0,0,0-99.889,80.342c-12.206,10.955-24.417,22.465-32.008,37-5.669,10.859-8.567,23.071-14.945,33.527-23.364,38.3-88.155,46.957-93.379,91.513-2.677,22.828,13.1,43.258,27.936,60.807,12.059,14.259,24.752,29,41.907,36.376,35.814,15.4,76.4-6.251,106.8-30.66,28.935-23.234,55.335-49.722,86.074-70.51s67.277-35.844,104.215-32.281c42.631,4.111,84.206,32.411,125.245,20.162,46.414-13.855,63.5-71.891,59.481-120.161-1.222-14.68-3.606-29.968,1.564-43.762,10.244-27.325,44.313-36.494,63.654-58.347,47.376-53.53-13.309-148.274,28.388-206.337,10.585-14.74,26.463-24.676,39.285-37.519,29.491-29.541,41.185-75.621,29.346-115.649-2.866-9.692-7.71-19.778-16.84-24.111-6.17-2.928-13.33-2.736-20.123-2.033-35.422,3.657-68.5,19.326-103.485,25.96s-76.375,1.547-97.507-27.115c-14.917-20.233-16.15-47.189-15.789-72.324.156-10.773.836-22.469,7.846-30.652,5.472-6.386,13.819-9.406,21.841-11.932,41.908-13.19,86.034-20.064,125.82-38.7s76.125-52.764,81.493-96.37c1.837-14.919-.864-31.756-12.383-41.413-15.756-13.207-40.12-7.086-57.343,4.142-3.858,2.515-7.807,5.567-9.117,9.981-2.327,7.832,4.447,15.046,9.5,21.465,14.959,18.989,17.827,45.315,13.2,69.04s-15.914,45.547-27.063,67c-22.106,42.522-48.807,88.993-94.733,102.69-6.726,2.007-13.833,3.285-19.748,7.064-12.836,8.2-16.235,25.657-14.672,40.81s6.836,29.926,6.511,45.157c-.728,34.163-29.166,63.435-28.55,97.6.461,25.515,16.91,47.452,28.627,70.123,21,40.624,27.609,86.919,33.91,132.213,4.637,33.322,8.661,69.787-9.089,98.367-13.071,21.045-36.178,34.421-48.868,55.7-23.074,38.691-4.1,89.519,24.648,124.2,30.958,37.356,72.612,65.338,118.114,82.176,62.535,23.139,139.049,23.025,189.447-20.634" fill="none" stroke="#fff" stroke-miterlimit="10" stroke-width="3"/></g></g></svg>